<?xml version="1.0" encoding="iso-8859-1"?>
<!-- Generator: Adobe Illustrator 25.2.3, SVG Export Plug-In . SVG Version: 6.00 Build 0)  -->
<svg version="1.1" xmlns="http://www.w3.org/2000/svg" xmlns:xlink="http://www.w3.org/1999/xlink" x="0px" y="0px"
	 viewBox="0 0 32 32" style="enable-background:new 0 0 32 32;" xml:space="preserve">
<g id="cancel">
	<path style="fill:#717171;" d="M16.056,2.823C8.779,2.823,2.879,8.722,2.879,16c0,7.278,5.9,13.177,13.177,13.177
		c7.278,0,13.177-5.9,13.177-13.177C29.234,8.722,23.334,2.823,16.056,2.823z M25.374,16c0,1.664-0.441,3.222-1.205,4.574
		L11.482,7.888c1.352-0.764,2.91-1.205,4.574-1.205C21.202,6.682,25.374,10.854,25.374,16z M6.739,16
		c0-1.716,0.472-3.318,1.281-4.698l12.735,12.735c-1.381,0.809-2.983,1.281-4.698,1.281C10.91,25.318,6.739,21.146,6.739,16z"/>
</g>
<g id="Layer_1">
</g>
</svg>
