<?xml version="1.0" encoding="iso-8859-1"?>
<!-- Generator: Adobe Illustrator 25.4.1, SVG Export Plug-In . SVG Version: 6.00 Build 0)  -->
<svg version="1.1" xmlns="http://www.w3.org/2000/svg" xmlns:xlink="http://www.w3.org/1999/xlink" x="0px" y="0px"
	 viewBox="0 0 32 32" style="enable-background:new 0 0 32 32;" xml:space="preserve">
<g id="eye-open-dark">
	<g id="eye_x5F_open_00000015322854077791804580000005996689422451628170_">
		<path style="fill:#DEDEDE;" d="M19.475,14.165c0,1.341-1.092,2.431-2.43,2.431c-1.346,0-2.434-1.089-2.434-2.431
			c0-1.342,1.088-2.431,2.434-2.431C18.383,11.734,19.475,12.822,19.475,14.165z M1.225,17.007c1.066-1.253,3.294-3.299,7.834-4.427
			c-0.257,0.748-0.422,1.539-0.422,2.373c0,4.042,3.274,7.316,7.316,7.316c4.042,0,7.411-3.274,7.411-7.316
			c0-0.833-0.165-1.624-0.422-2.373c4.54,1.127,6.768,3.174,7.834,4.427c0-3.744-5.593-8.617-14.775-8.617
			C6.819,8.39,1.225,13.263,1.225,17.007z M15.999,6.128C26.687,6.128,32,14.237,32,16.78c-1.79,2.034-6.256,7.511-16,7.511
			c-9.744,0-14.21-5.477-16-7.511C0,14.237,5.31,6.128,15.999,6.128z"/>
	</g>
</g>
<g id="Layer_1">
</g>
</svg>
