<?xml version="1.0" encoding="iso-8859-1"?>
<!-- Generator: Adobe Illustrator 25.4.1, SVG Export Plug-In . SVG Version: 6.00 Build 0)  -->
<svg version="1.1" xmlns="http://www.w3.org/2000/svg" xmlns:xlink="http://www.w3.org/1999/xlink" x="0px" y="0px"
	 viewBox="0 0 32 32" style="enable-background:new 0 0 32 32;" xml:space="preserve">
<g id="eye-inverse-hover">
	<g>
		<path style="fill:#252525;" d="M16,8.39c-9.182,0-14.775,4.873-14.775,8.617c1.066-1.253,3.294-3.299,7.834-4.427
			c-0.257,0.748-0.422,1.539-0.422,2.373c0,4.042,3.274,7.316,7.316,7.316c4.042,0,7.411-3.274,7.411-7.316
			c0-0.833-0.165-1.624-0.422-2.373c4.54,1.127,6.768,3.174,7.834,4.427C30.775,13.263,25.182,8.39,16,8.39z M17.045,16.596
			c-1.346,0-2.434-1.089-2.434-2.431c0-1.342,1.088-2.431,2.434-2.431c1.338,0,2.43,1.088,2.43,2.431
			C19.475,15.506,18.383,16.596,17.045,16.596z"/>
		<path style="fill:#252525;" d="M16,24.29c-9.745,0-14.21-5.477-16-7.511V32h32V16.78C30.21,18.813,25.744,24.29,16,24.29z"/>
		<path style="fill:#252525;" d="M0,0v16.78C0,14.237,5.31,6.128,15.999,6.128C26.688,6.128,32,14.237,32,16.78V0H0z"/>
	</g>
</g>
<g id="Layer_1">
</g>
</svg>
