<?xml version="1.0" encoding="UTF-8"?>
<svg xmlns="http://www.w3.org/2000/svg" xmlns:xlink="http://www.w3.org/1999/xlink" version="1.2" >
<font id="Menlo Regular">
<font-face  font-family="Menlo" units-per-em="2048" ascent="1556" descent="-492" font-style="normal" font-weight="400" font-stretch="normal" cap-height="1493" x-height="1120" underline-position="-130" underline-thickness="90" />
<missing-glyph  horiz-adv-x="1233" d="M104 -362 L104 1444 L1128 1444 L1128 -362 L104 -362 Z M219 -248 L1014 -248 L1014 1329 L219 1329 L219 -248 Z " />
<glyph glyph-name="space" unicode="&#x20;" horiz-adv-x="1233" d="" />
<glyph glyph-name="exclam" unicode="&#x21;" horiz-adv-x="1233" d="M546 1493 L749 1493 L749 838 L728 531 L567 531 L546 838 L546 1493 Z M516 254 L779 254 L779 0 L516 0 L516 254 Z " />
<glyph glyph-name="quotedbl" unicode="&#x22;" horiz-adv-x="1233" d="M945 1547 L945 935 L721 935 L721 1547 L945 1547 Z M412 1547 L412 935 L188 935 L188 1547 L412 1547 Z " />
<glyph glyph-name="numbersign" unicode="&#x23;" horiz-adv-x="1233" d="M684 1465 L594 1111 L839 1111 L930 1465 L1090 1465 L999 1111 L1243 1111 L1243 958 L962 958 L864 565 L1114 565 L1114 412 L825 412 L721 0 L561 0 L666 412 L420 412 L315 0 L156 0 L260 412 L2 412 L2 565 L299 565 L397 958 L131 958 L131 1111 L434 1111 L524 1465 L684 1465 Z M802 958 L557 958 L459 565 L705 565 L802 958 Z " />
<glyph glyph-name="dollar" unicode="&#x24;" horiz-adv-x="1233" d="M692 580 L692 146 Q802 149 864 207 Q926 265 926 365 Q926 458 870 509.5 Q814 561 692 580 Z M592 770 L592 1183 Q488 1179 429.5 1123 Q371 1067 371 973 Q371 887 425.5 837 Q480 787 592 770 Z M692 -301 L592 -301 L591 0 Q489 5 388.5 28 Q288 51 190 92 L190 272 Q290 210 391.5 177 Q493 144 592 142 L592 600 Q392 631 291 722 Q190 813 190 963 Q190 1120 295.5 1213.5 Q401 1307 592 1321 L592 1556 L692 1556 L693 1321 Q772 1316 853 1301 Q934 1286 1018 1260 L1018 1087 Q933 1130 852.5 1153.5 Q772 1177 692 1181 L692 750 Q898 719 1006 622 Q1114 525 1114 371 Q1114 217 997.5 114 Q881 11 693 2 L692 -301 Z " />
<glyph glyph-name="percent" unicode="&#x25;" horiz-adv-x="1233" d="M696 319 Q696 241 748.5 188 Q801 135 879 135 Q956 135 1009.5 188.5 Q1063 242 1063 319 Q1063 396 1009 450 Q955 504 879 504 Q801 504 748.5 451 Q696 398 696 319 Z M561 319 Q561 454 653 546.5 Q745 639 879 639 Q943 639 1000.5 615 Q1058 591 1104 545 Q1150 498 1175 440 Q1200 382 1200 319 Q1200 186 1107 93 Q1014 0 879 0 Q743 0 652 91.5 Q561 183 561 319 Z M83 440 L39 553 L1154 999 L1204 886 L83 440 Z M168 1112 Q168 1033 220.5 980.5 Q273 928 352 928 Q429 928 483 981.5 Q537 1035 537 1112 Q537 1189 483 1242.5 Q429 1296 352 1296 Q275 1296 221.5 1243 Q168 1190 168 1112 Z M33 1112 Q33 1247 125 1339.5 Q217 1432 352 1432 Q416 1432 474.5 1408 Q533 1384 578 1339 Q623 1294 647.5 1235.5 Q672 1177 672 1112 Q672 978 579 885.5 Q486 793 352 793 Q217 793 125 885 Q33 977 33 1112 Z " />
<glyph glyph-name="ampersand" unicode="&#x26;" horiz-adv-x="1233" d="M547 907 L963 348 Q1002 397 1021 472 Q1040 547 1040 651 Q1040 683 1037 753 L1036 760 L1200 760 L1200 721 Q1200 560 1163 438.5 Q1126 317 1051 229 L1221 0 L1008 0 L930 109 Q847 39 754 5 Q661 -29 555 -29 Q339 -29 198 105.5 Q57 240 57 444 Q57 581 126 698 Q195 815 334 915 Q284 987 260 1056 Q236 1125 236 1196 Q236 1346 335.5 1433 Q435 1520 608 1520 Q673 1520 738.5 1508 Q804 1496 874 1473 L874 1290 Q815 1329 752.5 1347.5 Q690 1366 621 1366 Q524 1366 468 1320.5 Q412 1275 412 1198 Q412 1139 441 1074.5 Q470 1010 547 907 Z M416 803 Q324 730 278.5 648.5 Q233 567 233 475 Q233 324 333 224.5 Q433 125 588 125 Q630 125 676 137 Q722 149 766 172 Q793 187 810.5 198.5 Q828 210 844 223 L416 803 Z " />
<glyph glyph-name="quotesingle" unicode="&#x27;" horiz-adv-x="1233" d="M742 1558 L742 935 L518 935 L518 1558 L742 1558 Z " />
<glyph glyph-name="parenleft" unicode="&#x28;" horiz-adv-x="1233" d="M855 1654 Q722 1426 656.5 1199.5 Q591 973 591 743 Q591 514 656.5 287 Q722 60 855 -170 L695 -170 Q544 68 470 293.5 Q396 519 396 743 Q396 966 470 1192 Q544 1418 695 1654 L855 1654 Z " />
<glyph glyph-name="parenright" unicode="&#x29;" horiz-adv-x="1233" d="M348 1654 L508 1654 Q659 1418 733 1192 Q807 966 807 743 Q807 518 733 292 Q659 66 508 -170 L348 -170 Q481 62 546.5 289 Q612 516 612 743 Q612 971 546.5 1198 Q481 1425 348 1654 Z " />
<glyph glyph-name="asterisk" unicode="&#x2a;" horiz-adv-x="1233" d="M1179 871 L735 631 L1179 390 L1109 268 L691 519 L691 53 L548 53 L548 519 L130 268 L60 390 L505 631 L60 871 L130 994 L548 743 L548 1209 L691 1209 L691 743 L1109 994 L1179 871 Z " />
<glyph glyph-name="plus" unicode="&#x2b;" horiz-adv-x="1233" d="M720 1178 L720 735 L1165 735 L1165 566 L720 566 L720 123 L552 123 L552 566 L108 566 L108 735 L552 735 L552 1178 L720 1178 Z " />
<glyph glyph-name="comma" unicode="&#x2c;" horiz-adv-x="1233" d="M442 361 L754 361 L754 96 L532 -335 L332 -336 L442 96 L442 361 Z " />
<glyph glyph-name="hyphen" unicode="&#x2d;" horiz-adv-x="1233" d="M102 724 L1162 724 L1162 555 L102 555 L102 724 Z " />
<glyph glyph-name="period" unicode="&#x2e;" horiz-adv-x="1233" d="M389 404 L741 404 L741 0 L389 0 L389 404 Z " />
<glyph glyph-name="slash" unicode="&#x2f;" horiz-adv-x="1233" d="M889 1493 L1079 1493 L293 -190 L102 -190 L889 1493 Z " />
<glyph glyph-name="zero" unicode="0" horiz-adv-x="1233" d="M616 1515 Q855 1515 977.5 1320 Q1100 1125 1100 743 Q1100 361 977.5 166 Q855 -29 616 -29 Q377 -29 255 166 Q133 361 133 743 Q133 1125 255 1320 Q377 1515 616 1515 Z M616 131 Q758 131 827.5 282 Q897 433 897 743 Q897 908 877 1041 L401 296 Q476 131 616 131 Z M616 1355 Q475 1355 405.5 1204 Q336 1053 336 743 Q336 602 355 479 L821 1222 Q745 1355 616 1355 Z " />
<glyph glyph-name="one" unicode="1" horiz-adv-x="1233" d="M270 169 L584 169 L584 1297 L208 1116 L208 1310 L582 1488 L784 1488 L784 169 L1094 169 L1094 0 L270 0 L270 169 Z " />
<glyph glyph-name="two" unicode="2" horiz-adv-x="1233" d="M373 170 L1059 170 L1059 0 L152 0 L152 170 Q339 367 479 518 Q619 669 672 731 Q772 853 807 928.5 Q842 1004 842 1083 Q842 1208 768.5 1279 Q695 1350 567 1350 Q476 1350 376 1317 Q276 1284 164 1217 L164 1421 Q267 1470 366.5 1495 Q466 1520 563 1520 Q782 1520 915.5 1403.5 Q1049 1287 1049 1098 Q1049 1002 1004.5 906 Q960 810 860 694 Q804 629 697.5 514 Q591 399 373 170 Z " />
<glyph glyph-name="three" unicode="3" horiz-adv-x="1233" d="M776 799 Q923 760 1001 660.5 Q1079 561 1079 412 Q1079 206 940.5 88.5 Q802 -29 557 -29 Q454 -29 347 -10 Q240 9 137 45 L137 246 Q239 193 338 167 Q437 141 535 141 Q701 141 790 216 Q879 291 879 432 Q879 562 790 638.5 Q701 715 549 715 L395 715 L395 881 L549 881 Q688 881 766 942 Q844 1003 844 1112 Q844 1227 771.5 1288.5 Q699 1350 565 1350 Q476 1350 381 1330 Q286 1310 182 1270 L182 1456 Q303 1488 397.5 1504 Q492 1520 565 1520 Q783 1520 913.5 1410.5 Q1044 1301 1044 1120 Q1044 997 975.5 915 Q907 833 776 799 Z " />
<glyph glyph-name="four" unicode="4" horiz-adv-x="1233" d="M735 1309 L264 520 L735 520 L735 1309 Z M702 1493 L936 1493 L936 520 L1135 520 L1135 356 L936 356 L936 0 L735 0 L735 356 L102 356 L102 547 L702 1493 Z " />
<glyph glyph-name="five" unicode="5" horiz-adv-x="1233" d="M207 1493 L963 1493 L963 1323 L391 1323 L391 956 Q434 972 477.5 979.5 Q521 987 565 987 Q797 987 933 850 Q1069 713 1069 479 Q1069 243 926.5 107 Q784 -29 537 -29 Q418 -29 319.5 -13 Q221 3 143 35 L143 240 Q235 190 328 165.5 Q421 141 518 141 Q685 141 775.5 229 Q866 317 866 479 Q866 639 772.5 728 Q679 817 512 817 Q431 817 354 798.5 Q277 780 207 743 L207 1493 Z " />
<glyph glyph-name="six" unicode="6" horiz-adv-x="1233" d="M991 1460 L991 1274 Q928 1311 857 1330.5 Q786 1350 709 1350 Q517 1350 418 1205.5 Q319 1061 319 780 Q367 880 452 933.5 Q537 987 647 987 Q863 987 981.5 854.5 Q1100 722 1100 479 Q1100 237 978 104 Q856 -29 635 -29 Q375 -29 254 157.5 Q133 344 133 745 Q133 1123 278.5 1321.5 Q424 1520 700 1520 Q774 1520 848 1504.5 Q922 1489 991 1460 Z M631 829 Q502 829 428 736 Q354 643 354 479 Q354 315 428 222 Q502 129 631 129 Q765 129 833 217.5 Q901 306 901 479 Q901 653 833 741 Q765 829 631 829 Z " />
<glyph glyph-name="seven" unicode="7" horiz-adv-x="1233" d="M139 1493 L1079 1493 L1079 1407 L545 0 L334 0 L854 1323 L139 1323 L139 1493 Z " />
<glyph glyph-name="eight" unicode="8" horiz-adv-x="1233" d="M616 709 Q481 709 407.5 633.5 Q334 558 334 420 Q334 282 408.5 205.5 Q483 129 616 129 Q752 129 825.5 204.5 Q899 280 899 420 Q899 557 824.5 633 Q750 709 616 709 Z M440 793 Q311 826 238.5 916 Q166 1006 166 1133 Q166 1311 287 1415.5 Q408 1520 616 1520 Q825 1520 946 1415.5 Q1067 1311 1067 1133 Q1067 1006 994.5 916 Q922 826 793 793 Q943 760 1022.5 660 Q1102 560 1102 401 Q1102 199 973 85 Q844 -29 616 -29 Q388 -29 259.5 84.5 Q131 198 131 399 Q131 559 210.5 659.5 Q290 760 440 793 Z M367 1114 Q367 994 431 931 Q495 868 616 868 Q738 868 802 931 Q866 994 866 1114 Q866 1236 802.5 1300 Q739 1364 616 1364 Q495 1364 431 1299.5 Q367 1235 367 1114 Z " />
<glyph glyph-name="nine" unicode="9" horiz-adv-x="1233" d="M596 662 Q725 662 798.5 755 Q872 848 872 1012 Q872 1176 798.5 1269 Q725 1362 596 1362 Q462 1362 394 1273.5 Q326 1185 326 1012 Q326 838 393.5 750 Q461 662 596 662 Z M236 31 L236 217 Q299 180 370 160.5 Q441 141 518 141 Q710 141 808.5 285.5 Q907 430 907 711 Q860 611 775 557.5 Q690 504 580 504 Q364 504 245.5 637 Q127 770 127 1014 Q127 1255 248.5 1387.5 Q370 1520 592 1520 Q852 1520 973 1333 Q1094 1146 1094 745 Q1094 368 948.5 169.5 Q803 -29 526 -29 Q453 -29 379 -13.5 Q305 2 236 31 Z " />
<glyph glyph-name="colon" unicode="&#x3a;" horiz-adv-x="1233" d="M429 1119 L741 1119 L741 758 L429 758 L429 1119 Z M429 364 L741 364 L741 0 L429 0 L429 364 Z " />
<glyph glyph-name="semicolon" unicode="&#x3b;" horiz-adv-x="1233" d="M442 361 L754 361 L754 96 L557 -286 L343 -286 L442 96 L442 361 Z M429 1119 L741 1119 L741 758 L429 758 L429 1119 Z " />
<glyph glyph-name="less" unicode="&#x3c;" horiz-adv-x="1233" d="M1145 961 L295 641 L1145 324 L1145 141 L88 559 L88 725 L1145 1143 L1145 961 Z " />
<glyph glyph-name="equal" unicode="&#x3d;" horiz-adv-x="1233" d="M88 500 L1145 500 L1145 331 L88 331 L88 500 Z M88 971 L1145 971 L1145 802 L88 802 L88 971 Z " />
<glyph glyph-name="greater" unicode="&#x3e;" horiz-adv-x="1233" d="M88 961 L88 1143 L1145 725 L1145 559 L88 141 L88 324 L938 641 L88 961 Z " />
<glyph glyph-name="question" unicode="&#x3f;" horiz-adv-x="1233" d="M684 401 L494 401 L494 555 Q494 653 524.5 721.5 Q555 790 639 872 L729 961 Q791 1020 814.5 1064 Q838 1108 838 1157 Q838 1246 772.5 1301 Q707 1356 598 1356 Q520 1356 431 1321.5 Q342 1287 244 1219 L244 1407 Q338 1464 433.5 1492 Q529 1520 633 1520 Q819 1520 929.5 1424 Q1040 1328 1040 1167 Q1040 1091 1006.5 1025.5 Q973 960 879 868 L791 782 Q722 716 703 674 Q684 632 684 571 L684 524 L684 401 Z M487 254 L690 254 L690 0 L487 0 L487 254 Z " />
<glyph glyph-name="at" unicode="&#x40;" horiz-adv-x="1233" d="M1038 545 Q1038 674 974 751.5 Q910 829 803 829 Q696 829 631.5 751.5 Q567 674 567 545 Q567 415 631.5 337.5 Q696 260 803 260 Q910 260 974 337.5 Q1038 415 1038 545 Z M1178 135 L1034 135 L1034 246 Q997 183 931.5 149 Q866 115 784 115 Q623 115 517.5 236 Q412 357 412 545 Q412 733 517.5 854 Q623 975 784 975 Q864 975 931 940 Q998 905 1034 844 L1034 907 Q1034 1063 946 1158 Q858 1253 713 1253 Q467 1253 321.5 1061.5 Q176 870 176 543 Q176 214 341 19 Q506 -176 793 -177 Q847 -185 945 -185 Q1043 -185 1120 -181 L1120 -325 Q1055 -330 952.5 -330.5 Q850 -331 793 -322 Q446 -319 236.5 -86 Q27 147 27 543 Q27 933 215 1164 Q403 1395 719 1395 Q928 1395 1053 1262 Q1178 1129 1178 905 L1178 135 Z " />
<glyph glyph-name="A" unicode="A" horiz-adv-x="1233" d="M616 1315 L403 551 L829 551 L616 1315 Z M494 1493 L739 1493 L1196 0 L987 0 L877 389 L354 389 L246 0 L37 0 L494 1493 Z " />
<glyph glyph-name="B" unicode="B" horiz-adv-x="1233" d="M369 753 L369 166 L608 166 Q784 166 859 227.5 Q934 289 934 430 Q934 616 855 684.5 Q776 753 608 753 L369 753 Z M369 1327 L369 917 L604 917 Q750 917 815.5 973 Q881 1029 881 1114 Q881 1227 816.5 1277 Q752 1327 604 1327 L369 1327 Z M166 1493 L608 1493 Q837 1493 961 1394 Q1085 1295 1085 1114 Q1085 1017 1019.5 938 Q954 859 823 839 Q970 817 1053.5 713.5 Q1137 610 1137 410 Q1137 207 1004 103.5 Q871 0 608 0 L166 0 L166 1493 Z " />
<glyph glyph-name="C" unicode="C" horiz-adv-x="1233" d="M1073 53 Q996 12 915 -8.5 Q834 -29 743 -29 Q456 -29 297.5 174 Q139 377 139 745 Q139 1111 298.5 1315.5 Q458 1520 743 1520 Q834 1520 915 1499.5 Q996 1479 1073 1438 L1073 1231 Q999 1292 914 1324 Q829 1356 743 1356 Q546 1356 448 1204 Q350 1052 350 745 Q350 439 448 287 Q546 135 743 135 Q831 135 915.5 167 Q1000 199 1073 260 L1073 53 Z " />
<glyph glyph-name="D" unicode="D" horiz-adv-x="1233" d="M436 166 Q691 166 792 291.5 Q893 417 893 745 Q893 1076 792.5 1201.5 Q692 1327 436 1327 L340 1327 L340 166 L436 166 Z M440 1493 Q782 1493 944 1311 Q1106 1129 1106 745 Q1106 363 944 181.5 Q782 0 440 0 L137 0 L137 1493 L440 1493 Z " />
<glyph glyph-name="E" unicode="E" horiz-adv-x="1233" d="M197 1493 L1083 1493 L1083 1323 L399 1323 L399 921 L1053 921 L1053 751 L399 751 L399 170 L1102 170 L1102 0 L197 0 L197 1493 Z " />
<glyph glyph-name="F" unicode="F" horiz-adv-x="1233" d="M233 1493 L1112 1493 L1112 1323 L436 1323 L436 923 L1049 923 L1049 753 L436 753 L436 0 L233 0 L233 1493 Z " />
<glyph glyph-name="G" unicode="G" horiz-adv-x="1233" d="M1104 123 Q1023 48 921.5 9.5 Q820 -29 702 -29 Q418 -29 260 174.5 Q102 378 102 745 Q102 1111 262 1315.5 Q422 1520 707 1520 Q801 1520 887 1493.5 Q973 1467 1053 1413 L1053 1206 Q972 1283 887 1319.5 Q802 1356 707 1356 Q510 1356 411.5 1203.5 Q313 1051 313 745 Q313 434 408.5 284.5 Q504 135 702 135 Q769 135 819.5 150.5 Q870 166 911 199 L911 600 L694 600 L694 766 L1104 766 L1104 123 Z " />
<glyph glyph-name="H" unicode="H" horiz-adv-x="1233" d="M137 1493 L340 1493 L340 921 L893 921 L893 1493 L1096 1493 L1096 0 L893 0 L893 751 L340 751 L340 0 L137 0 L137 1493 Z " />
<glyph glyph-name="I" unicode="I" horiz-adv-x="1233" d="M201 1493 L1030 1493 L1030 1323 L717 1323 L717 170 L1030 170 L1030 0 L201 0 L201 170 L514 170 L514 1323 L201 1323 L201 1493 Z " />
<glyph glyph-name="J" unicode="J" horiz-adv-x="1233" d="M109 61 L109 297 Q200 216 297 175.5 Q394 135 498 135 Q641 135 697.5 209.5 Q754 284 754 487 L754 1323 L373 1323 L373 1493 L956 1493 L956 487 Q956 205 850.5 88 Q745 -29 498 -29 Q402 -29 307 -7 Q212 15 109 61 Z " />
<glyph glyph-name="K" unicode="K" horiz-adv-x="1233" d="M137 1493 L340 1493 L340 829 L971 1493 L1208 1493 L627 883 L1225 0 L981 0 L494 748 L340 584 L340 0 L137 0 L137 1493 Z " />
<glyph glyph-name="L" unicode="L" horiz-adv-x="1233" d="M215 1493 L418 1493 L418 170 L1139 170 L1139 0 L215 0 L215 1493 Z " />
<glyph glyph-name="M" unicode="M" horiz-adv-x="1233" d="M36 1488 L306 1488 L564 730 L824 1488 L1095 1488 L1095 0 L908 0 L908 1315 L642 531 L489 531 L222 1315 L222 0 L36 0 L36 1488 Z " />
<glyph glyph-name="N" unicode="N" horiz-adv-x="1233" d="M19 1488 L295 1488 L879 263 L879 1488 L1094 1488 L1094 0 L818 0 L234 1225 L234 0 L19 0 L19 1488 Z " />
<glyph glyph-name="O" unicode="O" horiz-adv-x="1233" d="M905 745 Q905 1074 837.5 1215 Q770 1356 616 1356 Q463 1356 395.5 1215 Q328 1074 328 745 Q328 417 395.5 276 Q463 135 616 135 Q770 135 837.5 275.5 Q905 416 905 745 Z M1116 745 Q1116 355 992.5 163 Q869 -29 616 -29 Q363 -29 240 162 Q117 353 117 745 Q117 1136 240.5 1328 Q364 1520 616 1520 Q869 1520 992.5 1328 Q1116 1136 1116 745 Z " />
<glyph glyph-name="P" unicode="P" horiz-adv-x="1233" d="M399 1327 L399 766 L633 766 Q773 766 851.5 840 Q930 914 930 1047 Q930 1180 852 1253.5 Q774 1327 633 1327 L399 1327 Z M197 1493 L633 1493 Q883 1493 1012 1379.5 Q1141 1266 1141 1047 Q1141 826 1012.5 713 Q884 600 633 600 L399 600 L399 0 L197 0 L197 1493 Z " />
<glyph glyph-name="Q" unicode="Q" horiz-adv-x="1233" d="M655 -27 Q648 -27 635 -28 Q622 -29 614 -29 Q364 -29 240.5 163 Q117 355 117 745 Q117 1136 240.5 1328 Q364 1520 616 1520 Q869 1520 992.5 1328 Q1116 1136 1116 745 Q1116 451 1047.5 271.5 Q979 92 840 20 L1040 -170 L889 -270 L655 -27 Z M905 745 Q905 1074 837.5 1215 Q770 1356 616 1356 Q463 1356 395.5 1215 Q328 1074 328 745 Q328 417 395.5 276 Q463 135 616 135 Q770 135 837.5 275.5 Q905 416 905 745 Z " />
<glyph glyph-name="R" unicode="R" horiz-adv-x="1233" d="M760 705 Q838 685 893 629.5 Q948 574 1030 408 L1233 0 L1016 0 L838 377 Q761 538 699.5 584.5 Q638 631 539 631 L346 631 L346 0 L143 0 L143 1493 L559 1493 Q805 1493 936 1382 Q1067 1271 1067 1061 Q1067 913 986.5 819.5 Q906 726 760 705 Z M346 1327 L346 797 L567 797 Q712 797 783 862 Q854 927 854 1061 Q854 1190 778.5 1258.5 Q703 1327 559 1327 L346 1327 Z " />
<glyph glyph-name="S" unicode="S" horiz-adv-x="1233" d="M1012 1442 L1012 1237 Q920 1296 827.5 1326 Q735 1356 641 1356 Q498 1356 415 1289.5 Q332 1223 332 1110 Q332 1011 386.5 959 Q441 907 590 872 L696 848 Q906 799 1002 694 Q1098 589 1098 408 Q1098 195 966 83 Q834 -29 582 -29 Q477 -29 371 -6.5 Q265 16 158 61 L158 276 Q273 203 375.5 169 Q478 135 582 135 Q735 135 820 203.5 Q905 272 905 395 Q905 507 846.5 566 Q788 625 643 657 L535 682 Q327 729 233 824 Q139 919 139 1079 Q139 1279 273.5 1399.5 Q408 1520 631 1520 Q717 1520 812 1500.5 Q907 1481 1012 1442 Z " />
<glyph glyph-name="T" unicode="T" horiz-adv-x="1233" d="M47 1493 L1186 1493 L1186 1323 L719 1323 L719 0 L516 0 L516 1323 L47 1323 L47 1493 Z " />
<glyph glyph-name="U" unicode="U" horiz-adv-x="1233" d="M147 573 L147 1493 L350 1493 L350 481 Q350 372 356 325.5 Q362 279 377 254 Q409 195 469.5 165 Q530 135 616 135 Q703 135 763 165 Q823 195 856 254 Q871 279 877 325 Q883 371 883 479 L883 1493 L1085 1493 L1085 573 Q1085 344 1056.5 247.5 Q1028 151 958 88 Q892 29 807 0 Q722 -29 616 -29 Q511 -29 426 0 Q341 29 274 88 Q205 150 176 248.5 Q147 347 147 573 Z " />
<glyph glyph-name="V" unicode="V" horiz-adv-x="1233" d="M616 170 L967 1493 L1176 1493 L739 0 L494 0 L57 1493 L266 1493 L616 170 Z " />
<glyph glyph-name="W" unicode="W" horiz-adv-x="1233" d="M0 1493 L197 1493 L340 281 L510 1083 L721 1083 L893 279 L1036 1493 L1233 1493 L1010 0 L819 0 L616 887 L414 0 L223 0 L0 1493 Z " />
<glyph glyph-name="X" unicode="X" horiz-adv-x="1233" d="M86 1493 L303 1493 L631 930 L965 1493 L1182 1493 L735 791 L1214 0 L997 0 L631 643 L236 0 L18 0 L518 791 L86 1493 Z " />
<glyph glyph-name="Y" unicode="Y" horiz-adv-x="1233" d="M37 1493 L252 1493 L616 834 L979 1493 L1196 1493 L717 670 L717 0 L514 0 L514 670 L37 1493 Z " />
<glyph glyph-name="Z" unicode="Z" horiz-adv-x="1233" d="M178 1493 L1147 1493 L1147 1339 L367 170 L1169 170 L1169 0 L156 0 L156 154 L915 1323 L178 1323 L178 1493 Z " />
<glyph glyph-name="bracketleft" unicode="&#x5b;" horiz-adv-x="1233" d="M563 1656 L987 1656 L987 1513 L747 1513 L747 -27 L987 -27 L987 -170 L563 -170 L563 1656 Z " />
<glyph glyph-name="backslash" unicode="&#x5c;" horiz-adv-x="1233" d="M293 1493 L1079 -190 L889 -190 L102 1493 L293 1493 Z " />
<glyph glyph-name="bracketright" unicode="&#x5d;" horiz-adv-x="1233" d="M720 1656 L720 -170 L296 -170 L296 -27 L536 -27 L536 1513 L296 1513 L296 1656 L720 1656 Z " />
<glyph glyph-name="asciicircum" unicode="&#x5e;" horiz-adv-x="1233" d="M705 1488 L1196 892 L983 893 L616 1286 L250 893 L36 892 L528 1488 L705 1488 Z " />
<glyph glyph-name="underscore" unicode="&#x5f;" horiz-adv-x="1233" d="M1224 -190 L1224 -360 L0 -360 L0 -190 L1224 -190 Z " />
<glyph glyph-name="grave" unicode="&#x60;" horiz-adv-x="1233" d="M477 1638 L758 1262 L604 1262 L279 1638 L477 1638 Z " />
<glyph glyph-name="a" unicode="a" horiz-adv-x="1233" d="M702 563 L641 563 Q480 563 398.5 506.5 Q317 450 317 338 Q317 237 378 181 Q439 125 547 125 Q699 125 786 230.5 Q873 336 874 522 L874 563 L702 563 Z M1059 639 L1059 0 L874 0 L874 166 Q815 66 725.5 18.5 Q636 -29 508 -29 Q337 -29 235 67.5 Q133 164 133 326 Q133 513 258.5 610 Q384 707 627 707 L874 707 L874 736 Q873 870 806 930.5 Q739 991 592 991 Q498 991 402 964 Q306 937 215 885 L215 1069 Q317 1108 410.5 1127.5 Q504 1147 592 1147 Q731 1147 829.5 1106 Q928 1065 989 983 Q1027 933 1043 859.5 Q1059 786 1059 639 Z " />
<glyph glyph-name="b" unicode="b" horiz-adv-x="1233" d="M918 559 Q918 773 850 882 Q782 991 649 991 Q515 991 446 881.5 Q377 772 377 559 Q377 347 446 237 Q515 127 649 127 Q782 127 850 236 Q918 345 918 559 Z M377 977 Q421 1059 498.5 1103 Q576 1147 678 1147 Q880 1147 996 991.5 Q1112 836 1112 563 Q1112 286 995.5 128.5 Q879 -29 676 -29 Q576 -29 499.5 14.5 Q423 58 377 141 L377 0 L193 0 L193 1556 L377 1556 L377 977 Z " />
<glyph glyph-name="c" unicode="c" horiz-adv-x="1233" d="M1061 57 Q987 14 908.5 -7.5 Q830 -29 748 -29 Q488 -29 341.5 127 Q195 283 195 559 Q195 835 341.5 991 Q488 1147 748 1147 Q829 1147 906 1126 Q983 1105 1061 1061 L1061 868 Q988 933 914.5 962 Q841 991 748 991 Q575 991 482 879 Q389 767 389 559 Q389 352 482.5 239.5 Q576 127 748 127 Q844 127 920 156.5 Q996 186 1061 248 L1061 57 Z " />
<glyph glyph-name="d" unicode="d" horiz-adv-x="1233" d="M858 977 L858 1556 L1042 1556 L1042 0 L858 0 L858 141 Q812 58 735.5 14.5 Q659 -29 559 -29 Q356 -29 239.5 128.5 Q123 286 123 563 Q123 836 240 991.5 Q357 1147 559 1147 Q660 1147 737 1103.5 Q814 1060 858 977 Z M317 559 Q317 345 385 236 Q453 127 586 127 Q719 127 788.5 237 Q858 347 858 559 Q858 772 788.5 881.5 Q719 991 586 991 Q453 991 385 882 Q317 773 317 559 Z " />
<glyph glyph-name="e" unicode="e" horiz-adv-x="1233" d="M1120 652 L1120 562 L323 562 L323 556 Q315 327 410.5 227 Q506 127 680 127 Q768 127 864 155 Q960 183 1069 240 L1069 57 Q964 14 866.5 -7.5 Q769 -29 678 -29 Q417 -29 270 127.5 Q123 284 123 559 Q123 827 267 987 Q411 1147 651 1147 Q865 1147 988.5 1002 Q1112 857 1120 652 Z M936 706 Q924 822 851.5 906.5 Q779 991 643 991 Q510 991 424 903 Q338 815 330 705 L936 706 Z " />
<glyph glyph-name="f" unicode="f" horiz-adv-x="1233" d="M1063 1556 L1063 1403 L854 1403 Q755 1403 716.5 1362.5 Q678 1322 678 1219 L678 1120 L1063 1120 L1063 977 L678 977 L678 0 L494 0 L494 977 L195 977 L195 1120 L494 1120 L494 1198 Q494 1382 578.5 1469 Q663 1556 842 1556 L1063 1556 Z " />
<glyph glyph-name="g" unicode="g" horiz-adv-x="1233" d="M858 569 Q858 776 790.5 883.5 Q723 991 594 991 Q459 991 388 883.5 Q317 776 317 569 Q317 362 388.5 253.5 Q460 145 596 145 Q723 145 790.5 254 Q858 363 858 569 Z M1042 72 Q1042 -180 923 -310 Q804 -440 573 -440 Q497 -440 414 -426 Q331 -412 248 -385 L248 -203 Q346 -249 426 -271 Q506 -293 573 -293 Q722 -293 790 -212 Q858 -131 858 45 L858 53 L858 178 Q814 84 738 38 Q662 -8 553 -8 Q357 -8 240 149 Q123 306 123 569 Q123 833 240 990 Q357 1147 553 1147 Q661 1147 736 1104 Q811 1061 858 971 L858 1116 L1042 1116 L1042 72 Z " />
<glyph glyph-name="h" unicode="h" horiz-adv-x="1233" d="M1051 694 L1051 0 L866 0 L866 694 Q866 845 813 916 Q760 987 647 987 Q518 987 448.5 895.5 Q379 804 379 633 L379 0 L195 0 L195 1556 L379 1556 L379 952 Q428 1048 512 1097.5 Q596 1147 711 1147 Q882 1147 966.5 1034.5 Q1051 922 1051 694 Z " />
<glyph glyph-name="i" unicode="i" horiz-adv-x="1233" d="M316 1116 L787 1116 L787 143 L1152 143 L1152 0 L238 0 L238 143 L603 143 L603 973 L316 973 L316 1116 Z M603 1551 L787 1551 L787 1319 L603 1319 L603 1551 Z " />
<glyph glyph-name="j" unicode="j" horiz-adv-x="1233" d="M600 -20 L600 977 L283 977 L283 1120 L784 1120 L784 -20 Q784 -215 694.5 -320.5 Q605 -426 440 -426 L186 -426 L186 -270 L420 -270 Q510 -270 555 -207.5 Q600 -145 600 -20 Z M600 1556 L784 1556 L784 1323 L600 1323 L600 1556 Z " />
<glyph glyph-name="k" unicode="k" horiz-adv-x="1233" d="M236 1556 L426 1556 L426 655 L909 1120 L1133 1120 L692 698 L1202 0 L977 0 L563 578 L426 449 L426 0 L236 0 L236 1556 Z " />
<glyph glyph-name="l" unicode="l" horiz-adv-x="1233" d="M719 405 Q719 281 764.5 218 Q810 155 899 155 L1114 155 L1114 0 L881 0 Q716 0 625.5 105.5 Q535 211 535 405 L535 1418 L240 1418 L240 1562 L719 1562 L719 405 Z " />
<glyph glyph-name="m" unicode="m" horiz-adv-x="1233" d="M676 1006 Q710 1078 762.5 1112.5 Q815 1147 889 1147 Q1024 1147 1079.5 1042.5 Q1135 938 1135 649 L1135 0 L967 0 L967 641 Q967 878 940.5 935.5 Q914 993 844 993 Q764 993 734.5 931.5 Q705 870 705 641 L705 0 L537 0 L537 641 Q537 881 508.5 937 Q480 993 406 993 Q333 993 304.5 931.5 Q276 870 276 641 L276 0 L109 0 L109 1120 L276 1120 L276 1024 Q309 1084 358.5 1115.5 Q408 1147 471 1147 Q547 1147 597.5 1112 Q648 1077 676 1006 Z " />
<glyph glyph-name="n" unicode="n" horiz-adv-x="1233" d="M1051 694 L1051 0 L866 0 L866 694 Q866 845 813 916 Q760 987 647 987 Q518 987 448.5 895.5 Q379 804 379 633 L379 0 L195 0 L195 1120 L379 1120 L379 952 Q428 1048 512 1097.5 Q596 1147 711 1147 Q882 1147 966.5 1034.5 Q1051 922 1051 694 Z " />
<glyph glyph-name="o" unicode="o" horiz-adv-x="1233" d="M616 991 Q476 991 404 882 Q332 773 332 559 Q332 346 404 236.5 Q476 127 616 127 Q757 127 829 236.5 Q901 346 901 559 Q901 773 829 882 Q757 991 616 991 Z M616 1147 Q849 1147 972.5 996 Q1096 845 1096 559 Q1096 272 973 121.5 Q850 -29 616 -29 Q383 -29 260 121.5 Q137 272 137 559 Q137 845 260 996 Q383 1147 616 1147 Z " />
<glyph glyph-name="p" unicode="p" horiz-adv-x="1233" d="M375 141 L375 -426 L190 -426 L190 1120 L375 1120 L375 977 Q421 1060 497.5 1103.5 Q574 1147 674 1147 Q877 1147 992.5 990 Q1108 833 1108 555 Q1108 282 992 126.5 Q876 -29 674 -29 Q572 -29 495.5 14.5 Q419 58 375 141 Z M915 559 Q915 773 847.5 882 Q780 991 647 991 Q513 991 444 881.5 Q375 772 375 559 Q375 347 444 237 Q513 127 647 127 Q780 127 847.5 236 Q915 345 915 559 Z " />
<glyph glyph-name="q" unicode="q" horiz-adv-x="1233" d="M332 555 Q332 341 399.5 232 Q467 123 600 123 Q733 123 801.5 232.5 Q870 342 870 555 Q870 768 801.5 877.5 Q733 987 600 987 Q467 987 399.5 878 Q332 769 332 555 Z M870 139 Q825 56 748.5 11.5 Q672 -33 571 -33 Q370 -33 253.5 122.5 Q137 278 137 551 Q137 829 253 986 Q369 1143 571 1143 Q671 1143 747.5 1099.5 Q824 1056 870 973 L870 1116 L1055 1116 L1055 -430 L870 -430 L870 139 Z " />
<glyph glyph-name="r" unicode="r" horiz-adv-x="1233" d="M1155 889 Q1096 935 1035 956 Q974 977 901 977 Q729 977 638 869 Q547 761 547 557 L547 0 L362 0 L362 1120 L547 1120 L547 901 Q593 1020 688.5 1083.5 Q784 1147 915 1147 Q983 1147 1042 1130 Q1101 1113 1155 1077 L1155 889 Z " />
<glyph glyph-name="s" unicode="s" horiz-adv-x="1233" d="M973 1081 L973 901 Q894 947 814 970 Q734 993 651 993 Q526 993 464.5 952.5 Q403 912 403 829 Q403 754 449 717 Q495 680 678 645 L752 631 Q889 605 959.5 527 Q1030 449 1030 324 Q1030 158 912 64.5 Q794 -29 584 -29 Q501 -29 410 -11.5 Q319 6 213 41 L213 231 Q316 178 410 151.5 Q504 125 588 125 Q710 125 777 174.5 Q844 224 844 313 Q844 441 599 490 L591 492 L522 506 Q363 537 290 610.5 Q217 684 217 811 Q217 972 326 1059.5 Q435 1147 637 1147 Q727 1147 810 1130.5 Q893 1114 973 1081 Z " />
<glyph glyph-name="t" unicode="t" horiz-adv-x="1233" d="M614 1438 L614 1120 L1032 1120 L1032 977 L614 977 L614 369 Q614 245 661 196 Q708 147 825 147 L1032 147 L1032 0 L807 0 Q600 0 515 83 Q430 166 430 369 L430 977 L131 977 L131 1120 L430 1120 L430 1438 L614 1438 Z " />
<glyph glyph-name="u" unicode="u" horiz-adv-x="1233" d="M195 424 L195 1118 L379 1118 L379 424 Q379 273 432.5 202 Q486 131 598 131 Q728 131 797 222.5 Q866 314 866 485 L866 1118 L1051 1118 L1051 0 L866 0 L866 168 Q817 71 732.5 21 Q648 -29 535 -29 Q363 -29 279 83.5 Q195 196 195 424 Z " />
<glyph glyph-name="v" unicode="v" horiz-adv-x="1233" d="M100 1120 L291 1120 L616 180 L942 1120 L1133 1120 L735 0 L498 0 L100 1120 Z " />
<glyph glyph-name="w" unicode="w" horiz-adv-x="1233" d="M0 1120 L182 1120 L377 215 L537 793 L694 793 L856 215 L1051 1120 L1233 1120 L971 0 L795 0 L616 614 L438 0 L262 0 L0 1120 Z " />
<glyph glyph-name="x" unicode="x" horiz-adv-x="1233" d="M1118 1120 L717 584 L1157 0 L944 0 L616 449 L289 0 L76 0 L516 584 L115 1120 L319 1120 L616 715 L911 1120 L1118 1120 Z " />
<glyph glyph-name="y" unicode="y" horiz-adv-x="1233" d="M858 360 Q812 243 741 52 Q642 -212 608 -270 Q562 -348 493 -387 Q424 -426 332 -426 L184 -426 L184 -272 L293 -272 Q374 -272 420 -225 Q466 -178 537 18 L104 1120 L299 1120 L631 244 L958 1120 L1153 1120 L858 360 Z " />
<glyph glyph-name="z" unicode="z" horiz-adv-x="1233" d="M227 1122 L1040 1122 L1040 954 L397 150 L1040 150 L1040 0 L203 0 L203 170 L846 975 L227 975 L227 1122 Z " />
<glyph glyph-name="braceleft" unicode="&#x7b;" horiz-adv-x="1233" d="M1032 -51 L1032 -195 L968 -195 Q719 -195 634.5 -121 Q550 -47 550 174 L550 374 Q550 483 488.5 562 Q427 641 298 641 L176 641 L176 784 L298 784 Q439 784 494.5 851 Q550 918 550 1048 L550 1308 Q550 1529 634.5 1602.5 Q719 1676 968 1676 L1032 1676 L1032 1533 L962 1533 Q822 1533 779.5 1489.5 Q737 1446 737 1304 L737 1036 Q737 860 668 799.5 Q599 739 399 712 Q593 689 665 623.5 Q737 558 737 387 L737 178 Q737 35 779.5 -8 Q822 -51 962 -51 L1032 -51 Z " />
<glyph glyph-name="bar" unicode="&#x7c;" horiz-adv-x="1233" d="M742 1565 L742 -483 L570 -483 L570 1565 L742 1565 Z " />
<glyph glyph-name="braceright" unicode="&#x7d;" horiz-adv-x="1233" d="M289 -51 Q429 -51 471.5 -8 Q514 35 514 178 L514 387 Q514 558 586 623.5 Q658 689 852 712 Q652 739 583 799.5 Q514 860 514 1036 L514 1304 Q514 1446 471.5 1489.5 Q429 1533 289 1533 L219 1533 L219 1676 L283 1676 Q532 1676 616.5 1602.5 Q701 1529 701 1308 L701 1048 Q701 918 756.5 851 Q812 784 953 784 L1075 784 L1075 641 L953 641 Q824 641 762.5 562 Q701 483 701 374 L701 174 Q701 -47 616.5 -121 Q532 -195 283 -195 L219 -195 L219 -51 L289 -51 Z " />
<glyph glyph-name="asciitilde" unicode="&#x7e;" horiz-adv-x="1233" d="M1087 784 L1217 696 Q1131 500 1048 428.5 Q965 357 877 357 Q737 365 624.5 502.5 Q512 640 466 697.5 Q420 755 347 754 Q270 754 230 681.5 Q190 609 146 497 L13 573 Q71 758 163 846 Q255 934 348 934 Q517 936 650.5 734 Q784 532 877 532 Q956 532 1006 618.5 Q1056 705 1087 784 Z " />
<glyph glyph-name="nbspace" unicode="&#xa0;" horiz-adv-x="1233" d="" />
<glyph glyph-name="exclamdown" unicode="&#xa1;" horiz-adv-x="1233" d="M516 1239 L516 1493 L719 1493 L719 1239 L516 1239 Z M516 0 L516 655 L537 1012 L698 1012 L719 655 L719 0 L516 0 Z " />
<glyph glyph-name="cent" unicode="&#xa2;" horiz-adv-x="1233" d="M1061 1077 L1061 905 Q994 945 929 967 Q864 989 821 993 L821 123 Q864 128 929.5 150.5 Q995 173 1061 213 L1061 41 Q988 10 923 -7 Q858 -24 821 -27 L821 -313 L698 -313 L698 -27 Q473 -5 343 151.5 Q213 308 213 559 Q213 809 344.5 967.5 Q476 1126 698 1145 L698 1432 L821 1432 L821 1145 Q858 1142 923 1125 Q988 1108 1061 1077 Z M698 127 L698 991 Q566 979 486 861 Q406 743 406 559 Q406 375 486 257.5 Q566 140 698 127 Z " />
<glyph glyph-name="sterling" unicode="&#xa3;" horiz-adv-x="1233" d="M1092 1462 L1092 1278 Q1030 1322 966.5 1344 Q903 1366 836 1366 Q702 1366 638.5 1276.5 Q575 1187 575 995 L575 778 L946 778 L946 635 L575 635 L575 170 L1112 170 L1112 0 L139 0 L139 170 L375 170 L375 635 L176 635 L176 778 L375 778 L375 1016 Q375 1270 484.5 1395 Q594 1520 817 1520 Q882 1520 950.5 1505.5 Q1019 1491 1092 1462 Z " />
<glyph glyph-name="currency" unicode="&#xa4;" horiz-adv-x="1233" d="M868 643 Q868 733 806 794.5 Q744 856 653 856 Q563 856 500.5 794.5 Q438 733 438 643 Q438 551 500.5 488.5 Q563 426 653 426 Q744 426 806 489 Q868 552 868 643 Z M844 924 L1010 1090 L1100 997 L934 831 Q964 782 978.5 735.5 Q993 689 993 641 Q993 591 978 545.5 Q963 500 932 455 L1100 289 L1006 195 L840 362 Q794 331 748.5 316 Q703 301 653 301 Q605 301 557 315.5 Q509 330 461 358 L297 195 L205 285 L371 451 Q340 502 325.5 548.5 Q311 595 311 641 Q311 691 326.5 737.5 Q342 784 373 829 L205 995 L299 1090 L465 922 Q511 953 556.5 968 Q602 983 653 983 Q699 983 746 968.5 Q793 954 844 924 Z " />
<glyph glyph-name="yen" unicode="&#xa5;" horiz-adv-x="1233" d="M37 1493 L252 1493 L616 834 L979 1493 L1196 1493 L866 932 L1118 932 L1118 821 L803 821 L717 670 L717 635 L1118 635 L1118 524 L717 524 L717 0 L514 0 L514 524 L115 524 L115 635 L514 635 L514 670 L424 821 L115 821 L115 932 L358 932 L37 1493 Z " />
<glyph glyph-name="brokenbar" unicode="&#xa6;" horiz-adv-x="1233" d="M702 1432 L702 674 L530 674 L530 1432 L702 1432 Z M702 408 L702 -350 L530 -350 L530 408 L702 408 Z " />
<glyph glyph-name="section" unicode="&#xa7;" horiz-adv-x="1233" d="M936 1462 L936 1298 Q853 1337 781.5 1356.5 Q710 1376 653 1376 Q556 1376 502.5 1336 Q449 1296 449 1225 Q449 1135 654 1020 Q680 1005 694 997 Q906 878 971 801 Q1036 724 1036 623 Q1036 533 990.5 463 Q945 393 852 340 Q913 288 942 233.5 Q971 179 971 115 Q971 -27 869 -111 Q767 -195 594 -195 Q521 -195 443.5 -180.5 Q366 -166 279 -137 L279 27 Q366 -12 440 -31.5 Q514 -51 571 -51 Q673 -51 729.5 -9 Q786 33 786 109 Q786 211 565 334 L541 348 Q327 468 263 544.5 Q199 621 199 723 Q199 814 245.5 885.5 Q292 957 383 1006 Q323 1050 293.5 1106 Q264 1162 264 1231 Q264 1361 364 1440.5 Q464 1520 631 1520 Q703 1520 779.5 1505.5 Q856 1491 936 1462 Z M485 936 Q423 891 392.5 846 Q362 801 362 754 Q362 678 432.5 610.5 Q503 543 750 410 Q812 455 842 500 Q872 545 872 592 Q872 668 800.5 736 Q729 804 485 936 Z " />
<glyph glyph-name="dieresis" unicode="&#xa8;" horiz-adv-x="1233" d="M319 1552 L522 1552 L522 1350 L319 1350 L319 1552 Z M711 1552 L913 1552 L913 1350 L711 1350 L711 1552 Z " />
<glyph glyph-name="copyright" unicode="&#xa9;" horiz-adv-x="1233" d="M864 1071 L864 963 Q806 991 750.5 1004.5 Q695 1018 637 1018 Q520 1018 452.5 943.5 Q385 869 385 741 Q385 609 455 538 Q525 467 655 467 Q711 467 762.5 479.5 Q814 492 864 518 L864 414 Q812 391 755 380 Q698 369 637 369 Q457 369 353.5 469 Q250 569 250 741 Q250 914 354 1015 Q458 1116 637 1116 Q698 1116 755 1105 Q812 1094 864 1071 Z M616 1255 Q510 1255 419.5 1218 Q329 1181 254 1106 Q179 1031 140.5 939 Q102 847 102 741 Q102 637 140.5 545.5 Q179 454 254 379 Q330 303 420.5 265 Q511 227 616 227 Q722 227 812.5 265 Q903 303 979 379 Q1055 455 1092.5 545.5 Q1130 636 1130 741 Q1130 847 1092 939 Q1054 1031 979 1106 Q904 1181 813.5 1218 Q723 1255 616 1255 Z M616 1358 Q743 1358 852 1313 Q961 1268 1051 1178 Q1141 1087 1187 977 Q1233 867 1233 741 Q1233 616 1187.5 507 Q1142 398 1051 307 Q960 216 851 170.5 Q742 125 616 125 Q491 125 382 170.5 Q273 216 182 307 Q91 398 45.5 507 Q0 616 0 741 Q0 867 46 977 Q92 1087 182 1178 Q272 1268 381 1313 Q490 1358 616 1358 Z " />
<glyph glyph-name="ordfeminine" unicode="&#xaa;" horiz-adv-x="1233" d="M684 1104 Q540 1104 478 1070 Q416 1036 416 958 Q416 894 459.5 855.5 Q503 817 575 817 Q680 817 745.5 888.5 Q811 960 811 1075 L811 1104 L684 1104 Z M954 1165 L954 717 L811 717 L811 829 Q762 764 696.5 731 Q631 698 549 698 Q420 698 345 766 Q270 834 270 950 Q270 1079 363.5 1149 Q457 1219 629 1219 L811 1219 L811 1223 Q811 1313 751.5 1359 Q692 1405 575 1405 Q524 1405 461.5 1387.5 Q399 1370 332 1337 L332 1464 Q400 1492 467.5 1506 Q535 1520 598 1520 Q782 1520 868 1434 Q954 1348 954 1165 Z M293 592 L961 592 L961 469 L293 469 L293 592 Z " />
<glyph glyph-name="guillemotleft" unicode="&#xab;" horiz-adv-x="1233" d="M588 1059 L588 868 L287 600 L588 332 L588 141 L119 559 L119 641 L588 1059 Z M1042 1059 L1042 868 L741 600 L1042 332 L1042 141 L573 559 L573 641 L1042 1059 Z " />
<glyph glyph-name="logicalnot" unicode="&#xac;" horiz-adv-x="1233" d="M88 862 L1145 862 L1145 371 L977 371 L977 690 L88 690 L88 862 Z " />
<glyph glyph-name="sfthyphen" unicode="&#xad;" horiz-adv-x="1233" d="M132 744 L1122 744 L1122 555 L132 555 L132 744 Z " />
<glyph glyph-name="registered" unicode="&#xae;" horiz-adv-x="1233" d="M600 1100 Q747 1100 819 1051 Q891 1002 891 901 Q891 830 847 783.5 Q803 737 723 723 Q742 718 771 684.5 Q800 651 838 592 L952 406 L809 406 L702 580 Q653 660 622.5 681 Q592 702 547 702 L492 702 L492 406 L362 406 L362 1100 L600 1100 Z M594 1016 L492 1016 L492 784 L594 784 Q684 784 721 811 Q758 838 758 901 Q758 963 721 989.5 Q684 1016 594 1016 Z M616 1358 Q743 1358 852 1313 Q961 1268 1051 1178 Q1141 1087 1187 977 Q1233 867 1233 741 Q1233 616 1187.5 507 Q1142 398 1051 307 Q960 216 851 170.5 Q742 125 616 125 Q491 125 382 170.5 Q273 216 182 307 Q91 398 45.5 507 Q0 616 0 741 Q0 867 46 977 Q92 1087 182 1178 Q272 1268 381 1313 Q490 1358 616 1358 Z M616 1255 Q510 1255 419.5 1218 Q329 1181 254 1106 Q179 1031 140.5 939 Q102 847 102 741 Q102 637 140.5 545.5 Q179 454 254 379 Q330 303 420.5 265 Q511 227 616 227 Q722 227 812.5 265 Q903 303 979 379 Q1055 455 1092.5 545.5 Q1130 636 1130 741 Q1130 847 1092 939 Q1054 1031 979 1106 Q904 1181 813.5 1218 Q723 1255 616 1255 Z " />
<glyph glyph-name="overscore" unicode="&#xaf;" horiz-adv-x="1233" d="M117 1526 L1115 1526 L1115 1378 L117 1378 L117 1526 Z " />
<glyph glyph-name="degree" unicode="&#xb0;" horiz-adv-x="1233" d="M616 1520 Q681 1520 739.5 1495.5 Q798 1471 842 1425 Q887 1380 910.5 1323 Q934 1266 934 1200 Q934 1068 841 976.5 Q748 885 614 885 Q479 885 389 975 Q299 1065 299 1200 Q299 1334 391 1427 Q483 1520 616 1520 Z M616 1391 Q537 1391 481.5 1335.5 Q426 1280 426 1200 Q426 1120 480.5 1066 Q535 1012 614 1012 Q694 1012 750.5 1067 Q807 1122 807 1200 Q807 1279 751 1335 Q695 1391 616 1391 Z " />
<glyph glyph-name="plusminus" unicode="&#xb1;" horiz-adv-x="1233" d="M88 170 L1145 170 L1145 0 L88 0 L88 170 Z M700 1291 L700 922 L1145 922 L1145 752 L700 752 L700 380 L532 380 L532 752 L88 752 L88 922 L532 922 L532 1291 L700 1291 Z " />
<glyph glyph-name="twosuperior" unicode="&#xb2;" horiz-adv-x="1233" d="M483 782 L893 782 L893 668 L322 668 L322 778 L553 1004 Q654 1101 694.5 1162 Q735 1223 735 1274 Q735 1335 685 1373 Q635 1411 553 1411 Q504 1411 447.5 1393 Q391 1375 328 1339 L328 1464 Q393 1492 453.5 1506 Q514 1520 573 1520 Q715 1520 801 1453.5 Q887 1387 887 1280 Q887 1223 850 1163.5 Q813 1104 694 987 L483 782 Z " />
<glyph glyph-name="threesuperior" unicode="&#xb3;" horiz-adv-x="1233" d="M731 1120 Q825 1099 874.5 1045 Q924 991 924 911 Q924 787 829 720 Q734 653 557 653 Q499 653 442 663.5 Q385 674 326 694 L326 815 Q395 788 451.5 775 Q508 762 553 762 Q654 762 713 802.5 Q772 843 772 911 Q772 985 717 1023 Q662 1061 553 1061 L487 1061 L487 1169 L561 1169 Q654 1169 703 1200.5 Q752 1232 752 1292 Q752 1348 704 1379.5 Q656 1411 569 1411 Q525 1411 469 1399 Q413 1387 354 1364 L354 1485 Q423 1502 481.5 1511 Q540 1520 590 1520 Q735 1520 819 1461 Q903 1402 903 1303 Q903 1232 859 1185.5 Q815 1139 731 1120 Z " />
<glyph glyph-name="acute" unicode="&#xb4;" horiz-adv-x="1233" d="M756 1638 L954 1638 L629 1262 L475 1262 L756 1638 Z " />
<glyph glyph-name="mu" unicode="&#xb5;" horiz-adv-x="1233" d="M195 -428 L195 1120 L379 1120 L379 424 Q379 282 439 206.5 Q499 131 610 131 Q737 131 801.5 216 Q866 301 866 467 L866 1120 L1051 1120 L1051 256 Q1051 197 1067 169 Q1083 141 1116 141 Q1125 141 1139.5 146 Q1154 151 1182 164 L1182 16 Q1144 -7 1110 -18 Q1076 -29 1042 -29 Q980 -29 942.5 10.5 Q905 50 893 129 Q847 49 780.5 10 Q714 -29 625 -29 Q533 -29 469.5 9 Q406 47 362 127 L362 -428 L195 -428 Z " />
<glyph glyph-name="paragraph" unicode="&#xb6;" horiz-adv-x="1233" d="M582 1493 L1030 1493 L1030 -197 L889 -197 L889 1370 L698 1370 L698 -197 L557 -197 L557 649 Q342 666 224 776.5 Q106 887 106 1071 Q106 1261 236.5 1377 Q367 1493 582 1493 Z " />
<glyph glyph-name="middot" unicode="&#xb7;" horiz-adv-x="1233" d="M489 864 L741 864 L741 559 L489 559 L489 864 Z " />
<glyph glyph-name="cedilla" unicode="&#xb8;" horiz-adv-x="1233" d="M700 0 Q756 -62 782.5 -114.5 Q809 -167 809 -215 Q809 -304 749 -349.5 Q689 -395 571 -395 Q526 -395 482.5 -389 Q439 -383 395 -371 L395 -240 Q429 -257 466.5 -264.5 Q504 -272 551 -272 Q609 -272 639.5 -248 Q670 -224 670 -178 Q670 -148 648 -104.5 Q626 -61 582 0 L700 0 Z " />
<glyph glyph-name="onesuperior" unicode="&#xb9;" horiz-adv-x="1233" d="M362 778 L567 778 L567 1389 L344 1348 L344 1464 L573 1503 L711 1503 L711 778 L915 778 L915 668 L362 668 L362 778 Z " />
<glyph glyph-name="ordmasculine" unicode="&#xba;" horiz-adv-x="1233" d="M616 1403 Q514 1403 456.5 1325 Q399 1247 399 1108 Q399 969 456.5 892 Q514 815 616 815 Q717 815 775.5 893.5 Q834 972 834 1108 Q834 1247 776.5 1325 Q719 1403 616 1403 Z M616 1520 Q786 1520 887.5 1408 Q989 1296 989 1108 Q989 921 888 809.5 Q787 698 616 698 Q446 698 345 809.5 Q244 921 244 1108 Q244 1296 345.5 1408 Q447 1520 616 1520 Z M276 592 L952 592 L952 469 L276 469 L276 592 Z " />
<glyph glyph-name="guillemotright" unicode="&#xbb;" horiz-adv-x="1233" d="M647 1059 L1116 641 L1116 559 L647 141 L647 332 L948 600 L647 868 L647 1059 Z M193 1059 L662 641 L662 559 L193 141 L193 332 L494 600 L193 868 L193 1059 Z " />
<glyph glyph-name="onequarter" unicode="&#xbc;" horiz-adv-x="1233" d="M815 566 L977 566 L977 28 L1093 28 L1093 -83 L977 -83 L977 -269 L839 -269 L839 -83 L452 -83 L452 38 L815 566 Z M839 441 L565 28 L839 28 L839 441 Z M105 934 L310 934 L310 1545 L87 1504 L87 1620 L316 1659 L454 1659 L454 934 L658 934 L658 824 L105 824 L105 934 Z M51 504 L27 612 L1087 874 L1114 766 L51 504 Z " />
<glyph glyph-name="onehalf" unicode="&#xbd;" horiz-adv-x="1233" d="M105 934 L310 934 L310 1545 L87 1504 L87 1620 L316 1659 L454 1659 L454 934 L658 934 L658 824 L105 824 L105 934 Z M51 504 L27 612 L1087 874 L1114 766 L51 504 Z M684 -155 L1094 -155 L1094 -269 L523 -269 L523 -159 L754 67 Q855 164 895.5 225 Q936 286 936 337 Q936 398 886 436 Q836 474 754 474 Q705 474 648.5 456 Q592 438 529 402 L529 527 Q594 555 654.5 569 Q715 583 774 583 Q916 583 1002 516.5 Q1088 450 1088 343 Q1088 286 1051 226.5 Q1014 167 895 50 L684 -155 Z " />
<glyph glyph-name="threequarters" unicode="&#xbe;" horiz-adv-x="1233" d="M815 566 L977 566 L977 28 L1093 28 L1093 -83 L977 -83 L977 -269 L839 -269 L839 -83 L452 -83 L452 38 L815 566 Z M839 441 L565 28 L839 28 L839 441 Z M505 1276 Q599 1255 648.5 1201 Q698 1147 698 1067 Q698 943 603 876 Q508 809 331 809 Q273 809 216 819.5 Q159 830 100 850 L100 971 Q169 944 225.5 931 Q282 918 327 918 Q428 918 487 958.5 Q546 999 546 1067 Q546 1141 491 1179 Q436 1217 327 1217 L261 1217 L261 1325 L335 1325 Q428 1325 477 1356.5 Q526 1388 526 1448 Q526 1504 478 1535.5 Q430 1567 343 1567 Q299 1567 243 1555 Q187 1543 128 1520 L128 1641 Q197 1658 255.5 1667 Q314 1676 364 1676 Q509 1676 593 1617 Q677 1558 677 1459 Q677 1388 633 1341.5 Q589 1295 505 1276 Z M51 504 L27 612 L1087 874 L1114 766 L51 504 Z " />
<glyph glyph-name="questiondown" unicode="&#xbf;" horiz-adv-x="1233" d="M549 1092 L739 1092 L739 938 Q739 840 708.5 771.5 Q678 703 594 621 L504 532 Q442 473 418.5 429 Q395 385 395 336 Q395 247 460.5 192 Q526 137 635 137 Q713 137 802 171.5 Q891 206 989 274 L989 86 Q895 29 799.5 1 Q704 -27 600 -27 Q414 -27 303.5 69 Q193 165 193 326 Q193 402 226.5 467.5 Q260 533 354 625 L442 711 Q509 775 528 817 Q547 859 547 922 Q547 923 547 927 Q549 950 549 969 L549 1092 Z M745 1239 L543 1239 L543 1493 L745 1493 L745 1239 Z " />
<glyph glyph-name="Agrave" unicode="&#xc0;" horiz-adv-x="1233" d="M616 1315 L403 551 L829 551 L616 1315 Z M494 1493 L739 1493 L1196 0 L987 0 L877 389 L354 389 L246 0 L37 0 L494 1493 Z M561 1899 L758 1635 L604 1635 L377 1899 L561 1899 Z " />
<glyph glyph-name="Aacute" unicode="&#xc1;" horiz-adv-x="1233" d="M616 1315 L403 551 L829 551 L616 1315 Z M494 1493 L739 1493 L1196 0 L987 0 L877 389 L354 389 L246 0 L37 0 L494 1493 Z M672 1899 L858 1899 L629 1635 L475 1635 L672 1899 Z " />
<glyph glyph-name="Acircumflex" unicode="&#xc2;" horiz-adv-x="1233" d="M616 1315 L403 551 L829 551 L616 1315 Z M494 1493 L739 1493 L1196 0 L987 0 L877 389 L354 389 L246 0 L37 0 L494 1493 Z M522 1901 L711 1901 L922 1635 L782 1635 L616 1813 L451 1635 L311 1635 L522 1901 Z " />
<glyph glyph-name="Atilde" unicode="&#xc3;" horiz-adv-x="1233" d="M616 1315 L403 551 L829 551 L616 1315 Z M494 1493 L739 1493 L1196 0 L987 0 L877 389 L354 389 L246 0 L37 0 L494 1493 Z M612 1710 L555 1743 Q530 1757 514.5 1762.5 Q499 1768 487 1768 Q452 1768 432 1743 Q412 1718 412 1673 L412 1667 L287 1667 Q287 1768 338.5 1827 Q390 1886 475 1886 Q511 1886 541.5 1878 Q572 1870 621 1843 L678 1813 Q700 1800 717.5 1794 Q735 1788 750 1788 Q781 1788 801 1813.5 Q821 1839 821 1880 L821 1886 L946 1886 Q944 1786 893 1726.5 Q842 1667 758 1667 Q724 1667 694 1675 Q664 1683 612 1710 Z " />
<glyph glyph-name="Adieresis" unicode="&#xc4;" horiz-adv-x="1233" d="M616 1315 L403 551 L829 551 L616 1315 Z M494 1493 L739 1493 L1196 0 L987 0 L877 389 L354 389 L246 0 L37 0 L494 1493 Z M319 1870 L522 1870 L522 1667 L319 1667 L319 1870 Z M711 1870 L913 1870 L913 1667 L711 1667 L711 1870 Z " />
<glyph glyph-name="Aring" unicode="&#xc5;" horiz-adv-x="1233" d="M768 1626 Q768 1689 723.5 1733.5 Q679 1778 616 1778 Q552 1778 508.5 1734.5 Q465 1691 465 1626 Q465 1563 509 1519 Q553 1475 616 1475 Q679 1475 723.5 1519 Q768 1563 768 1626 Z M616 1311 L403 551 L829 551 L616 1311 Z M465 1399 Q407 1432 374.5 1492.5 Q342 1553 342 1626 Q342 1740 422 1820.5 Q502 1901 616 1901 Q730 1901 810.5 1820.5 Q891 1740 891 1626 Q891 1553 859 1494 Q827 1435 768 1399 L1196 0 L987 0 L877 389 L354 389 L246 0 L37 0 L465 1399 Z " />
<glyph glyph-name="AE" unicode="&#xc6;" horiz-adv-x="1233" d="M1161 1493 L1161 1323 L823 1323 L823 881 L1130 881 L1130 711 L823 711 L823 170 L1180 170 L1180 0 L637 0 L637 383 L285 383 L184 0 L0 0 L410 1493 L1161 1493 Z M530 1323 L328 551 L637 551 L637 1323 L530 1323 Z " />
<glyph glyph-name="Ccedilla" unicode="&#xc7;" horiz-adv-x="1233" d="M800 0 Q856 -62 882.5 -114.5 Q909 -167 909 -215 Q909 -304 849 -349.5 Q789 -395 671 -395 Q626 -395 582.5 -389 Q539 -383 495 -371 L495 -240 Q529 -257 566.5 -264.5 Q604 -272 651 -272 Q709 -272 739.5 -248 Q770 -224 770 -178 Q770 -148 748 -104.5 Q726 -61 682 0 L800 0 Z M1073 53 Q996 12 915 -8.5 Q834 -29 743 -29 Q456 -29 297.5 174 Q139 377 139 745 Q139 1111 298.5 1315.5 Q458 1520 743 1520 Q834 1520 915 1499.5 Q996 1479 1073 1438 L1073 1231 Q999 1292 914 1324 Q829 1356 743 1356 Q546 1356 448 1204 Q350 1052 350 745 Q350 439 448 287 Q546 135 743 135 Q831 135 915.5 167 Q1000 199 1073 260 L1073 53 Z " />
<glyph glyph-name="Egrave" unicode="&#xc8;" horiz-adv-x="1233" d="M197 1493 L1083 1493 L1083 1323 L399 1323 L399 921 L1053 921 L1053 751 L399 751 L399 170 L1102 170 L1102 0 L197 0 L197 1493 Z M579 1899 L776 1635 L622 1635 L395 1899 L579 1899 Z " />
<glyph glyph-name="Eacute" unicode="&#xc9;" horiz-adv-x="1233" d="M197 1493 L1083 1493 L1083 1323 L399 1323 L399 921 L1053 921 L1053 751 L399 751 L399 170 L1102 170 L1102 0 L197 0 L197 1493 Z M690 1899 L876 1899 L647 1635 L493 1635 L690 1899 Z " />
<glyph glyph-name="Ecircumflex" unicode="&#xca;" horiz-adv-x="1233" d="M197 1493 L1083 1493 L1083 1323 L399 1323 L399 921 L1053 921 L1053 751 L399 751 L399 170 L1102 170 L1102 0 L197 0 L197 1493 Z M540 1901 L729 1901 L940 1635 L800 1635 L634 1813 L469 1635 L329 1635 L540 1901 Z " />
<glyph glyph-name="Edieresis" unicode="&#xcb;" horiz-adv-x="1233" d="M197 1493 L1083 1493 L1083 1323 L399 1323 L399 921 L1053 921 L1053 751 L399 751 L399 170 L1102 170 L1102 0 L197 0 L197 1493 Z M337 1870 L540 1870 L540 1667 L337 1667 L337 1870 Z M729 1870 L931 1870 L931 1667 L729 1667 L729 1870 Z " />
<glyph glyph-name="Igrave" unicode="&#xcc;" horiz-adv-x="1233" d="M201 1493 L1030 1493 L1030 1323 L717 1323 L717 170 L1030 170 L1030 0 L201 0 L201 170 L514 170 L514 1323 L201 1323 L201 1493 Z M561 1899 L758 1635 L604 1635 L377 1899 L561 1899 Z " />
<glyph glyph-name="Iacute" unicode="&#xcd;" horiz-adv-x="1233" d="M201 1493 L1030 1493 L1030 1323 L717 1323 L717 170 L1030 170 L1030 0 L201 0 L201 170 L514 170 L514 1323 L201 1323 L201 1493 Z M672 1899 L858 1899 L629 1635 L475 1635 L672 1899 Z " />
<glyph glyph-name="Icircumflex" unicode="&#xce;" horiz-adv-x="1233" d="M201 1493 L1030 1493 L1030 1323 L717 1323 L717 170 L1030 170 L1030 0 L201 0 L201 170 L514 170 L514 1323 L201 1323 L201 1493 Z M522 1901 L711 1901 L922 1635 L782 1635 L616 1813 L451 1635 L311 1635 L522 1901 Z " />
<glyph glyph-name="Idieresis" unicode="&#xcf;" horiz-adv-x="1233" d="M201 1493 L1030 1493 L1030 1323 L717 1323 L717 170 L1030 170 L1030 0 L201 0 L201 170 L514 170 L514 1323 L201 1323 L201 1493 Z M319 1870 L522 1870 L522 1667 L319 1667 L319 1870 Z M711 1870 L913 1870 L913 1667 L711 1667 L711 1870 Z " />
<glyph glyph-name="Eth" unicode="&#xd0;" horiz-adv-x="1233" d="M436 1493 Q778 1493 940 1311 Q1102 1129 1102 745 Q1102 363 939.5 181.5 Q777 0 436 0 L133 0 L133 709 L8 709 L8 858 L133 858 L133 1493 L436 1493 Z M436 166 Q691 166 792 291.5 Q893 417 893 745 Q893 1076 792.5 1201.5 Q692 1327 436 1327 L340 1327 L340 858 L604 858 L604 709 L340 709 L340 166 L436 166 Z " />
<glyph glyph-name="Ntilde" unicode="&#xd1;" horiz-adv-x="1233" d="M19 1488 L295 1488 L879 263 L879 1488 L1094 1488 L1094 0 L818 0 L234 1225 L234 0 L19 0 L19 1488 Z M612 1714 L555 1747 Q530 1761 514.5 1766.5 Q499 1772 487 1772 Q452 1772 432 1747 Q412 1722 412 1677 L412 1671 L287 1671 Q287 1772 338.5 1831 Q390 1890 475 1890 Q511 1890 541.5 1882 Q572 1874 621 1847 L678 1817 Q700 1804 717.5 1798 Q735 1792 750 1792 Q781 1792 801 1817.5 Q821 1843 821 1884 L821 1890 L946 1890 Q944 1790 893 1730.5 Q842 1671 758 1671 Q724 1671 694 1679 Q664 1687 612 1714 Z " />
<glyph glyph-name="Ograve" unicode="&#xd2;" horiz-adv-x="1233" d="M905 745 Q905 1074 837.5 1215 Q770 1356 616 1356 Q463 1356 395.5 1215 Q328 1074 328 745 Q328 417 395.5 276 Q463 135 616 135 Q770 135 837.5 275.5 Q905 416 905 745 Z M1116 745 Q1116 355 992.5 163 Q869 -29 616 -29 Q363 -29 240 162 Q117 353 117 745 Q117 1136 240.5 1328 Q364 1520 616 1520 Q869 1520 992.5 1328 Q1116 1136 1116 745 Z M561 1899 L758 1635 L604 1635 L377 1899 L561 1899 Z " />
<glyph glyph-name="Oacute" unicode="&#xd3;" horiz-adv-x="1233" d="M905 745 Q905 1074 837.5 1215 Q770 1356 616 1356 Q463 1356 395.5 1215 Q328 1074 328 745 Q328 417 395.5 276 Q463 135 616 135 Q770 135 837.5 275.5 Q905 416 905 745 Z M1116 745 Q1116 355 992.5 163 Q869 -29 616 -29 Q363 -29 240 162 Q117 353 117 745 Q117 1136 240.5 1328 Q364 1520 616 1520 Q869 1520 992.5 1328 Q1116 1136 1116 745 Z M672 1899 L858 1899 L629 1635 L475 1635 L672 1899 Z " />
<glyph glyph-name="Ocircumflex" unicode="&#xd4;" horiz-adv-x="1233" d="M905 745 Q905 1074 837.5 1215 Q770 1356 616 1356 Q463 1356 395.5 1215 Q328 1074 328 745 Q328 417 395.5 276 Q463 135 616 135 Q770 135 837.5 275.5 Q905 416 905 745 Z M1116 745 Q1116 355 992.5 163 Q869 -29 616 -29 Q363 -29 240 162 Q117 353 117 745 Q117 1136 240.5 1328 Q364 1520 616 1520 Q869 1520 992.5 1328 Q1116 1136 1116 745 Z M522 1901 L711 1901 L922 1635 L782 1635 L616 1813 L451 1635 L311 1635 L522 1901 Z " />
<glyph glyph-name="Otilde" unicode="&#xd5;" horiz-adv-x="1233" d="M905 745 Q905 1074 837.5 1215 Q770 1356 616 1356 Q463 1356 395.5 1215 Q328 1074 328 745 Q328 417 395.5 276 Q463 135 616 135 Q770 135 837.5 275.5 Q905 416 905 745 Z M1116 745 Q1116 355 992.5 163 Q869 -29 616 -29 Q363 -29 240 162 Q117 353 117 745 Q117 1136 240.5 1328 Q364 1520 616 1520 Q869 1520 992.5 1328 Q1116 1136 1116 745 Z M612 1710 L555 1743 Q530 1757 514.5 1762.5 Q499 1768 487 1768 Q452 1768 432 1743 Q412 1718 412 1673 L412 1667 L287 1667 Q287 1768 338.5 1827 Q390 1886 475 1886 Q511 1886 541.5 1878 Q572 1870 621 1843 L678 1813 Q700 1800 717.5 1794 Q735 1788 750 1788 Q781 1788 801 1813.5 Q821 1839 821 1880 L821 1886 L946 1886 Q944 1786 893 1726.5 Q842 1667 758 1667 Q724 1667 694 1675 Q664 1683 612 1710 Z " />
<glyph glyph-name="Odieresis" unicode="&#xd6;" horiz-adv-x="1233" d="M905 745 Q905 1074 837.5 1215 Q770 1356 616 1356 Q463 1356 395.5 1215 Q328 1074 328 745 Q328 417 395.5 276 Q463 135 616 135 Q770 135 837.5 275.5 Q905 416 905 745 Z M1116 745 Q1116 355 992.5 163 Q869 -29 616 -29 Q363 -29 240 162 Q117 353 117 745 Q117 1136 240.5 1328 Q364 1520 616 1520 Q869 1520 992.5 1328 Q1116 1136 1116 745 Z M319 1870 L522 1870 L522 1667 L319 1667 L319 1870 Z M711 1870 L913 1870 L913 1667 L711 1667 L711 1870 Z " />
<glyph glyph-name="multiply" unicode="&#xd7;" horiz-adv-x="1233" d="M150 293 L500 641 L150 991 L266 1108 L616 758 L967 1108 L1083 991 L733 641 L1081 293 L965 174 L616 524 L268 174 L150 293 Z " />
<glyph glyph-name="Oslash" unicode="&#xd8;" horiz-adv-x="1233" d="M371 303 Q401 225 466.5 180 Q532 135 616 135 Q770 135 837.5 275.5 Q905 416 905 745 Q905 855 900 923 Q895 991 885 1036 L371 303 Z M338 471 L842 1190 Q817 1271 759.5 1313.5 Q702 1356 616 1356 Q459 1356 393.5 1210 Q328 1064 328 686 Q328 606 330.5 555.5 Q333 505 338 471 Z M1032 1247 Q1073 1166 1094.5 1037 Q1116 908 1116 745 Q1116 355 992.5 163 Q869 -29 616 -29 Q495 -29 405 11.5 Q315 52 254 133 L111 -70 L8 0 L186 252 Q154 325 135.5 456 Q117 587 117 745 Q117 1136 240.5 1328 Q364 1520 616 1520 Q731 1520 817.5 1479 Q904 1438 961 1358 L1100 1559 L1200 1485 L1032 1247 Z " />
<glyph glyph-name="Ugrave" unicode="&#xd9;" horiz-adv-x="1233" d="M147 573 L147 1493 L350 1493 L350 481 Q350 372 356 325.5 Q362 279 377 254 Q409 195 469.5 165 Q530 135 616 135 Q703 135 763 165 Q823 195 856 254 Q871 279 877 325 Q883 371 883 479 L883 1493 L1085 1493 L1085 573 Q1085 344 1056.5 247.5 Q1028 151 958 88 Q892 29 807 0 Q722 -29 616 -29 Q511 -29 426 0 Q341 29 274 88 Q205 150 176 248.5 Q147 347 147 573 Z M561 1899 L758 1635 L604 1635 L377 1899 L561 1899 Z " />
<glyph glyph-name="Uacute" unicode="&#xda;" horiz-adv-x="1233" d="M147 573 L147 1493 L350 1493 L350 481 Q350 372 356 325.5 Q362 279 377 254 Q409 195 469.5 165 Q530 135 616 135 Q703 135 763 165 Q823 195 856 254 Q871 279 877 325 Q883 371 883 479 L883 1493 L1085 1493 L1085 573 Q1085 344 1056.5 247.5 Q1028 151 958 88 Q892 29 807 0 Q722 -29 616 -29 Q511 -29 426 0 Q341 29 274 88 Q205 150 176 248.5 Q147 347 147 573 Z M672 1899 L858 1899 L629 1635 L475 1635 L672 1899 Z " />
<glyph glyph-name="Ucircumflex" unicode="&#xdb;" horiz-adv-x="1233" d="M147 573 L147 1493 L350 1493 L350 481 Q350 372 356 325.5 Q362 279 377 254 Q409 195 469.5 165 Q530 135 616 135 Q703 135 763 165 Q823 195 856 254 Q871 279 877 325 Q883 371 883 479 L883 1493 L1085 1493 L1085 573 Q1085 344 1056.5 247.5 Q1028 151 958 88 Q892 29 807 0 Q722 -29 616 -29 Q511 -29 426 0 Q341 29 274 88 Q205 150 176 248.5 Q147 347 147 573 Z M522 1901 L711 1901 L922 1635 L782 1635 L616 1813 L451 1635 L311 1635 L522 1901 Z " />
<glyph glyph-name="Udieresis" unicode="&#xdc;" horiz-adv-x="1233" d="M147 573 L147 1493 L350 1493 L350 481 Q350 372 356 325.5 Q362 279 377 254 Q409 195 469.5 165 Q530 135 616 135 Q703 135 763 165 Q823 195 856 254 Q871 279 877 325 Q883 371 883 479 L883 1493 L1085 1493 L1085 573 Q1085 344 1056.5 247.5 Q1028 151 958 88 Q892 29 807 0 Q722 -29 616 -29 Q511 -29 426 0 Q341 29 274 88 Q205 150 176 248.5 Q147 347 147 573 Z M319 1870 L522 1870 L522 1667 L319 1667 L319 1870 Z M711 1870 L913 1870 L913 1667 L711 1667 L711 1870 Z " />
<glyph glyph-name="Yacute" unicode="&#xdd;" horiz-adv-x="1233" d="M37 1493 L252 1493 L616 834 L979 1493 L1196 1493 L717 670 L717 0 L514 0 L514 670 L37 1493 Z M672 1899 L858 1899 L629 1635 L475 1635 L672 1899 Z " />
<glyph glyph-name="Thorn" unicode="&#xde;" horiz-adv-x="1233" d="M403 1057 L403 532 L637 532 Q795 532 873.5 598 Q952 664 952 795 Q952 926 873.5 991.5 Q795 1057 637 1057 L403 1057 Z M201 1493 L403 1493 L403 1223 L657 1223 Q917 1223 1041 1118 Q1165 1013 1165 795 Q1165 576 1041 471.5 Q917 367 657 367 L403 367 L403 0 L201 0 L201 1493 Z " />
<glyph glyph-name="germandbls" unicode="&#xdf;" horiz-adv-x="1233" d="M188 1137 Q188 1350 293 1453 Q398 1556 614 1556 Q818 1556 923 1445.5 Q1028 1335 1030 1119 Q875 1105 791 1043 Q707 981 707 881 Q707 832 734.5 793.5 Q762 755 829 713 L887 676 Q1038 583 1093.5 501 Q1149 419 1149 303 Q1149 149 1037 60 Q925 -29 729 -29 Q660 -29 592.5 -16.5 Q525 -4 459 20 L459 184 Q535 153 601.5 138 Q668 123 727 123 Q835 123 899 171.5 Q963 220 963 301 Q963 372 930.5 419.5 Q898 467 778 541 L711 580 Q619 636 573.5 702.5 Q528 769 528 848 Q528 976 609 1061.5 Q690 1147 846 1182 Q844 1289 783.5 1346 Q723 1403 610 1403 Q489 1403 432 1337.5 Q375 1272 375 1133 L375 0 L188 0 L188 1137 Z " />
<glyph glyph-name="agrave" unicode="&#xe0;" horiz-adv-x="1233" d="M702 563 L641 563 Q480 563 398.5 506.5 Q317 450 317 338 Q317 237 378 181 Q439 125 547 125 Q699 125 786 230.5 Q873 336 874 522 L874 563 L702 563 Z M1059 639 L1059 0 L874 0 L874 166 Q815 66 725.5 18.5 Q636 -29 508 -29 Q337 -29 235 67.5 Q133 164 133 326 Q133 513 258.5 610 Q384 707 627 707 L874 707 L874 736 Q873 870 806 930.5 Q739 991 592 991 Q498 991 402 964 Q306 937 215 885 L215 1069 Q317 1108 410.5 1127.5 Q504 1147 592 1147 Q731 1147 829.5 1106 Q928 1065 989 983 Q1027 933 1043 859.5 Q1059 786 1059 639 Z M477 1638 L758 1262 L604 1262 L279 1638 L477 1638 Z " />
<glyph glyph-name="aacute" unicode="&#xe1;" horiz-adv-x="1233" d="M702 563 L641 563 Q480 563 398.5 506.5 Q317 450 317 338 Q317 237 378 181 Q439 125 547 125 Q699 125 786 230.5 Q873 336 874 522 L874 563 L702 563 Z M1059 639 L1059 0 L874 0 L874 166 Q815 66 725.5 18.5 Q636 -29 508 -29 Q337 -29 235 67.5 Q133 164 133 326 Q133 513 258.5 610 Q384 707 627 707 L874 707 L874 736 Q873 870 806 930.5 Q739 991 592 991 Q498 991 402 964 Q306 937 215 885 L215 1069 Q317 1108 410.5 1127.5 Q504 1147 592 1147 Q731 1147 829.5 1106 Q928 1065 989 983 Q1027 933 1043 859.5 Q1059 786 1059 639 Z M756 1638 L954 1638 L629 1262 L475 1262 L756 1638 Z " />
<glyph glyph-name="acircumflex" unicode="&#xe2;" horiz-adv-x="1233" d="M702 563 L641 563 Q480 563 398.5 506.5 Q317 450 317 338 Q317 237 378 181 Q439 125 547 125 Q699 125 786 230.5 Q873 336 874 522 L874 563 L702 563 Z M1059 639 L1059 0 L874 0 L874 166 Q815 66 725.5 18.5 Q636 -29 508 -29 Q337 -29 235 67.5 Q133 164 133 326 Q133 513 258.5 610 Q384 707 627 707 L874 707 L874 736 Q873 870 806 930.5 Q739 991 592 991 Q498 991 402 964 Q306 937 215 885 L215 1069 Q317 1108 410.5 1127.5 Q504 1147 592 1147 Q731 1147 829.5 1106 Q928 1065 989 983 Q1027 933 1043 859.5 Q1059 786 1059 639 Z M543 1638 L690 1638 L936 1262 L797 1262 L616 1507 L436 1262 L297 1262 L543 1638 Z " />
<glyph glyph-name="atilde" unicode="&#xe3;" horiz-adv-x="1233" d="M702 563 L641 563 Q480 563 398.5 506.5 Q317 450 317 338 Q317 237 378 181 Q439 125 547 125 Q699 125 786 230.5 Q873 336 874 522 L874 563 L702 563 Z M1059 639 L1059 0 L874 0 L874 166 Q815 66 725.5 18.5 Q636 -29 508 -29 Q337 -29 235 67.5 Q133 164 133 326 Q133 513 258.5 610 Q384 707 627 707 L874 707 L874 736 Q873 870 806 930.5 Q739 991 592 991 Q498 991 402 964 Q306 937 215 885 L215 1069 Q317 1108 410.5 1127.5 Q504 1147 592 1147 Q731 1147 829.5 1106 Q928 1065 989 983 Q1027 933 1043 859.5 Q1059 786 1059 639 Z M612 1370 L555 1425 Q534 1445 517.5 1454.5 Q501 1464 487 1464 Q449 1464 431 1427 Q413 1390 411 1309 L287 1309 Q288 1443 339 1517 Q390 1591 481 1591 Q520 1591 552 1577 Q584 1563 621 1530 L678 1475 Q699 1455 715.5 1445.5 Q732 1436 745 1436 Q784 1436 802 1473 Q820 1510 821 1591 L946 1591 Q945 1457 894 1383 Q843 1309 752 1309 Q713 1309 681 1323 Q649 1337 612 1370 Z " />
<glyph glyph-name="adieresis" unicode="&#xe4;" horiz-adv-x="1233" d="M702 563 L641 563 Q480 563 398.5 506.5 Q317 450 317 338 Q317 237 378 181 Q439 125 547 125 Q699 125 786 230.5 Q873 336 874 522 L874 563 L702 563 Z M1059 639 L1059 0 L874 0 L874 166 Q815 66 725.5 18.5 Q636 -29 508 -29 Q337 -29 235 67.5 Q133 164 133 326 Q133 513 258.5 610 Q384 707 627 707 L874 707 L874 736 Q873 870 806 930.5 Q739 991 592 991 Q498 991 402 964 Q306 937 215 885 L215 1069 Q317 1108 410.5 1127.5 Q504 1147 592 1147 Q731 1147 829.5 1106 Q928 1065 989 983 Q1027 933 1043 859.5 Q1059 786 1059 639 Z M319 1552 L522 1552 L522 1350 L319 1350 L319 1552 Z M711 1552 L913 1552 L913 1350 L711 1350 L711 1552 Z " />
<glyph glyph-name="aring" unicode="&#xe5;" horiz-adv-x="1233" d="M702 563 L641 563 Q480 563 398.5 506.5 Q317 450 317 338 Q317 237 378 181 Q439 125 547 125 Q699 125 786 230.5 Q873 336 874 522 L874 563 L702 563 Z M1059 639 L1059 0 L874 0 L874 166 Q815 66 725.5 18.5 Q636 -29 508 -29 Q337 -29 235 67.5 Q133 164 133 326 Q133 513 258.5 610 Q384 707 627 707 L874 707 L874 736 Q873 870 806 930.5 Q739 991 592 991 Q498 991 402 964 Q306 937 215 885 L215 1069 Q317 1108 410.5 1127.5 Q504 1147 592 1147 Q731 1147 829.5 1106 Q928 1065 989 983 Q1027 933 1043 859.5 Q1059 786 1059 639 Z M891 1524 Q891 1409 811.5 1329 Q732 1249 616 1249 Q501 1249 421.5 1329 Q342 1409 342 1524 Q342 1639 421.5 1718.5 Q501 1798 616 1798 Q732 1798 811.5 1718.5 Q891 1639 891 1524 Z M768 1524 Q768 1587 724 1631 Q680 1675 616 1675 Q552 1675 508.5 1631.5 Q465 1588 465 1524 Q465 1459 508.5 1415.5 Q552 1372 616 1372 Q680 1372 724 1416 Q768 1460 768 1524 Z " />
<glyph glyph-name="ae" unicode="&#xe6;" horiz-adv-x="1233" d="M543 442 L543 514 L494 514 Q325 514 265 469 Q205 424 205 311 Q205 222 249.5 173.5 Q294 125 377 125 Q469 125 506 191.5 Q543 258 543 442 Z M1036 657 L1036 709 Q1036 860 997.5 926.5 Q959 993 872 993 Q785 993 747 925 Q709 857 709 700 L709 657 L1036 657 Z M1200 514 L709 514 Q708 499 707.5 481.5 Q707 464 707 430 Q707 269 757.5 197 Q808 125 920 125 Q999 125 1063.5 150.5 Q1128 176 1178 227 L1178 55 Q1123 14 1057 -7.5 Q991 -29 920 -29 Q810 -29 735.5 12 Q661 53 629 131 Q590 51 523.5 11 Q457 -29 360 -29 Q204 -29 122.5 57 Q41 143 41 307 Q41 478 141 567.5 Q241 657 432 657 L549 657 L549 745 Q549 865 499.5 929 Q450 993 356 993 Q300 993 234 971.5 Q168 950 106 911 L106 1079 Q183 1114 249 1130.5 Q315 1147 375 1147 Q466 1147 528 1115.5 Q590 1084 627 1020 Q660 1081 726 1114 Q792 1147 881 1147 Q1055 1147 1127.5 1028.5 Q1200 910 1200 604 L1200 514 Z " />
<glyph glyph-name="ccedilla" unicode="&#xe7;" horiz-adv-x="1233" d="M804 0 Q860 -62 886.5 -114.5 Q913 -167 913 -215 Q913 -304 853 -349.5 Q793 -395 675 -395 Q630 -395 586.5 -389 Q543 -383 499 -371 L499 -240 Q533 -257 570.5 -264.5 Q608 -272 655 -272 Q713 -272 743.5 -248 Q774 -224 774 -178 Q774 -148 752 -104.5 Q730 -61 686 0 L804 0 Z M1061 57 Q987 14 908.5 -7.5 Q830 -29 748 -29 Q488 -29 341.5 127 Q195 283 195 559 Q195 835 341.5 991 Q488 1147 748 1147 Q829 1147 906 1126 Q983 1105 1061 1061 L1061 868 Q988 933 914.5 962 Q841 991 748 991 Q575 991 482 879 Q389 767 389 559 Q389 352 482.5 239.5 Q576 127 748 127 Q844 127 920 156.5 Q996 186 1061 248 L1061 57 Z " />
<glyph glyph-name="egrave" unicode="&#xe8;" horiz-adv-x="1233" d="M1120 652 L1120 562 L323 562 L323 556 Q315 327 410.5 227 Q506 127 680 127 Q768 127 864 155 Q960 183 1069 240 L1069 57 Q964 14 866.5 -7.5 Q769 -29 678 -29 Q417 -29 270 127.5 Q123 284 123 559 Q123 827 267 987 Q411 1147 651 1147 Q865 1147 988.5 1002 Q1112 857 1120 652 Z M936 706 Q924 822 851.5 906.5 Q779 991 643 991 Q510 991 424 903 Q338 815 330 705 L936 706 Z M491 1638 L772 1262 L618 1262 L293 1638 L491 1638 Z " />
<glyph glyph-name="eacute" unicode="&#xe9;" horiz-adv-x="1233" d="M1120 652 L1120 562 L323 562 L323 556 Q315 327 410.5 227 Q506 127 680 127 Q768 127 864 155 Q960 183 1069 240 L1069 57 Q964 14 866.5 -7.5 Q769 -29 678 -29 Q417 -29 270 127.5 Q123 284 123 559 Q123 827 267 987 Q411 1147 651 1147 Q865 1147 988.5 1002 Q1112 857 1120 652 Z M936 706 Q924 822 851.5 906.5 Q779 991 643 991 Q510 991 424 903 Q338 815 330 705 L936 706 Z M770 1638 L968 1638 L643 1262 L489 1262 L770 1638 Z " />
<glyph glyph-name="ecircumflex" unicode="&#xea;" horiz-adv-x="1233" d="M1120 652 L1120 562 L323 562 L323 556 Q315 327 410.5 227 Q506 127 680 127 Q768 127 864 155 Q960 183 1069 240 L1069 57 Q964 14 866.5 -7.5 Q769 -29 678 -29 Q417 -29 270 127.5 Q123 284 123 559 Q123 827 267 987 Q411 1147 651 1147 Q865 1147 988.5 1002 Q1112 857 1120 652 Z M936 706 Q924 822 851.5 906.5 Q779 991 643 991 Q510 991 424 903 Q338 815 330 705 L936 706 Z M557 1638 L704 1638 L950 1262 L811 1262 L630 1507 L450 1262 L311 1262 L557 1638 Z " />
<glyph glyph-name="edieresis" unicode="&#xeb;" horiz-adv-x="1233" d="M1120 652 L1120 562 L323 562 L323 556 Q315 327 410.5 227 Q506 127 680 127 Q768 127 864 155 Q960 183 1069 240 L1069 57 Q964 14 866.5 -7.5 Q769 -29 678 -29 Q417 -29 270 127.5 Q123 284 123 559 Q123 827 267 987 Q411 1147 651 1147 Q865 1147 988.5 1002 Q1112 857 1120 652 Z M936 706 Q924 822 851.5 906.5 Q779 991 643 991 Q510 991 424 903 Q338 815 330 705 L936 706 Z M333 1552 L536 1552 L536 1350 L333 1350 L333 1552 Z M725 1552 L927 1552 L927 1350 L725 1350 L725 1552 Z " />
<glyph glyph-name="igrave" unicode="&#xec;" horiz-adv-x="1233" d="M256 1120 L727 1120 L727 143 L1092 143 L1092 0 L178 0 L178 143 L543 143 L543 977 L256 977 L256 1120 Z M477 1638 L758 1262 L604 1262 L279 1638 L477 1638 Z " />
<glyph glyph-name="iacute" unicode="&#xed;" horiz-adv-x="1233" d="M256 1120 L727 1120 L727 143 L1092 143 L1092 0 L178 0 L178 143 L543 143 L543 977 L256 977 L256 1120 Z M756 1638 L954 1638 L629 1262 L475 1262 L756 1638 Z " />
<glyph glyph-name="icircumflex" unicode="&#xee;" horiz-adv-x="1233" d="M256 1120 L727 1120 L727 143 L1092 143 L1092 0 L178 0 L178 143 L543 143 L543 977 L256 977 L256 1120 Z M543 1638 L690 1638 L936 1262 L797 1262 L616 1507 L436 1262 L297 1262 L543 1638 Z " />
<glyph glyph-name="idieresis" unicode="&#xef;" horiz-adv-x="1233" d="M256 1120 L727 1120 L727 143 L1092 143 L1092 0 L178 0 L178 143 L543 143 L543 977 L256 977 L256 1120 Z M343 1552 L546 1552 L546 1350 L343 1350 L343 1552 Z M735 1552 L937 1552 L937 1350 L735 1350 L735 1552 Z " />
<glyph glyph-name="eth" unicode="&#xf0;" horiz-adv-x="1233" d="M717 1327 Q914 1115 1005 925 Q1096 735 1096 535 Q1096 267 970.5 119 Q845 -29 616 -29 Q388 -29 262.5 119 Q137 267 137 535 Q137 800 262.5 948 Q388 1096 612 1096 Q646 1096 663.5 1095 Q681 1094 696 1092 Q663 1137 627 1181.5 Q591 1226 553 1270 L274 1178 L244 1276 L481 1356 L299 1556 L518 1556 L645 1411 L934 1505 L967 1407 L717 1327 Z M793 918 Q758 931 717 937.5 Q676 944 631 944 Q485 944 408.5 839 Q332 734 332 535 Q332 339 406 233 Q480 127 616 127 Q753 127 827 233 Q901 339 901 535 Q901 645 872 746.5 Q843 848 793 918 Z " />
<glyph glyph-name="ntilde" unicode="&#xf1;" horiz-adv-x="1233" d="M1051 694 L1051 0 L866 0 L866 694 Q866 845 813 916 Q760 987 647 987 Q518 987 448.5 895.5 Q379 804 379 633 L379 0 L195 0 L195 1120 L379 1120 L379 952 Q428 1048 512 1097.5 Q596 1147 711 1147 Q882 1147 966.5 1034.5 Q1051 922 1051 694 Z M612 1370 L555 1425 Q534 1445 517.5 1454.5 Q501 1464 487 1464 Q449 1464 431 1427 Q413 1390 411 1309 L287 1309 Q288 1443 339 1517 Q390 1591 481 1591 Q520 1591 552 1577 Q584 1563 621 1530 L678 1475 Q699 1455 715.5 1445.5 Q732 1436 745 1436 Q784 1436 802 1473 Q820 1510 821 1591 L946 1591 Q945 1457 894 1383 Q843 1309 752 1309 Q713 1309 681 1323 Q649 1337 612 1370 Z " />
<glyph glyph-name="ograve" unicode="&#xf2;" horiz-adv-x="1233" d="M616 991 Q476 991 404 882 Q332 773 332 559 Q332 346 404 236.5 Q476 127 616 127 Q757 127 829 236.5 Q901 346 901 559 Q901 773 829 882 Q757 991 616 991 Z M616 1147 Q849 1147 972.5 996 Q1096 845 1096 559 Q1096 272 973 121.5 Q850 -29 616 -29 Q383 -29 260 121.5 Q137 272 137 559 Q137 845 260 996 Q383 1147 616 1147 Z M477 1638 L758 1262 L604 1262 L279 1638 L477 1638 Z " />
<glyph glyph-name="oacute" unicode="&#xf3;" horiz-adv-x="1233" d="M616 991 Q476 991 404 882 Q332 773 332 559 Q332 346 404 236.5 Q476 127 616 127 Q757 127 829 236.5 Q901 346 901 559 Q901 773 829 882 Q757 991 616 991 Z M616 1147 Q849 1147 972.5 996 Q1096 845 1096 559 Q1096 272 973 121.5 Q850 -29 616 -29 Q383 -29 260 121.5 Q137 272 137 559 Q137 845 260 996 Q383 1147 616 1147 Z M756 1638 L954 1638 L629 1262 L475 1262 L756 1638 Z " />
<glyph glyph-name="ocircumflex" unicode="&#xf4;" horiz-adv-x="1233" d="M616 991 Q476 991 404 882 Q332 773 332 559 Q332 346 404 236.5 Q476 127 616 127 Q757 127 829 236.5 Q901 346 901 559 Q901 773 829 882 Q757 991 616 991 Z M616 1147 Q849 1147 972.5 996 Q1096 845 1096 559 Q1096 272 973 121.5 Q850 -29 616 -29 Q383 -29 260 121.5 Q137 272 137 559 Q137 845 260 996 Q383 1147 616 1147 Z M543 1638 L690 1638 L936 1262 L797 1262 L616 1507 L436 1262 L297 1262 L543 1638 Z " />
<glyph glyph-name="otilde" unicode="&#xf5;" horiz-adv-x="1233" d="M616 991 Q476 991 404 882 Q332 773 332 559 Q332 346 404 236.5 Q476 127 616 127 Q757 127 829 236.5 Q901 346 901 559 Q901 773 829 882 Q757 991 616 991 Z M616 1147 Q849 1147 972.5 996 Q1096 845 1096 559 Q1096 272 973 121.5 Q850 -29 616 -29 Q383 -29 260 121.5 Q137 272 137 559 Q137 845 260 996 Q383 1147 616 1147 Z M612 1370 L555 1425 Q534 1445 517.5 1454.5 Q501 1464 487 1464 Q449 1464 431 1427 Q413 1390 411 1309 L287 1309 Q288 1443 339 1517 Q390 1591 481 1591 Q520 1591 552 1577 Q584 1563 621 1530 L678 1475 Q699 1455 715.5 1445.5 Q732 1436 745 1436 Q784 1436 802 1473 Q820 1510 821 1591 L946 1591 Q945 1457 894 1383 Q843 1309 752 1309 Q713 1309 681 1323 Q649 1337 612 1370 Z " />
<glyph glyph-name="odieresis" unicode="&#xf6;" horiz-adv-x="1233" d="M616 991 Q476 991 404 882 Q332 773 332 559 Q332 346 404 236.5 Q476 127 616 127 Q757 127 829 236.5 Q901 346 901 559 Q901 773 829 882 Q757 991 616 991 Z M616 1147 Q849 1147 972.5 996 Q1096 845 1096 559 Q1096 272 973 121.5 Q850 -29 616 -29 Q383 -29 260 121.5 Q137 272 137 559 Q137 845 260 996 Q383 1147 616 1147 Z M319 1552 L522 1552 L522 1350 L319 1350 L319 1552 Z M711 1552 L913 1552 L913 1350 L711 1350 L711 1552 Z " />
<glyph glyph-name="divide" unicode="&#xf7;" horiz-adv-x="1233" d="M494 395 L739 395 L739 150 L494 150 L494 395 Z M494 1135 L739 1135 L739 889 L494 889 L494 1135 Z M88 727 L1145 727 L1145 557 L88 557 L88 727 Z " />
<glyph glyph-name="oslash" unicode="&#xf8;" horiz-adv-x="1233" d="M877 780 L414 221 Q450 174 500.5 150.5 Q551 127 616 127 Q757 127 829 236.5 Q901 346 901 559 Q901 611 895 666.5 Q889 722 877 780 Z M817 897 Q782 945 732.5 968 Q683 991 616 991 Q477 991 402.5 884 Q328 777 328 575 Q328 527 335 469 Q342 411 356 340 L817 897 Z M217 180 Q178 251 157.5 348.5 Q137 446 137 559 Q137 845 260 996 Q383 1147 616 1147 Q716 1147 795 1119.5 Q874 1092 934 1036 L1081 1212 L1174 1135 L1010 940 Q1052 874 1074 777.5 Q1096 681 1096 559 Q1096 272 973 121.5 Q850 -29 616 -29 Q513 -29 434.5 0.5 Q356 30 299 90 L139 -96 L47 -20 L217 180 Z " />
<glyph glyph-name="ugrave" unicode="&#xf9;" horiz-adv-x="1233" d="M195 424 L195 1118 L379 1118 L379 424 Q379 273 432.5 202 Q486 131 598 131 Q728 131 797 222.5 Q866 314 866 485 L866 1118 L1051 1118 L1051 0 L866 0 L866 168 Q817 71 732.5 21 Q648 -29 535 -29 Q363 -29 279 83.5 Q195 196 195 424 Z M477 1638 L758 1262 L604 1262 L279 1638 L477 1638 Z " />
<glyph glyph-name="uacute" unicode="&#xfa;" horiz-adv-x="1233" d="M195 424 L195 1118 L379 1118 L379 424 Q379 273 432.5 202 Q486 131 598 131 Q728 131 797 222.5 Q866 314 866 485 L866 1118 L1051 1118 L1051 0 L866 0 L866 168 Q817 71 732.5 21 Q648 -29 535 -29 Q363 -29 279 83.5 Q195 196 195 424 Z M756 1638 L954 1638 L629 1262 L475 1262 L756 1638 Z " />
<glyph glyph-name="ucircumflex" unicode="&#xfb;" horiz-adv-x="1233" d="M195 424 L195 1118 L379 1118 L379 424 Q379 273 432.5 202 Q486 131 598 131 Q728 131 797 222.5 Q866 314 866 485 L866 1118 L1051 1118 L1051 0 L866 0 L866 168 Q817 71 732.5 21 Q648 -29 535 -29 Q363 -29 279 83.5 Q195 196 195 424 Z M543 1638 L690 1638 L936 1262 L797 1262 L616 1507 L436 1262 L297 1262 L543 1638 Z " />
<glyph glyph-name="udieresis" unicode="&#xfc;" horiz-adv-x="1233" d="M195 424 L195 1118 L379 1118 L379 424 Q379 273 432.5 202 Q486 131 598 131 Q728 131 797 222.5 Q866 314 866 485 L866 1118 L1051 1118 L1051 0 L866 0 L866 168 Q817 71 732.5 21 Q648 -29 535 -29 Q363 -29 279 83.5 Q195 196 195 424 Z M319 1552 L522 1552 L522 1350 L319 1350 L319 1552 Z M711 1552 L913 1552 L913 1350 L711 1350 L711 1552 Z " />
<glyph glyph-name="yacute" unicode="&#xfd;" horiz-adv-x="1233" d="M858 360 Q812 243 741 52 Q642 -212 608 -270 Q562 -348 493 -387 Q424 -426 332 -426 L184 -426 L184 -272 L293 -272 Q374 -272 420 -225 Q466 -178 537 18 L104 1120 L299 1120 L631 244 L958 1120 L1153 1120 L858 360 Z M756 1638 L954 1638 L629 1262 L475 1262 L756 1638 Z " />
<glyph glyph-name="thorn" unicode="&#xfe;" horiz-adv-x="1233" d="M375 141 L375 -426 L190 -426 L190 1567 L375 1567 L375 977 Q421 1060 497.5 1103.5 Q574 1147 674 1147 Q877 1147 992.5 990 Q1108 833 1108 555 Q1108 282 992 126.5 Q876 -29 674 -29 Q572 -29 495.5 14.5 Q419 58 375 141 Z M915 559 Q915 773 847.5 882 Q780 991 647 991 Q513 991 444 881.5 Q375 772 375 559 Q375 347 444 237 Q513 127 647 127 Q780 127 847.5 236 Q915 345 915 559 Z " />
<glyph glyph-name="ydieresis" unicode="&#xff;" horiz-adv-x="1233" d="M858 360 Q812 243 741 52 Q642 -212 608 -270 Q562 -348 493 -387 Q424 -426 332 -426 L184 -426 L184 -272 L293 -272 Q374 -272 420 -225 Q466 -178 537 18 L104 1120 L299 1120 L631 244 L958 1120 L1153 1120 L858 360 Z M319 1552 L522 1552 L522 1350 L319 1350 L319 1552 Z M711 1552 L913 1552 L913 1350 L711 1350 L711 1552 Z " />
<glyph glyph-name="Amacron" unicode="&#x100;" horiz-adv-x="1233" d="M317 1840 L915 1840 L915 1692 L317 1692 L317 1840 Z M616 1315 L403 551 L829 551 L616 1315 Z M494 1493 L739 1493 L1196 0 L987 0 L877 389 L354 389 L246 0 L37 0 L494 1493 Z " />
<glyph glyph-name="amacron" unicode="&#x101;" horiz-adv-x="1233" d="M317 1526 L915 1526 L915 1378 L317 1378 L317 1526 Z M702 563 L641 563 Q480 563 398.5 506.5 Q317 450 317 338 Q317 237 378 181 Q439 125 547 125 Q699 125 786 230.5 Q873 336 874 522 L874 563 L702 563 Z M1059 639 L1059 0 L874 0 L874 166 Q815 66 725.5 18.5 Q636 -29 508 -29 Q337 -29 235 67.5 Q133 164 133 326 Q133 513 258.5 610 Q384 707 627 707 L874 707 L874 736 Q873 870 806 930.5 Q739 991 592 991 Q498 991 402 964 Q306 937 215 885 L215 1069 Q317 1108 410.5 1127.5 Q504 1147 592 1147 Q731 1147 829.5 1106 Q928 1065 989 983 Q1027 933 1043 859.5 Q1059 786 1059 639 Z " />
<glyph glyph-name="Abreve" unicode="&#x102;" horiz-adv-x="1233" d="M303 1901 L422 1901 Q434 1847 484 1818.5 Q534 1790 616 1790 Q699 1790 747.5 1817.5 Q796 1845 811 1901 L930 1901 Q919 1782 839.5 1720.5 Q760 1659 616 1659 Q472 1659 393 1720 Q314 1781 303 1901 Z M616 1315 L403 551 L829 551 L616 1315 Z M494 1493 L739 1493 L1196 0 L987 0 L877 389 L354 389 L246 0 L37 0 L494 1493 Z " />
<glyph glyph-name="abreve" unicode="&#x103;" horiz-adv-x="1233" d="M303 1608 L422 1608 Q433 1532 481 1495 Q529 1458 616 1458 Q701 1458 749 1495 Q797 1532 811 1608 L930 1608 Q919 1465 840 1393 Q761 1321 616 1321 Q472 1321 393 1393 Q314 1465 303 1608 Z M702 563 L641 563 Q480 563 398.5 506.5 Q317 450 317 338 Q317 237 378 181 Q439 125 547 125 Q699 125 786 230.5 Q873 336 874 522 L874 563 L702 563 Z M1059 639 L1059 0 L874 0 L874 166 Q815 66 725.5 18.5 Q636 -29 508 -29 Q337 -29 235 67.5 Q133 164 133 326 Q133 513 258.5 610 Q384 707 627 707 L874 707 L874 736 Q873 870 806 930.5 Q739 991 592 991 Q498 991 402 964 Q306 937 215 885 L215 1069 Q317 1108 410.5 1127.5 Q504 1147 592 1147 Q731 1147 829.5 1106 Q928 1065 989 983 Q1027 933 1043 859.5 Q1059 786 1059 639 Z " />
<glyph glyph-name="Aogonek" unicode="&#x104;" horiz-adv-x="1233" d="M983 0 L1102 0 Q1057 -61 1035.5 -105 Q1014 -149 1014 -180 Q1014 -226 1041.5 -249 Q1069 -272 1123 -272 Q1155 -272 1186 -264.5 Q1217 -257 1248 -242 L1248 -375 Q1210 -385 1176 -390 Q1142 -395 1112 -395 Q990 -395 932.5 -351.5 Q875 -308 875 -215 Q875 -167 901.5 -114.5 Q928 -62 983 0 Z M616 1315 L403 551 L829 551 L616 1315 Z M494 1493 L739 1493 L1196 0 L987 0 L877 389 L354 389 L246 0 L37 0 L494 1493 Z " />
<glyph glyph-name="aogonek" unicode="&#x105;" horiz-adv-x="1233" d="M873 0 L992 0 Q947 -61 925.5 -105 Q904 -149 904 -180 Q904 -226 931.5 -249 Q959 -272 1013 -272 Q1045 -272 1076 -264.5 Q1107 -257 1138 -242 L1138 -375 Q1100 -385 1066 -390 Q1032 -395 1002 -395 Q880 -395 822.5 -351.5 Q765 -308 765 -215 Q765 -167 791.5 -114.5 Q818 -62 873 0 Z M702 563 L641 563 Q480 563 398.5 506.5 Q317 450 317 338 Q317 237 378 181 Q439 125 547 125 Q699 125 786 230.5 Q873 336 874 522 L874 563 L702 563 Z M1059 639 L1059 0 L874 0 L874 166 Q815 66 725.5 18.5 Q636 -29 508 -29 Q337 -29 235 67.5 Q133 164 133 326 Q133 513 258.5 610 Q384 707 627 707 L874 707 L874 736 Q873 870 806 930.5 Q739 991 592 991 Q498 991 402 964 Q306 937 215 885 L215 1069 Q317 1108 410.5 1127.5 Q504 1147 592 1147 Q731 1147 829.5 1106 Q928 1065 989 983 Q1027 933 1043 859.5 Q1059 786 1059 639 Z " />
<glyph glyph-name="Cacute" unicode="&#x106;" horiz-adv-x="1233" d="M1073 53 Q996 12 915 -8.5 Q834 -29 743 -29 Q456 -29 297.5 174 Q139 377 139 745 Q139 1111 298.5 1315.5 Q458 1520 743 1520 Q834 1520 915 1499.5 Q996 1479 1073 1438 L1073 1231 Q999 1292 914 1324 Q829 1356 743 1356 Q546 1356 448 1204 Q350 1052 350 745 Q350 439 448 287 Q546 135 743 135 Q831 135 915.5 167 Q1000 199 1073 260 L1073 53 Z M762 1899 L948 1899 L719 1635 L565 1635 L762 1899 Z " />
<glyph glyph-name="cacute" unicode="&#x107;" horiz-adv-x="1233" d="M1061 57 Q987 14 908.5 -7.5 Q830 -29 748 -29 Q488 -29 341.5 127 Q195 283 195 559 Q195 835 341.5 991 Q488 1147 748 1147 Q829 1147 906 1126 Q983 1105 1061 1061 L1061 868 Q988 933 914.5 962 Q841 991 748 991 Q575 991 482 879 Q389 767 389 559 Q389 352 482.5 239.5 Q576 127 748 127 Q844 127 920 156.5 Q996 186 1061 248 L1061 57 Z M846 1638 L1044 1638 L719 1262 L565 1262 L846 1638 Z " />
<glyph glyph-name="Ccircumflex" unicode="&#x108;" horiz-adv-x="1233" d="M648 1908 L837 1908 L1048 1642 L908 1642 L742 1820 L577 1642 L437 1642 L648 1908 Z M1073 53 Q996 12 915 -8.5 Q834 -29 743 -29 Q456 -29 297.5 174 Q139 377 139 745 Q139 1111 298.5 1315.5 Q458 1520 743 1520 Q834 1520 915 1499.5 Q996 1479 1073 1438 L1073 1231 Q999 1292 914 1324 Q829 1356 743 1356 Q546 1356 448 1204 Q350 1052 350 745 Q350 439 448 287 Q546 135 743 135 Q831 135 915.5 167 Q1000 199 1073 260 L1073 53 Z " />
<glyph glyph-name="ccircumflex" unicode="&#x109;" horiz-adv-x="1233" d="M633 1638 L780 1638 L1026 1262 L887 1262 L706 1507 L526 1262 L387 1262 L633 1638 Z M1061 57 Q987 14 908.5 -7.5 Q830 -29 748 -29 Q488 -29 341.5 127 Q195 283 195 559 Q195 835 341.5 991 Q488 1147 748 1147 Q829 1147 906 1126 Q983 1105 1061 1061 L1061 868 Q988 933 914.5 962 Q841 991 748 991 Q575 991 482 879 Q389 767 389 559 Q389 352 482.5 239.5 Q576 127 748 127 Q844 127 920 156.5 Q996 186 1061 248 L1061 57 Z " />
<glyph glyph-name="Cdotaccent" unicode="&#x10a;" horiz-adv-x="1233" d="M588 1872 L793 1872 L793 1667 L588 1667 L588 1872 Z M1073 53 Q996 12 915 -8.5 Q834 -29 743 -29 Q456 -29 297.5 174 Q139 377 139 745 Q139 1111 298.5 1315.5 Q458 1520 743 1520 Q834 1520 915 1499.5 Q996 1479 1073 1438 L1073 1231 Q999 1292 914 1324 Q829 1356 743 1356 Q546 1356 448 1204 Q350 1052 350 745 Q350 439 448 287 Q546 135 743 135 Q831 135 915.5 167 Q1000 199 1073 260 L1073 53 Z " />
<glyph glyph-name="cdotaccent" unicode="&#x10b;" horiz-adv-x="1233" d="M588 1552 L793 1552 L793 1348 L588 1348 L588 1552 Z M1061 57 Q987 14 908.5 -7.5 Q830 -29 748 -29 Q488 -29 341.5 127 Q195 283 195 559 Q195 835 341.5 991 Q488 1147 748 1147 Q829 1147 906 1126 Q983 1105 1061 1061 L1061 868 Q988 933 914.5 962 Q841 991 748 991 Q575 991 482 879 Q389 767 389 559 Q389 352 482.5 239.5 Q576 127 748 127 Q844 127 920 156.5 Q996 186 1061 248 L1061 57 Z " />
<glyph glyph-name="Ccaron" unicode="&#x10c;" horiz-adv-x="1233" d="M1073 53 Q996 12 915 -8.5 Q834 -29 743 -29 Q456 -29 297.5 174 Q139 377 139 745 Q139 1111 298.5 1315.5 Q458 1520 743 1520 Q834 1520 915 1499.5 Q996 1479 1073 1438 L1073 1231 Q999 1292 914 1324 Q829 1356 743 1356 Q546 1356 448 1204 Q350 1052 350 745 Q350 439 448 287 Q546 135 743 135 Q831 135 915.5 167 Q1000 199 1073 260 L1073 53 Z M612 1635 L401 1901 L541 1901 L706 1723 L872 1901 L1012 1901 L801 1635 L612 1635 Z " />
<glyph glyph-name="ccaron" unicode="&#x10d;" horiz-adv-x="1233" d="M1061 57 Q987 14 908.5 -7.5 Q830 -29 748 -29 Q488 -29 341.5 127 Q195 283 195 559 Q195 835 341.5 991 Q488 1147 748 1147 Q829 1147 906 1126 Q983 1105 1061 1061 L1061 868 Q988 933 914.5 962 Q841 991 748 991 Q575 991 482 879 Q389 767 389 559 Q389 352 482.5 239.5 Q576 127 748 127 Q844 127 920 156.5 Q996 186 1061 248 L1061 57 Z M633 1262 L387 1638 L526 1638 L706 1393 L887 1638 L1026 1638 L780 1262 L633 1262 Z " />
<glyph glyph-name="Dcaron" unicode="&#x10e;" horiz-adv-x="1233" d="M436 166 Q691 166 792 291.5 Q893 417 893 745 Q893 1076 792.5 1201.5 Q692 1327 436 1327 L340 1327 L340 166 L436 166 Z M440 1493 Q782 1493 944 1311 Q1106 1129 1106 745 Q1106 363 944 181.5 Q782 0 440 0 L137 0 L137 1493 L440 1493 Z M445 1629 L234 1895 L374 1895 L539 1717 L705 1895 L845 1895 L634 1629 L445 1629 Z " />
<glyph glyph-name="dcaron" unicode="&#x10f;" horiz-adv-x="1233" d="M1114 1558 L1312 1558 L1199 1182 L1045 1182 L1114 1558 Z M858 977 L858 1556 L1042 1556 L1042 0 L858 0 L858 141 Q812 58 735.5 14.5 Q659 -29 559 -29 Q356 -29 239.5 128.5 Q123 286 123 563 Q123 836 240 991.5 Q357 1147 559 1147 Q660 1147 737 1103.5 Q814 1060 858 977 Z M317 559 Q317 345 385 236 Q453 127 586 127 Q719 127 788.5 237 Q858 347 858 559 Q858 772 788.5 881.5 Q719 991 586 991 Q453 991 385 882 Q317 773 317 559 Z " />
<glyph glyph-name="Dcroat" unicode="&#x110;" horiz-adv-x="1233" d="M436 1493 Q778 1493 940 1311 Q1102 1129 1102 745 Q1102 363 939.5 181.5 Q777 0 436 0 L133 0 L133 709 L8 709 L8 858 L133 858 L133 1493 L436 1493 Z M436 166 Q691 166 792 291.5 Q893 417 893 745 Q893 1076 792.5 1201.5 Q692 1327 436 1327 L340 1327 L340 858 L604 858 L604 709 L340 709 L340 166 L436 166 Z " />
<glyph glyph-name="dslash" unicode="&#x111;" horiz-adv-x="1233" d="M858 977 L858 1286 L553 1286 L553 1407 L858 1407 L858 1556 L1042 1556 L1042 1407 L1233 1407 L1233 1286 L1042 1286 L1042 0 L858 0 L858 141 Q812 58 735.5 14.5 Q659 -29 559 -29 Q356 -29 239.5 128.5 Q123 286 123 563 Q123 836 240 991.5 Q357 1147 559 1147 Q660 1147 737 1103.5 Q814 1060 858 977 Z M317 559 Q317 345 385 236 Q453 127 586 127 Q719 127 788.5 237 Q858 347 858 559 Q858 772 788.5 881.5 Q719 991 586 991 Q453 991 385 882 Q317 773 317 559 Z " />
<glyph glyph-name="Emacron" unicode="&#x112;" horiz-adv-x="1233" d="M335 1840 L933 1840 L933 1692 L335 1692 L335 1840 Z M197 1493 L1083 1493 L1083 1323 L399 1323 L399 921 L1053 921 L1053 751 L399 751 L399 170 L1102 170 L1102 0 L197 0 L197 1493 Z " />
<glyph glyph-name="emacron" unicode="&#x113;" horiz-adv-x="1233" d="M352 1526 L950 1526 L950 1378 L352 1378 L352 1526 Z M1120 652 L1120 562 L323 562 L323 556 Q315 327 410.5 227 Q506 127 680 127 Q768 127 864 155 Q960 183 1069 240 L1069 57 Q964 14 866.5 -7.5 Q769 -29 678 -29 Q417 -29 270 127.5 Q123 284 123 559 Q123 827 267 987 Q411 1147 651 1147 Q865 1147 988.5 1002 Q1112 857 1120 652 Z M936 706 Q924 822 851.5 906.5 Q779 991 643 991 Q510 991 424 903 Q338 815 330 705 L936 706 Z " />
<glyph glyph-name="Ebreve" unicode="&#x114;" horiz-adv-x="1233" d="M321 1901 L440 1901 Q452 1847 502 1818.5 Q552 1790 634 1790 Q717 1790 765.5 1817.5 Q814 1845 829 1901 L948 1901 Q937 1782 857.5 1720.5 Q778 1659 634 1659 Q490 1659 411 1720 Q332 1781 321 1901 Z M197 1493 L1083 1493 L1083 1323 L399 1323 L399 921 L1053 921 L1053 751 L399 751 L399 170 L1102 170 L1102 0 L197 0 L197 1493 Z " />
<glyph glyph-name="ebreve" unicode="&#x115;" horiz-adv-x="1233" d="M317 1608 L436 1608 Q447 1532 495 1495 Q543 1458 630 1458 Q715 1458 763 1495 Q811 1532 825 1608 L944 1608 Q933 1465 854 1393 Q775 1321 630 1321 Q486 1321 407 1393 Q328 1465 317 1608 Z M1120 652 L1120 562 L323 562 L323 556 Q315 327 410.5 227 Q506 127 680 127 Q768 127 864 155 Q960 183 1069 240 L1069 57 Q964 14 866.5 -7.5 Q769 -29 678 -29 Q417 -29 270 127.5 Q123 284 123 559 Q123 827 267 987 Q411 1147 651 1147 Q865 1147 988.5 1002 Q1112 857 1120 652 Z M936 706 Q924 822 851.5 906.5 Q779 991 643 991 Q510 991 424 903 Q338 815 330 705 L936 706 Z " />
<glyph glyph-name="Edotaccent" unicode="&#x116;" horiz-adv-x="1233" d="M531 1872 L736 1872 L736 1667 L531 1667 L531 1872 Z M197 1493 L1083 1493 L1083 1323 L399 1323 L399 921 L1053 921 L1053 751 L399 751 L399 170 L1102 170 L1102 0 L197 0 L197 1493 Z " />
<glyph glyph-name="edotaccent" unicode="&#x117;" horiz-adv-x="1233" d="M527 1552 L732 1552 L732 1348 L527 1348 L527 1552 Z M1120 652 L1120 562 L323 562 L323 556 Q315 327 410.5 227 Q506 127 680 127 Q768 127 864 155 Q960 183 1069 240 L1069 57 Q964 14 866.5 -7.5 Q769 -29 678 -29 Q417 -29 270 127.5 Q123 284 123 559 Q123 827 267 987 Q411 1147 651 1147 Q865 1147 988.5 1002 Q1112 857 1120 652 Z M936 706 Q924 822 851.5 906.5 Q779 991 643 991 Q510 991 424 903 Q338 815 330 705 L936 706 Z " />
<glyph glyph-name="Eogonek" unicode="&#x118;" horiz-adv-x="1233" d="M833 0 L952 0 Q907 -61 885.5 -105 Q864 -149 864 -180 Q864 -226 891.5 -249 Q919 -272 973 -272 Q1005 -272 1036 -264.5 Q1067 -257 1098 -242 L1098 -375 Q1060 -385 1026 -390 Q992 -395 962 -395 Q840 -395 782.5 -351.5 Q725 -308 725 -215 Q725 -167 751.5 -114.5 Q778 -62 833 0 Z M197 1493 L1083 1493 L1083 1323 L399 1323 L399 921 L1053 921 L1053 751 L399 751 L399 170 L1102 170 L1102 0 L197 0 L197 1493 Z " />
<glyph glyph-name="eogonek" unicode="&#x119;" horiz-adv-x="1233" d="M774 0 L893 0 Q848 -61 826.5 -105 Q805 -149 805 -180 Q805 -226 832.5 -249 Q860 -272 914 -272 Q946 -272 977 -264.5 Q1008 -257 1039 -242 L1039 -375 Q1001 -385 967 -390 Q933 -395 903 -395 Q781 -395 723.5 -351.5 Q666 -308 666 -215 Q666 -167 692.5 -114.5 Q719 -62 774 0 Z M1120 652 L1120 562 L323 562 L323 556 Q315 327 410.5 227 Q506 127 680 127 Q768 127 864 155 Q960 183 1069 240 L1069 57 Q964 14 866.5 -7.5 Q769 -29 678 -29 Q417 -29 270 127.5 Q123 284 123 559 Q123 827 267 987 Q411 1147 651 1147 Q865 1147 988.5 1002 Q1112 857 1120 652 Z M936 706 Q924 822 851.5 906.5 Q779 991 643 991 Q510 991 424 903 Q338 815 330 705 L936 706 Z " />
<glyph glyph-name="Ecaron" unicode="&#x11a;" horiz-adv-x="1233" d="M197 1493 L1083 1493 L1083 1323 L399 1323 L399 921 L1053 921 L1053 751 L399 751 L399 170 L1102 170 L1102 0 L197 0 L197 1493 Z M558 1629 L347 1895 L487 1895 L652 1717 L818 1895 L958 1895 L747 1629 L558 1629 Z " />
<glyph glyph-name="ecaron" unicode="&#x11b;" horiz-adv-x="1233" d="M1120 652 L1120 562 L323 562 L323 556 Q315 327 410.5 227 Q506 127 680 127 Q768 127 864 155 Q960 183 1069 240 L1069 57 Q964 14 866.5 -7.5 Q769 -29 678 -29 Q417 -29 270 127.5 Q123 284 123 559 Q123 827 267 987 Q411 1147 651 1147 Q865 1147 988.5 1002 Q1112 857 1120 652 Z M936 706 Q924 822 851.5 906.5 Q779 991 643 991 Q510 991 424 903 Q338 815 330 705 L936 706 Z M578 1258 L332 1634 L471 1634 L651 1389 L832 1634 L971 1634 L725 1258 L578 1258 Z " />
<glyph glyph-name="Gcircumflex" unicode="&#x11c;" horiz-adv-x="1233" d="M522 1901 L711 1901 L922 1635 L782 1635 L616 1813 L451 1635 L311 1635 L522 1901 Z M1104 123 Q1023 48 921.5 9.5 Q820 -29 702 -29 Q418 -29 260 174.5 Q102 378 102 745 Q102 1111 262 1315.5 Q422 1520 707 1520 Q801 1520 887 1493.5 Q973 1467 1053 1413 L1053 1206 Q972 1283 887 1319.5 Q802 1356 707 1356 Q510 1356 411.5 1203.5 Q313 1051 313 745 Q313 434 408.5 284.5 Q504 135 702 135 Q769 135 819.5 150.5 Q870 166 911 199 L911 600 L694 600 L694 766 L1104 766 L1104 123 Z " />
<glyph glyph-name="gcircumflex" unicode="&#x11d;" horiz-adv-x="1233" d="M543 1638 L690 1638 L936 1262 L797 1262 L616 1507 L436 1262 L297 1262 L543 1638 Z M858 569 Q858 776 790.5 883.5 Q723 991 594 991 Q459 991 388 883.5 Q317 776 317 569 Q317 362 388.5 253.5 Q460 145 596 145 Q723 145 790.5 254 Q858 363 858 569 Z M1042 72 Q1042 -180 923 -310 Q804 -440 573 -440 Q497 -440 414 -426 Q331 -412 248 -385 L248 -203 Q346 -249 426 -271 Q506 -293 573 -293 Q722 -293 790 -212 Q858 -131 858 45 L858 53 L858 178 Q814 84 738 38 Q662 -8 553 -8 Q357 -8 240 149 Q123 306 123 569 Q123 833 240 990 Q357 1147 553 1147 Q661 1147 736 1104 Q811 1061 858 971 L858 1116 L1042 1116 L1042 72 Z " />
<glyph glyph-name="Gbreve" unicode="&#x11e;" horiz-adv-x="1233" d="M353 1901 L472 1901 Q484 1847 534 1818.5 Q584 1790 666 1790 Q749 1790 797.5 1817.5 Q846 1845 861 1901 L980 1901 Q969 1782 889.5 1720.5 Q810 1659 666 1659 Q522 1659 443 1720 Q364 1781 353 1901 Z M1104 123 Q1023 48 921.5 9.5 Q820 -29 702 -29 Q418 -29 260 174.5 Q102 378 102 745 Q102 1111 262 1315.5 Q422 1520 707 1520 Q801 1520 887 1493.5 Q973 1467 1053 1413 L1053 1206 Q972 1283 887 1319.5 Q802 1356 707 1356 Q510 1356 411.5 1203.5 Q313 1051 313 745 Q313 434 408.5 284.5 Q504 135 702 135 Q769 135 819.5 150.5 Q870 166 911 199 L911 600 L694 600 L694 766 L1104 766 L1104 123 Z " />
<glyph glyph-name="gbreve" unicode="&#x11f;" horiz-adv-x="1233" d="M303 1608 L422 1608 Q433 1532 481 1495 Q529 1458 616 1458 Q701 1458 749 1495 Q797 1532 811 1608 L930 1608 Q919 1465 840 1393 Q761 1321 616 1321 Q472 1321 393 1393 Q314 1465 303 1608 Z M858 569 Q858 776 790.5 883.5 Q723 991 594 991 Q459 991 388 883.5 Q317 776 317 569 Q317 362 388.5 253.5 Q460 145 596 145 Q723 145 790.5 254 Q858 363 858 569 Z M1042 72 Q1042 -180 923 -310 Q804 -440 573 -440 Q497 -440 414 -426 Q331 -412 248 -385 L248 -203 Q346 -249 426 -271 Q506 -293 573 -293 Q722 -293 790 -212 Q858 -131 858 45 L858 53 L858 178 Q814 84 738 38 Q662 -8 553 -8 Q357 -8 240 149 Q123 306 123 569 Q123 833 240 990 Q357 1147 553 1147 Q661 1147 736 1104 Q811 1061 858 971 L858 1116 L1042 1116 L1042 72 Z " />
<glyph glyph-name="Gdotaccent" unicode="&#x120;" horiz-adv-x="1233" d="M563 1872 L768 1872 L768 1667 L563 1667 L563 1872 Z M1104 123 Q1023 48 921.5 9.5 Q820 -29 702 -29 Q418 -29 260 174.5 Q102 378 102 745 Q102 1111 262 1315.5 Q422 1520 707 1520 Q801 1520 887 1493.5 Q973 1467 1053 1413 L1053 1206 Q972 1283 887 1319.5 Q802 1356 707 1356 Q510 1356 411.5 1203.5 Q313 1051 313 745 Q313 434 408.5 284.5 Q504 135 702 135 Q769 135 819.5 150.5 Q870 166 911 199 L911 600 L694 600 L694 766 L1104 766 L1104 123 Z " />
<glyph glyph-name="gdotaccent" unicode="&#x121;" horiz-adv-x="1233" d="M513 1552 L718 1552 L718 1348 L513 1348 L513 1552 Z M858 569 Q858 776 790.5 883.5 Q723 991 594 991 Q459 991 388 883.5 Q317 776 317 569 Q317 362 388.5 253.5 Q460 145 596 145 Q723 145 790.5 254 Q858 363 858 569 Z M1042 72 Q1042 -180 923 -310 Q804 -440 573 -440 Q497 -440 414 -426 Q331 -412 248 -385 L248 -203 Q346 -249 426 -271 Q506 -293 573 -293 Q722 -293 790 -212 Q858 -131 858 45 L858 53 L858 178 Q814 84 738 38 Q662 -8 553 -8 Q357 -8 240 149 Q123 306 123 569 Q123 833 240 990 Q357 1147 553 1147 Q661 1147 736 1104 Q811 1061 858 971 L858 1116 L1042 1116 L1042 72 Z " />
<glyph glyph-name="Gcommaaccent" unicode="&#x122;" horiz-adv-x="1233" d="M630 -227 L869 -227 L682 -572 L536 -572 L630 -227 Z M1104 123 Q1023 48 921.5 9.5 Q820 -29 702 -29 Q418 -29 260 174.5 Q102 378 102 745 Q102 1111 262 1315.5 Q422 1520 707 1520 Q801 1520 887 1493.5 Q973 1467 1053 1413 L1053 1206 Q972 1283 887 1319.5 Q802 1356 707 1356 Q510 1356 411.5 1203.5 Q313 1051 313 745 Q313 434 408.5 284.5 Q504 135 702 135 Q769 135 819.5 150.5 Q870 166 911 199 L911 600 L694 600 L694 766 L1104 766 L1104 123 Z " />
<glyph glyph-name="gcommaaccent" unicode="&#x123;" horiz-adv-x="1233" d="M725 1269 L486 1269 L673 1614 L819 1614 L725 1269 Z M858 569 Q858 776 790.5 883.5 Q723 991 594 991 Q459 991 388 883.5 Q317 776 317 569 Q317 362 388.5 253.5 Q460 145 596 145 Q723 145 790.5 254 Q858 363 858 569 Z M1042 72 Q1042 -180 923 -310 Q804 -440 573 -440 Q497 -440 414 -426 Q331 -412 248 -385 L248 -203 Q346 -249 426 -271 Q506 -293 573 -293 Q722 -293 790 -212 Q858 -131 858 45 L858 53 L858 178 Q814 84 738 38 Q662 -8 553 -8 Q357 -8 240 149 Q123 306 123 569 Q123 833 240 990 Q357 1147 553 1147 Q661 1147 736 1104 Q811 1061 858 971 L858 1116 L1042 1116 L1042 72 Z " />
<glyph glyph-name="Hcircumflex" unicode="&#x124;" horiz-adv-x="1233" d="M522 1901 L711 1901 L922 1635 L782 1635 L616 1813 L451 1635 L311 1635 L522 1901 Z M137 1493 L340 1493 L340 921 L893 921 L893 1493 L1096 1493 L1096 0 L893 0 L893 751 L340 751 L340 0 L137 0 L137 1493 Z " />
<glyph glyph-name="hcircumflex" unicode="&#x125;" horiz-adv-x="1233" d="M522 1901 L711 1901 L922 1635 L782 1635 L616 1813 L451 1635 L311 1635 L522 1901 Z M1051 694 L1051 0 L866 0 L866 694 Q866 845 813 916 Q760 987 647 987 Q518 987 448.5 895.5 Q379 804 379 633 L379 0 L195 0 L195 1556 L379 1556 L379 952 Q428 1048 512 1097.5 Q596 1147 711 1147 Q882 1147 966.5 1034.5 Q1051 922 1051 694 Z " />
<glyph glyph-name="Hbar" unicode="&#x126;" horiz-adv-x="1233" d="M137 1493 L339 1493 L339 1269 L893 1269 L893 1493 L1095 1493 L1095 1269 L1230 1269 L1230 1105 L1095 1105 L1095 0 L893 0 L893 711 L339 711 L339 0 L137 0 L137 1105 L3 1105 L3 1269 L137 1269 L137 1493 Z M339 1105 L339 881 L893 881 L893 1105 L339 1105 Z " />
<glyph glyph-name="hbar" unicode="&#x127;" horiz-adv-x="1233" d="M1051 694 L1051 0 L866 0 L866 694 Q866 845 813 916 Q760 987 647 987 Q518 987 448.5 895.5 Q379 804 379 633 L379 0 L195 0 L195 1270 L70 1270 L70 1434 L195 1434 L195 1556 L379 1556 L379 1434 L732 1434 L732 1270 L379 1270 L379 952 Q428 1048 512 1097.5 Q596 1147 711 1147 Q882 1147 966.5 1034.5 Q1051 922 1051 694 Z " />
<glyph glyph-name="Itilde" unicode="&#x128;" horiz-adv-x="1233" d="M612 1710 L555 1743 Q530 1757 514.5 1762.5 Q499 1768 487 1768 Q452 1768 432 1743 Q412 1718 412 1673 L412 1667 L287 1667 Q287 1768 338.5 1827 Q390 1886 475 1886 Q511 1886 541.5 1878 Q572 1870 621 1843 L678 1813 Q700 1800 717.5 1794 Q735 1788 750 1788 Q781 1788 801 1813.5 Q821 1839 821 1880 L821 1886 L946 1886 Q944 1786 893 1726.5 Q842 1667 758 1667 Q724 1667 694 1675 Q664 1683 612 1710 Z M201 1493 L1030 1493 L1030 1323 L717 1323 L717 170 L1030 170 L1030 0 L201 0 L201 170 L514 170 L514 1323 L201 1323 L201 1493 Z " />
<glyph glyph-name="itilde" unicode="&#x129;" horiz-adv-x="1233" d="M612 1370 L555 1425 Q534 1445 517.5 1454.5 Q501 1464 487 1464 Q449 1464 431 1427 Q413 1390 411 1309 L287 1309 Q288 1443 339 1517 Q390 1591 481 1591 Q520 1591 552 1577 Q584 1563 621 1530 L678 1475 Q699 1455 715.5 1445.5 Q732 1436 745 1436 Q784 1436 802 1473 Q820 1510 821 1591 L946 1591 Q945 1457 894 1383 Q843 1309 752 1309 Q713 1309 681 1323 Q649 1337 612 1370 Z M256 1120 L727 1120 L727 143 L1092 143 L1092 0 L178 0 L178 143 L543 143 L543 977 L256 977 L256 1120 Z " />
<glyph glyph-name="Imacron" unicode="&#x12a;" horiz-adv-x="1233" d="M317 1840 L915 1840 L915 1692 L317 1692 L317 1840 Z M201 1493 L1030 1493 L1030 1323 L717 1323 L717 170 L1030 170 L1030 0 L201 0 L201 170 L514 170 L514 1323 L201 1323 L201 1493 Z " />
<glyph glyph-name="imacron" unicode="&#x12b;" horiz-adv-x="1233" d="M317 1526 L915 1526 L915 1378 L317 1378 L317 1526 Z M256 1120 L727 1120 L727 143 L1092 143 L1092 0 L178 0 L178 143 L543 143 L543 977 L256 977 L256 1120 Z " />
<glyph glyph-name="Ibreve" unicode="&#x12c;" horiz-adv-x="1233" d="M303 1901 L422 1901 Q434 1847 484 1818.5 Q534 1790 616 1790 Q699 1790 747.5 1817.5 Q796 1845 811 1901 L930 1901 Q919 1782 839.5 1720.5 Q760 1659 616 1659 Q472 1659 393 1720 Q314 1781 303 1901 Z M201 1493 L1030 1493 L1030 1323 L717 1323 L717 170 L1030 170 L1030 0 L201 0 L201 170 L514 170 L514 1323 L201 1323 L201 1493 Z " />
<glyph glyph-name="ibreve" unicode="&#x12d;" horiz-adv-x="1233" d="M303 1608 L422 1608 Q433 1532 481 1495 Q529 1458 616 1458 Q701 1458 749 1495 Q797 1532 811 1608 L930 1608 Q919 1465 840 1393 Q761 1321 616 1321 Q472 1321 393 1393 Q314 1465 303 1608 Z M256 1120 L727 1120 L727 143 L1092 143 L1092 0 L178 0 L178 143 L543 143 L543 977 L256 977 L256 1120 Z " />
<glyph glyph-name="Iogonek" unicode="&#x12e;" horiz-adv-x="1233" d="M201 1493 L1030 1493 L1030 1323 L717 1323 L717 170 L1030 170 L1030 0 L201 0 L201 170 L514 170 L514 1323 L201 1323 L201 1493 Z M598 0 L717 0 Q672 -61 650.5 -105 Q629 -149 629 -180 Q629 -226 656.5 -249 Q684 -272 738 -272 Q770 -272 801 -264.5 Q832 -257 863 -242 L863 -375 Q825 -385 791 -390 Q757 -395 727 -395 Q605 -395 547.5 -351.5 Q490 -308 490 -215 Q490 -167 516.5 -114.5 Q543 -62 598 0 Z " />
<glyph glyph-name="iogonek" unicode="&#x12f;" horiz-adv-x="1233" d="M316 1116 L787 1116 L787 143 L1152 143 L1152 0 L238 0 L238 143 L603 143 L603 973 L316 973 L316 1116 Z M603 1551 L787 1551 L787 1319 L603 1319 L603 1551 Z M608 0 L727 0 Q682 -61 660.5 -105 Q639 -149 639 -180 Q639 -226 666.5 -249 Q694 -272 748 -272 Q780 -272 811 -264.5 Q842 -257 873 -242 L873 -375 Q835 -385 801 -390 Q767 -395 737 -395 Q615 -395 557.5 -351.5 Q500 -308 500 -215 Q500 -167 526.5 -114.5 Q553 -62 608 0 Z " />
<glyph glyph-name="Idot" unicode="&#x130;" horiz-adv-x="1233" d="M513 1872 L718 1872 L718 1667 L513 1667 L513 1872 Z M201 1493 L1030 1493 L1030 1323 L717 1323 L717 170 L1030 170 L1030 0 L201 0 L201 170 L514 170 L514 1323 L201 1323 L201 1493 Z " />
<glyph glyph-name="dotlessi" unicode="&#x131;" horiz-adv-x="1233" d="M256 1120 L727 1120 L727 143 L1092 143 L1092 0 L178 0 L178 143 L543 143 L543 977 L256 977 L256 1120 Z " />
<glyph glyph-name="IJ" unicode="&#x132;" horiz-adv-x="1233" d="M652 64 L652 300 Q713 219 779 178.5 Q845 138 916 138 Q1013 138 1052 212 Q1090 287 1090 490 L1090 1326 L831 1326 L831 1496 L1228 1496 L1228 490 Q1228 208 1156 91 Q1084 -26 916 -26 Q851 -26 786 -4 Q722 18 652 64 Z M-1 1493 L604 1493 L604 1323 L376 1323 L376 170 L604 170 L604 0 L-1 0 L-1 170 L227 170 L227 1323 L-1 1323 L-1 1493 Z " />
<glyph glyph-name="ij" unicode="&#x133;" horiz-adv-x="1233" d="M978 -31 L978 966 L661 966 L661 1109 L1162 1109 L1162 -31 Q1162 -226 1072.5 -331.5 Q983 -437 818 -437 L564 -437 L564 -281 L798 -281 Q888 -281 933 -218.5 Q978 -156 978 -31 Z M978 1545 L1162 1545 L1162 1312 L978 1312 L978 1545 Z M59 1120 L445 1120 L445 143 L745 143 L745 0 L-5 0 L-5 143 L294 143 L294 977 L59 977 L59 1120 Z M294 1556 L445 1556 L445 1323 L294 1323 L294 1556 Z " />
<glyph glyph-name="Jcircumflex" unicode="&#x134;" horiz-adv-x="1233" d="M570 1901 L759 1901 L970 1635 L830 1635 L664 1813 L499 1635 L359 1635 L570 1901 Z M109 61 L109 297 Q200 216 297 175.5 Q394 135 498 135 Q641 135 697.5 209.5 Q754 284 754 487 L754 1323 L373 1323 L373 1493 L956 1493 L956 487 Q956 205 850.5 88 Q745 -29 498 -29 Q402 -29 307 -7 Q212 15 109 61 Z " />
<glyph glyph-name="jcircumflex" unicode="&#x135;" horiz-adv-x="1233" d="M543 1638 L690 1638 L936 1262 L797 1262 L616 1507 L436 1262 L297 1262 L543 1638 Z M600 -20 L600 977 L283 977 L283 1120 L784 1120 L784 -20 Q784 -215 694.5 -320.5 Q605 -426 440 -426 L186 -426 L186 -270 L420 -270 Q510 -270 555 -207.5 Q600 -145 600 -20 Z " />
<glyph glyph-name="Kcommaaccent" unicode="&#x136;" horiz-adv-x="1233" d="M608 -198 L847 -198 L660 -543 L514 -543 L608 -198 Z M137 1493 L340 1493 L340 829 L971 1493 L1208 1493 L627 883 L1225 0 L981 0 L494 748 L340 584 L340 0 L137 0 L137 1493 Z " />
<glyph glyph-name="kcommaaccent" unicode="&#x137;" horiz-adv-x="1233" d="M646 -198 L885 -198 L698 -543 L552 -543 L646 -198 Z M236 1556 L426 1556 L426 655 L909 1120 L1133 1120 L692 698 L1202 0 L977 0 L563 578 L426 449 L426 0 L236 0 L236 1556 Z " />
<glyph glyph-name="kgreenlandic" unicode="&#x138;" horiz-adv-x="1233" d="M236 1120 L426 1120 L426 655 L909 1120 L1133 1120 L692 698 L1202 0 L977 0 L563 578 L426 449 L426 0 L236 0 L236 1120 Z " />
<glyph glyph-name="Lacute" unicode="&#x139;" horiz-adv-x="1233" d="M398 1900 L584 1900 L355 1636 L201 1636 L398 1900 Z M215 1493 L418 1493 L418 170 L1139 170 L1139 0 L215 0 L215 1493 Z " />
<glyph glyph-name="lacute" unicode="&#x13a;" horiz-adv-x="1233" d="M578 1900 L764 1900 L535 1636 L381 1636 L578 1900 Z M719 405 Q719 281 764.5 218 Q810 155 899 155 L1114 155 L1114 0 L881 0 Q716 0 625.5 105.5 Q535 211 535 405 L535 1418 L240 1418 L240 1562 L719 1562 L719 405 Z " />
<glyph glyph-name="Lcommaaccent" unicode="&#x13b;" horiz-adv-x="1233" d="M604 -198 L843 -198 L656 -543 L510 -543 L604 -198 Z M215 1493 L418 1493 L418 170 L1139 170 L1139 0 L215 0 L215 1493 Z " />
<glyph glyph-name="lcommaaccent" unicode="&#x13c;" horiz-adv-x="1233" d="M498 -198 L737 -198 L550 -543 L404 -543 L498 -198 Z M719 405 Q719 281 764.5 218 Q810 155 899 155 L1114 155 L1114 0 L881 0 Q716 0 625.5 105.5 Q535 211 535 405 L535 1418 L240 1418 L240 1562 L719 1562 L719 405 Z " />
<glyph glyph-name="Lcaron" unicode="&#x13d;" horiz-adv-x="1233" d="M718 1492 L916 1492 L803 1116 L649 1116 L718 1492 Z M215 1493 L418 1493 L418 170 L1139 170 L1139 0 L215 0 L215 1493 Z " />
<glyph glyph-name="lcaron" unicode="&#x13e;" horiz-adv-x="1233" d="M960 1568 L1158 1568 L1045 1192 L891 1192 L960 1568 Z M719 405 Q719 281 764.5 218 Q810 155 899 155 L1114 155 L1114 0 L881 0 Q716 0 625.5 105.5 Q535 211 535 405 L535 1418 L240 1418 L240 1562 L719 1562 L719 405 Z " />
<glyph glyph-name="Ldot" unicode="&#x13f;" horiz-adv-x="1233" d="M841 998 L1093 998 L1093 693 L841 693 L841 998 Z M215 1493 L418 1493 L418 170 L1139 170 L1139 0 L215 0 L215 1493 Z " />
<glyph glyph-name="ldot" unicode="&#x140;" horiz-adv-x="1233" d="M960 1008 L1212 1008 L1212 703 L960 703 L960 1008 Z M719 405 Q719 281 764.5 218 Q810 155 899 155 L1114 155 L1114 0 L881 0 Q716 0 625.5 105.5 Q535 211 535 405 L535 1418 L240 1418 L240 1562 L719 1562 L719 405 Z " />
<glyph glyph-name="Lslash" unicode="&#x141;" horiz-adv-x="1233" d="M215 1493 L418 1493 L418 877 L733 1096 L811 985 L418 711 L418 170 L1139 170 L1139 0 L215 0 L215 571 L70 465 L-10 575 L215 733 L215 1493 Z " />
<glyph glyph-name="lslash" unicode="&#x142;" horiz-adv-x="1233" d="M639 406 Q639 282 684.5 219 Q730 156 819 156 L1034 156 L1034 0 L801 0 Q636 0 545.5 106 Q455 212 455 406 L455 698 L156 489 L76 600 L455 864 L455 1423 L160 1423 L160 1567 L639 1567 L639 989 L954 1208 L1034 1098 L639 823 L639 406 Z " />
<glyph glyph-name="Nacute" unicode="&#x143;" horiz-adv-x="1233" d="M705 1899 L891 1899 L662 1635 L508 1635 L705 1899 Z M19 1488 L295 1488 L879 263 L879 1488 L1094 1488 L1094 0 L818 0 L234 1225 L234 0 L19 0 L19 1488 Z " />
<glyph glyph-name="nacute" unicode="&#x144;" horiz-adv-x="1233" d="M776 1645 L974 1645 L649 1269 L495 1269 L776 1645 Z M1051 694 L1051 0 L866 0 L866 694 Q866 845 813 916 Q760 987 647 987 Q518 987 448.5 895.5 Q379 804 379 633 L379 0 L195 0 L195 1120 L379 1120 L379 952 Q428 1048 512 1097.5 Q596 1147 711 1147 Q882 1147 966.5 1034.5 Q1051 922 1051 694 Z " />
<glyph glyph-name="Ncommaaccent" unicode="&#x145;" horiz-adv-x="1233" d="M544 -198 L783 -198 L596 -543 L450 -543 L544 -198 Z M19 1488 L295 1488 L879 263 L879 1488 L1094 1488 L1094 0 L818 0 L234 1225 L234 0 L19 0 L19 1488 Z " />
<glyph glyph-name="ncommaaccent" unicode="&#x146;" horiz-adv-x="1233" d="M550 -198 L789 -198 L602 -543 L456 -543 L550 -198 Z M1051 694 L1051 0 L866 0 L866 694 Q866 845 813 916 Q760 987 647 987 Q518 987 448.5 895.5 Q379 804 379 633 L379 0 L195 0 L195 1120 L379 1120 L379 952 Q428 1048 512 1097.5 Q596 1147 711 1147 Q882 1147 966.5 1034.5 Q1051 922 1051 694 Z " />
<glyph glyph-name="Ncaron" unicode="&#x147;" horiz-adv-x="1233" d="M19 1488 L295 1488 L879 263 L879 1488 L1094 1488 L1094 0 L818 0 L234 1225 L234 0 L19 0 L19 1488 Z M564 1635 L353 1901 L493 1901 L658 1723 L824 1901 L964 1901 L753 1635 L564 1635 Z " />
<glyph glyph-name="ncaron" unicode="&#x148;" horiz-adv-x="1233" d="M1051 694 L1051 0 L866 0 L866 694 Q866 845 813 916 Q760 987 647 987 Q518 987 448.5 895.5 Q379 804 379 633 L379 0 L195 0 L195 1120 L379 1120 L379 952 Q428 1048 512 1097.5 Q596 1147 711 1147 Q882 1147 966.5 1034.5 Q1051 922 1051 694 Z M532 1262 L286 1638 L425 1638 L605 1393 L786 1638 L925 1638 L679 1262 L532 1262 Z " />
<glyph glyph-name="napostrophe" unicode="&#x149;" horiz-adv-x="1233" d="M1174 694 L1174 0 L989 0 L989 694 Q989 845 936 916 Q883 987 770 987 Q641 987 571.5 895.5 Q502 804 502 633 L502 0 L318 0 L318 1120 L502 1120 L502 952 Q551 1048 635 1097.5 Q719 1147 834 1147 Q1005 1147 1089.5 1034.5 Q1174 922 1174 694 Z M123 1556 L375 1556 L375 1350 L178 967 L25 967 L123 1350 L123 1556 Z " />
<glyph glyph-name="Eng" unicode="&#x14a;" horiz-adv-x="1233" d="M1085 999 L1085 -20 Q1085 -215 996 -320 Q906 -426 741 -426 L536 -426 L536 -270 L703 -270 Q793 -270 838 -208 Q882 -146 882 0 L882 1009 Q882 1189 824 1273.5 Q766 1358 642 1358 Q501 1358 425 1249 Q349 1140 349 937 L349 0 L147 0 L147 1493 L349 1493 L349 1295 Q403 1406 495 1464 Q587 1522 713 1522 Q900 1522 992.5 1391.5 Q1085 1261 1085 999 Z " />
<glyph glyph-name="eng" unicode="&#x14b;" horiz-adv-x="1233" d="M1051 694 L1051 -20 Q1051 -215 962 -320 Q872 -426 707 -426 L502 -426 L502 -270 L687 -270 Q777 -270 822 -208 Q866 -146 866 -20 L866 694 Q866 845 813 916 Q760 987 647 987 Q518 987 448 896 Q379 804 379 633 L379 0 L195 0 L195 1120 L379 1120 L379 952 Q428 1048 512 1098 Q596 1147 711 1147 Q882 1147 966 1034 Q1051 922 1051 694 Z " />
<glyph glyph-name="Omacron" unicode="&#x14c;" horiz-adv-x="1233" d="M317 1840 L915 1840 L915 1692 L317 1692 L317 1840 Z M905 745 Q905 1074 837.5 1215 Q770 1356 616 1356 Q463 1356 395.5 1215 Q328 1074 328 745 Q328 417 395.5 276 Q463 135 616 135 Q770 135 837.5 275.5 Q905 416 905 745 Z M1116 745 Q1116 355 992.5 163 Q869 -29 616 -29 Q363 -29 240 162 Q117 353 117 745 Q117 1136 240.5 1328 Q364 1520 616 1520 Q869 1520 992.5 1328 Q1116 1136 1116 745 Z " />
<glyph glyph-name="omacron" unicode="&#x14d;" horiz-adv-x="1233" d="M317 1526 L915 1526 L915 1378 L317 1378 L317 1526 Z M616 991 Q476 991 404 882 Q332 773 332 559 Q332 346 404 236.5 Q476 127 616 127 Q757 127 829 236.5 Q901 346 901 559 Q901 773 829 882 Q757 991 616 991 Z M616 1147 Q849 1147 972.5 996 Q1096 845 1096 559 Q1096 272 973 121.5 Q850 -29 616 -29 Q383 -29 260 121.5 Q137 272 137 559 Q137 845 260 996 Q383 1147 616 1147 Z " />
<glyph glyph-name="Obreve" unicode="&#x14e;" horiz-adv-x="1233" d="M303 1901 L422 1901 Q434 1847 484 1818.5 Q534 1790 616 1790 Q699 1790 747.5 1817.5 Q796 1845 811 1901 L930 1901 Q919 1782 839.5 1720.5 Q760 1659 616 1659 Q472 1659 393 1720 Q314 1781 303 1901 Z M905 745 Q905 1074 837.5 1215 Q770 1356 616 1356 Q463 1356 395.5 1215 Q328 1074 328 745 Q328 417 395.5 276 Q463 135 616 135 Q770 135 837.5 275.5 Q905 416 905 745 Z M1116 745 Q1116 355 992.5 163 Q869 -29 616 -29 Q363 -29 240 162 Q117 353 117 745 Q117 1136 240.5 1328 Q364 1520 616 1520 Q869 1520 992.5 1328 Q1116 1136 1116 745 Z " />
<glyph glyph-name="obreve" unicode="&#x14f;" horiz-adv-x="1233" d="M303 1608 L422 1608 Q433 1532 481 1495 Q529 1458 616 1458 Q701 1458 749 1495 Q797 1532 811 1608 L930 1608 Q919 1465 840 1393 Q761 1321 616 1321 Q472 1321 393 1393 Q314 1465 303 1608 Z M616 991 Q476 991 404 882 Q332 773 332 559 Q332 346 404 236.5 Q476 127 616 127 Q757 127 829 236.5 Q901 346 901 559 Q901 773 829 882 Q757 991 616 991 Z M616 1147 Q849 1147 972.5 996 Q1096 845 1096 559 Q1096 272 973 121.5 Q850 -29 616 -29 Q383 -29 260 121.5 Q137 272 137 559 Q137 845 260 996 Q383 1147 616 1147 Z " />
<glyph glyph-name="Ohungarumlaut" unicode="&#x150;" horiz-adv-x="1233" d="M860 1899 L1046 1899 L817 1635 L663 1635 L860 1899 Z M541 1899 L727 1899 L498 1635 L344 1635 L541 1899 Z M905 745 Q905 1074 837.5 1215 Q770 1356 616 1356 Q463 1356 395.5 1215 Q328 1074 328 745 Q328 417 395.5 276 Q463 135 616 135 Q770 135 837.5 275.5 Q905 416 905 745 Z M1116 745 Q1116 355 992.5 163 Q869 -29 616 -29 Q363 -29 240 162 Q117 353 117 745 Q117 1136 240.5 1328 Q364 1520 616 1520 Q869 1520 992.5 1328 Q1116 1136 1116 745 Z " />
<glyph glyph-name="ohungarumlaut" unicode="&#x151;" horiz-adv-x="1233" d="M535 1638 L705 1638 L481 1262 L344 1262 L535 1638 Z M868 1638 L1047 1638 L799 1262 L664 1262 L868 1638 Z M616 991 Q476 991 404 882 Q332 773 332 559 Q332 346 404 236.5 Q476 127 616 127 Q757 127 829 236.5 Q901 346 901 559 Q901 773 829 882 Q757 991 616 991 Z M616 1147 Q849 1147 972.5 996 Q1096 845 1096 559 Q1096 272 973 121.5 Q850 -29 616 -29 Q383 -29 260 121.5 Q137 272 137 559 Q137 845 260 996 Q383 1147 616 1147 Z " />
<glyph glyph-name="OE" unicode="&#x152;" horiz-adv-x="1233" d="M1217 170 L1217 0 L612 0 Q317 0 194.5 166.5 Q72 333 72 745 Q72 1162 194 1327.5 Q316 1493 612 1493 L1206 1493 L1206 1323 L848 1323 L848 881 L1176 881 L1176 711 L848 711 L848 170 L1217 170 Z M590 1323 Q413 1323 343.5 1208 Q274 1093 274 745 Q274 399 343.5 284.5 Q413 170 590 170 L651 170 L651 1323 L590 1323 Z " />
<glyph glyph-name="oe" unicode="&#x153;" horiz-adv-x="1233" d="M1047 657 Q1047 668 1048 687 Q1049 706 1049 715 Q1049 860 1009 927.5 Q969 995 883 995 Q796 995 757.5 926.5 Q719 858 719 700 L719 657 L1047 657 Z M373 123 Q475 123 516 207 Q557 291 557 530 Q557 821 517 908 Q477 995 373 995 Q270 995 230 911.5 Q190 828 190 559 Q190 290 230 206.5 Q270 123 373 123 Z M1210 514 L719 514 L719 430 Q719 267 768.5 195 Q818 123 930 123 Q1010 123 1075.5 149.5 Q1141 176 1188 227 L1188 55 Q1129 12 1066.5 -8.5 Q1004 -29 930 -29 Q832 -29 758.5 4.5 Q685 38 637 104 Q585 36 521 3.5 Q457 -29 373 -29 Q184 -29 99 109 Q14 247 14 559 Q14 871 99 1009 Q184 1147 373 1147 Q462 1147 526 1116 Q590 1085 637 1020 Q674 1082 739 1114.5 Q804 1147 891 1147 Q1066 1147 1138 1028.5 Q1210 910 1210 604 L1210 514 Z " />
<glyph glyph-name="Racute" unicode="&#x154;" horiz-adv-x="1233" d="M598 1899 L784 1899 L555 1635 L401 1635 L598 1899 Z M760 705 Q838 685 893 629.5 Q948 574 1030 408 L1233 0 L1016 0 L838 377 Q761 538 699.5 584.5 Q638 631 539 631 L346 631 L346 0 L143 0 L143 1493 L559 1493 Q805 1493 936 1382 Q1067 1271 1067 1061 Q1067 913 986.5 819.5 Q906 726 760 705 Z M346 1327 L346 797 L567 797 Q712 797 783 862 Q854 927 854 1061 Q854 1190 778.5 1258.5 Q703 1327 559 1327 L346 1327 Z " />
<glyph glyph-name="racute" unicode="&#x155;" horiz-adv-x="1233" d="M962 1645 L1160 1645 L835 1269 L681 1269 L962 1645 Z M1155 889 Q1096 935 1035 956 Q974 977 901 977 Q729 977 638 869 Q547 761 547 557 L547 0 L362 0 L362 1120 L547 1120 L547 901 Q593 1020 688.5 1083.5 Q784 1147 915 1147 Q983 1147 1042 1130 Q1101 1113 1155 1077 L1155 889 Z " />
<glyph glyph-name="Rcommaaccent" unicode="&#x156;" horiz-adv-x="1233" d="M616 -198 L855 -198 L668 -543 L522 -543 L616 -198 Z M760 705 Q838 685 893 629.5 Q948 574 1030 408 L1233 0 L1016 0 L838 377 Q761 538 699.5 584.5 Q638 631 539 631 L346 631 L346 0 L143 0 L143 1493 L559 1493 Q805 1493 936 1382 Q1067 1271 1067 1061 Q1067 913 986.5 819.5 Q906 726 760 705 Z M346 1327 L346 797 L567 797 Q712 797 783 862 Q854 927 854 1061 Q854 1190 778.5 1258.5 Q703 1327 559 1327 L346 1327 Z " />
<glyph glyph-name="rcommaaccent" unicode="&#x157;" horiz-adv-x="1233" d="M383 -198 L622 -198 L435 -543 L289 -543 L383 -198 Z M1155 889 Q1096 935 1035 956 Q974 977 901 977 Q729 977 638 869 Q547 761 547 557 L547 0 L362 0 L362 1120 L547 1120 L547 901 Q593 1020 688.5 1083.5 Q784 1147 915 1147 Q983 1147 1042 1130 Q1101 1113 1155 1077 L1155 889 Z " />
<glyph glyph-name="Rcaron" unicode="&#x158;" horiz-adv-x="1233" d="M760 705 Q838 685 893 629.5 Q948 574 1030 408 L1233 0 L1016 0 L838 377 Q761 538 699.5 584.5 Q638 631 539 631 L346 631 L346 0 L143 0 L143 1493 L559 1493 Q805 1493 936 1382 Q1067 1271 1067 1061 Q1067 913 986.5 819.5 Q906 726 760 705 Z M346 1327 L346 797 L567 797 Q712 797 783 862 Q854 927 854 1061 Q854 1190 778.5 1258.5 Q703 1327 559 1327 L346 1327 Z M463 1629 L252 1895 L392 1895 L557 1717 L723 1895 L863 1895 L652 1629 L463 1629 Z " />
<glyph glyph-name="rcaron" unicode="&#x159;" horiz-adv-x="1233" d="M1155 889 Q1096 935 1035 956 Q974 977 901 977 Q729 977 638 869 Q547 761 547 557 L547 0 L362 0 L362 1120 L547 1120 L547 901 Q593 1020 688.5 1083.5 Q784 1147 915 1147 Q983 1147 1042 1130 Q1101 1113 1155 1077 L1155 889 Z M633 1262 L387 1638 L526 1638 L706 1393 L887 1638 L1026 1638 L780 1262 L633 1262 Z " />
<glyph glyph-name="Sacute" unicode="&#x15a;" horiz-adv-x="1233" d="M697 1899 L883 1899 L654 1635 L500 1635 L697 1899 Z M1012 1442 L1012 1237 Q920 1296 827.5 1326 Q735 1356 641 1356 Q498 1356 415 1289.5 Q332 1223 332 1110 Q332 1011 386.5 959 Q441 907 590 872 L696 848 Q906 799 1002 694 Q1098 589 1098 408 Q1098 195 966 83 Q834 -29 582 -29 Q477 -29 371 -6.5 Q265 16 158 61 L158 276 Q273 203 375.5 169 Q478 135 582 135 Q735 135 820 203.5 Q905 272 905 395 Q905 507 846.5 566 Q788 625 643 657 L535 682 Q327 729 233 824 Q139 919 139 1079 Q139 1279 273.5 1399.5 Q408 1520 631 1520 Q717 1520 812 1500.5 Q907 1481 1012 1442 Z " />
<glyph glyph-name="sacute" unicode="&#x15b;" horiz-adv-x="1233" d="M782 1645 L980 1645 L655 1269 L501 1269 L782 1645 Z M973 1081 L973 901 Q894 947 814 970 Q734 993 651 993 Q526 993 464.5 952.5 Q403 912 403 829 Q403 754 449 717 Q495 680 678 645 L752 631 Q889 605 959.5 527 Q1030 449 1030 324 Q1030 158 912 64.5 Q794 -29 584 -29 Q501 -29 410 -11.5 Q319 6 213 41 L213 231 Q316 178 410 151.5 Q504 125 588 125 Q710 125 777 174.5 Q844 224 844 313 Q844 441 599 490 L591 492 L522 506 Q363 537 290 610.5 Q217 684 217 811 Q217 972 326 1059.5 Q435 1147 637 1147 Q727 1147 810 1130.5 Q893 1114 973 1081 Z " />
<glyph glyph-name="Scircumflex" unicode="&#x15c;" horiz-adv-x="1233" d="M522 1901 L711 1901 L922 1635 L782 1635 L616 1813 L451 1635 L311 1635 L522 1901 Z M1012 1442 L1012 1237 Q920 1296 827.5 1326 Q735 1356 641 1356 Q498 1356 415 1289.5 Q332 1223 332 1110 Q332 1011 386.5 959 Q441 907 590 872 L696 848 Q906 799 1002 694 Q1098 589 1098 408 Q1098 195 966 83 Q834 -29 582 -29 Q477 -29 371 -6.5 Q265 16 158 61 L158 276 Q273 203 375.5 169 Q478 135 582 135 Q735 135 820 203.5 Q905 272 905 395 Q905 507 846.5 566 Q788 625 643 657 L535 682 Q327 729 233 824 Q139 919 139 1079 Q139 1279 273.5 1399.5 Q408 1520 631 1520 Q717 1520 812 1500.5 Q907 1481 1012 1442 Z " />
<glyph glyph-name="scircumflex" unicode="&#x15d;" horiz-adv-x="1233" d="M543 1638 L690 1638 L936 1262 L797 1262 L616 1507 L436 1262 L297 1262 L543 1638 Z M973 1081 L973 901 Q894 947 814 970 Q734 993 651 993 Q526 993 464.5 952.5 Q403 912 403 829 Q403 754 449 717 Q495 680 678 645 L752 631 Q889 605 959.5 527 Q1030 449 1030 324 Q1030 158 912 64.5 Q794 -29 584 -29 Q501 -29 410 -11.5 Q319 6 213 41 L213 231 Q316 178 410 151.5 Q504 125 588 125 Q710 125 777 174.5 Q844 224 844 313 Q844 441 599 490 L591 492 L522 506 Q363 537 290 610.5 Q217 684 217 811 Q217 972 326 1059.5 Q435 1147 637 1147 Q727 1147 810 1130.5 Q893 1114 973 1081 Z " />
<glyph glyph-name="Scedilla" unicode="&#x15e;" horiz-adv-x="1233" d="M700 0 Q756 -62 782.5 -114.5 Q809 -167 809 -215 Q809 -304 749 -349.5 Q689 -395 571 -395 Q526 -395 482.5 -389 Q439 -383 395 -371 L395 -240 Q429 -257 466.5 -264.5 Q504 -272 551 -272 Q609 -272 639.5 -248 Q670 -224 670 -178 Q670 -148 648 -104.5 Q626 -61 582 0 L700 0 Z M1012 1442 L1012 1237 Q920 1296 827.5 1326 Q735 1356 641 1356 Q498 1356 415 1289.5 Q332 1223 332 1110 Q332 1011 386.5 959 Q441 907 590 872 L696 848 Q906 799 1002 694 Q1098 589 1098 408 Q1098 195 966 83 Q834 -29 582 -29 Q477 -29 371 -6.5 Q265 16 158 61 L158 276 Q273 203 375.5 169 Q478 135 582 135 Q735 135 820 203.5 Q905 272 905 395 Q905 507 846.5 566 Q788 625 643 657 L535 682 Q327 729 233 824 Q139 919 139 1079 Q139 1279 273.5 1399.5 Q408 1520 631 1520 Q717 1520 812 1500.5 Q907 1481 1012 1442 Z " />
<glyph glyph-name="scedilla" unicode="&#x15f;" horiz-adv-x="1233" d="M700 0 Q756 -62 782.5 -114.5 Q809 -167 809 -215 Q809 -304 749 -349.5 Q689 -395 571 -395 Q526 -395 482.5 -389 Q439 -383 395 -371 L395 -240 Q429 -257 466.5 -264.5 Q504 -272 551 -272 Q609 -272 639.5 -248 Q670 -224 670 -178 Q670 -148 648 -104.5 Q626 -61 582 0 L700 0 Z M973 1081 L973 901 Q894 947 814 970 Q734 993 651 993 Q526 993 464.5 952.5 Q403 912 403 829 Q403 754 449 717 Q495 680 678 645 L752 631 Q889 605 959.5 527 Q1030 449 1030 324 Q1030 158 912 64.5 Q794 -29 584 -29 Q501 -29 410 -11.5 Q319 6 213 41 L213 231 Q316 178 410 151.5 Q504 125 588 125 Q710 125 777 174.5 Q844 224 844 313 Q844 441 599 490 L591 492 L522 506 Q363 537 290 610.5 Q217 684 217 811 Q217 972 326 1059.5 Q435 1147 637 1147 Q727 1147 810 1130.5 Q893 1114 973 1081 Z " />
<glyph glyph-name="Scaron" unicode="&#x160;" horiz-adv-x="1233" d="M1012 1442 L1012 1237 Q920 1296 827.5 1326 Q735 1356 641 1356 Q498 1356 415 1289.5 Q332 1223 332 1110 Q332 1011 386.5 959 Q441 907 590 872 L696 848 Q906 799 1002 694 Q1098 589 1098 408 Q1098 195 966 83 Q834 -29 582 -29 Q477 -29 371 -6.5 Q265 16 158 61 L158 276 Q273 203 375.5 169 Q478 135 582 135 Q735 135 820 203.5 Q905 272 905 395 Q905 507 846.5 566 Q788 625 643 657 L535 682 Q327 729 233 824 Q139 919 139 1079 Q139 1279 273.5 1399.5 Q408 1520 631 1520 Q717 1520 812 1500.5 Q907 1481 1012 1442 Z M522 1635 L311 1901 L451 1901 L616 1723 L782 1901 L922 1901 L711 1635 L522 1635 Z " />
<glyph glyph-name="scaron" unicode="&#x161;" horiz-adv-x="1233" d="M973 1081 L973 901 Q894 947 814 970 Q734 993 651 993 Q526 993 464.5 952.5 Q403 912 403 829 Q403 754 449 717 Q495 680 678 645 L752 631 Q889 605 959.5 527 Q1030 449 1030 324 Q1030 158 912 64.5 Q794 -29 584 -29 Q501 -29 410 -11.5 Q319 6 213 41 L213 231 Q316 178 410 151.5 Q504 125 588 125 Q710 125 777 174.5 Q844 224 844 313 Q844 441 599 490 L591 492 L522 506 Q363 537 290 610.5 Q217 684 217 811 Q217 972 326 1059.5 Q435 1147 637 1147 Q727 1147 810 1130.5 Q893 1114 973 1081 Z M543 1262 L297 1638 L436 1638 L616 1393 L797 1638 L936 1638 L690 1262 L543 1262 Z " />
<glyph glyph-name="Tcommaaccent" unicode="&#x162;" horiz-adv-x="1233" d="M700 0 Q756 -62 782.5 -114.5 Q809 -167 809 -215 Q809 -304 749 -349.5 Q689 -395 571 -395 Q526 -395 482.5 -389 Q439 -383 395 -371 L395 -240 Q429 -257 466.5 -264.5 Q504 -272 551 -272 Q609 -272 639.5 -248 Q670 -224 670 -178 Q670 -148 648 -104.5 Q626 -61 582 0 L700 0 Z M47 1493 L1186 1493 L1186 1323 L719 1323 L719 0 L516 0 L516 1323 L47 1323 L47 1493 Z " />
<glyph glyph-name="tcommaaccent" unicode="&#x163;" horiz-adv-x="1233" d="M821 0 Q877 -62 903.5 -114.5 Q930 -167 930 -215 Q930 -304 870 -349.5 Q810 -395 692 -395 Q647 -395 603.5 -389 Q560 -383 516 -371 L516 -240 Q550 -257 587.5 -264.5 Q625 -272 672 -272 Q730 -272 760.5 -248 Q791 -224 791 -178 Q791 -148 769 -104.5 Q747 -61 703 0 L821 0 Z M614 1438 L614 1120 L1032 1120 L1032 977 L614 977 L614 369 Q614 245 661 196 Q708 147 825 147 L1032 147 L1032 0 L807 0 Q600 0 515 83 Q430 166 430 369 L430 977 L131 977 L131 1120 L430 1120 L430 1438 L614 1438 Z " />
<glyph glyph-name="Tcaron" unicode="&#x164;" horiz-adv-x="1233" d="M47 1493 L1186 1493 L1186 1323 L719 1323 L719 0 L516 0 L516 1323 L47 1323 L47 1493 Z M528 1635 L317 1901 L457 1901 L622 1723 L788 1901 L928 1901 L717 1635 L528 1635 Z " />
<glyph glyph-name="tcaron" unicode="&#x165;" horiz-adv-x="1233" d="M614 1438 L614 1120 L1032 1120 L1032 977 L614 977 L614 369 Q614 245 661 196 Q708 147 825 147 L1032 147 L1032 0 L807 0 Q600 0 515 83 Q430 166 430 369 L430 977 L131 977 L131 1120 L430 1120 L430 1438 L614 1438 Z M820 1662 L1018 1662 L905 1286 L751 1286 L820 1662 Z " />
<glyph glyph-name="Tbar" unicode="&#x166;" horiz-adv-x="1233" d="M47 1493 L1186 1493 L1186 1323 L719 1323 L719 747 L984 747 L984 577 L719 577 L719 0 L516 0 L516 577 L251 577 L251 747 L516 747 L516 1323 L47 1323 L47 1493 Z " />
<glyph glyph-name="tbar" unicode="&#x167;" horiz-adv-x="1233" d="M614 1438 L614 1120 L1032 1120 L1032 977 L614 977 L614 744 L843 744 L843 602 L614 602 L614 369 Q614 245 661 196 Q708 147 825 147 L1032 147 L1032 0 L807 0 Q600 0 515 83 Q430 166 430 369 L430 602 L201 602 L201 744 L430 744 L430 977 L131 977 L131 1120 L430 1120 L430 1438 L614 1438 Z " />
<glyph glyph-name="Utilde" unicode="&#x168;" horiz-adv-x="1233" d="M612 1710 L555 1743 Q530 1757 514.5 1762.5 Q499 1768 487 1768 Q452 1768 432 1743 Q412 1718 412 1673 L412 1667 L287 1667 Q287 1768 338.5 1827 Q390 1886 475 1886 Q511 1886 541.5 1878 Q572 1870 621 1843 L678 1813 Q700 1800 717.5 1794 Q735 1788 750 1788 Q781 1788 801 1813.5 Q821 1839 821 1880 L821 1886 L946 1886 Q944 1786 893 1726.5 Q842 1667 758 1667 Q724 1667 694 1675 Q664 1683 612 1710 Z M147 573 L147 1493 L350 1493 L350 481 Q350 372 356 325.5 Q362 279 377 254 Q409 195 469.5 165 Q530 135 616 135 Q703 135 763 165 Q823 195 856 254 Q871 279 877 325 Q883 371 883 479 L883 1493 L1085 1493 L1085 573 Q1085 344 1056.5 247.5 Q1028 151 958 88 Q892 29 807 0 Q722 -29 616 -29 Q511 -29 426 0 Q341 29 274 88 Q205 150 176 248.5 Q147 347 147 573 Z " />
<glyph glyph-name="utilde" unicode="&#x169;" horiz-adv-x="1233" d="M612 1370 L555 1425 Q534 1445 517.5 1454.5 Q501 1464 487 1464 Q449 1464 431 1427 Q413 1390 411 1309 L287 1309 Q288 1443 339 1517 Q390 1591 481 1591 Q520 1591 552 1577 Q584 1563 621 1530 L678 1475 Q699 1455 715.5 1445.5 Q732 1436 745 1436 Q784 1436 802 1473 Q820 1510 821 1591 L946 1591 Q945 1457 894 1383 Q843 1309 752 1309 Q713 1309 681 1323 Q649 1337 612 1370 Z M195 424 L195 1118 L379 1118 L379 424 Q379 273 432.5 202 Q486 131 598 131 Q728 131 797 222.5 Q866 314 866 485 L866 1118 L1051 1118 L1051 0 L866 0 L866 168 Q817 71 732.5 21 Q648 -29 535 -29 Q363 -29 279 83.5 Q195 196 195 424 Z " />
<glyph glyph-name="Umacron" unicode="&#x16a;" horiz-adv-x="1233" d="M317 1840 L915 1840 L915 1692 L317 1692 L317 1840 Z M147 573 L147 1493 L350 1493 L350 481 Q350 372 356 325.5 Q362 279 377 254 Q409 195 469.5 165 Q530 135 616 135 Q703 135 763 165 Q823 195 856 254 Q871 279 877 325 Q883 371 883 479 L883 1493 L1085 1493 L1085 573 Q1085 344 1056.5 247.5 Q1028 151 958 88 Q892 29 807 0 Q722 -29 616 -29 Q511 -29 426 0 Q341 29 274 88 Q205 150 176 248.5 Q147 347 147 573 Z " />
<glyph glyph-name="umacron" unicode="&#x16b;" horiz-adv-x="1233" d="M317 1526 L915 1526 L915 1378 L317 1378 L317 1526 Z M195 424 L195 1118 L379 1118 L379 424 Q379 273 432.5 202 Q486 131 598 131 Q728 131 797 222.5 Q866 314 866 485 L866 1118 L1051 1118 L1051 0 L866 0 L866 168 Q817 71 732.5 21 Q648 -29 535 -29 Q363 -29 279 83.5 Q195 196 195 424 Z " />
<glyph glyph-name="Ubreve" unicode="&#x16c;" horiz-adv-x="1233" d="M303 1901 L422 1901 Q434 1847 484 1818.5 Q534 1790 616 1790 Q699 1790 747.5 1817.5 Q796 1845 811 1901 L930 1901 Q919 1782 839.5 1720.5 Q760 1659 616 1659 Q472 1659 393 1720 Q314 1781 303 1901 Z M147 573 L147 1493 L350 1493 L350 481 Q350 372 356 325.5 Q362 279 377 254 Q409 195 469.5 165 Q530 135 616 135 Q703 135 763 165 Q823 195 856 254 Q871 279 877 325 Q883 371 883 479 L883 1493 L1085 1493 L1085 573 Q1085 344 1056.5 247.5 Q1028 151 958 88 Q892 29 807 0 Q722 -29 616 -29 Q511 -29 426 0 Q341 29 274 88 Q205 150 176 248.5 Q147 347 147 573 Z " />
<glyph glyph-name="ubreve" unicode="&#x16d;" horiz-adv-x="1233" d="M303 1608 L422 1608 Q433 1532 481 1495 Q529 1458 616 1458 Q701 1458 749 1495 Q797 1532 811 1608 L930 1608 Q919 1465 840 1393 Q761 1321 616 1321 Q472 1321 393 1393 Q314 1465 303 1608 Z M195 424 L195 1118 L379 1118 L379 424 Q379 273 432.5 202 Q486 131 598 131 Q728 131 797 222.5 Q866 314 866 485 L866 1118 L1051 1118 L1051 0 L866 0 L866 168 Q817 71 732.5 21 Q648 -29 535 -29 Q363 -29 279 83.5 Q195 196 195 424 Z " />
<glyph glyph-name="Uring" unicode="&#x16e;" horiz-adv-x="1233" d="M147 573 L147 1493 L350 1493 L350 481 Q350 372 356 325.5 Q362 279 377 254 Q409 195 469.5 165 Q530 135 616 135 Q703 135 763 165 Q823 195 856 254 Q871 279 877 325 Q883 371 883 479 L883 1493 L1085 1493 L1085 573 Q1085 344 1056.5 247.5 Q1028 151 958 88 Q892 29 807 0 Q722 -29 616 -29 Q511 -29 426 0 Q341 29 274 88 Q205 150 176 248.5 Q147 347 147 573 Z M901 1859 Q901 1744 821.5 1664 Q742 1584 626 1584 Q511 1584 431.5 1664 Q352 1744 352 1859 Q352 1974 431.5 2053.5 Q511 2133 626 2133 Q742 2133 821.5 2053.5 Q901 1974 901 1859 Z M778 1859 Q778 1922 734 1966 Q690 2010 626 2010 Q562 2010 518.5 1966.5 Q475 1923 475 1859 Q475 1794 518.5 1750.5 Q562 1707 626 1707 Q690 1707 734 1751 Q778 1795 778 1859 Z " />
<glyph glyph-name="uring" unicode="&#x16f;" horiz-adv-x="1233" d="M195 424 L195 1118 L379 1118 L379 424 Q379 273 432.5 202 Q486 131 598 131 Q728 131 797 222.5 Q866 314 866 485 L866 1118 L1051 1118 L1051 0 L866 0 L866 168 Q817 71 732.5 21 Q648 -29 535 -29 Q363 -29 279 83.5 Q195 196 195 424 Z M906 1480 Q906 1365 826.5 1285 Q747 1205 631 1205 Q516 1205 436.5 1285 Q357 1365 357 1480 Q357 1595 436.5 1674.5 Q516 1754 631 1754 Q747 1754 826.5 1674.5 Q906 1595 906 1480 Z M783 1480 Q783 1543 739 1587 Q695 1631 631 1631 Q567 1631 523.5 1587.5 Q480 1544 480 1480 Q480 1415 523.5 1371.5 Q567 1328 631 1328 Q695 1328 739 1372 Q783 1416 783 1480 Z " />
<glyph glyph-name="Uhungarumlaut" unicode="&#x170;" horiz-adv-x="1233" d="M860 1899 L1046 1899 L817 1635 L663 1635 L860 1899 Z M541 1899 L727 1899 L498 1635 L344 1635 L541 1899 Z M147 573 L147 1493 L350 1493 L350 481 Q350 372 356 325.5 Q362 279 377 254 Q409 195 469.5 165 Q530 135 616 135 Q703 135 763 165 Q823 195 856 254 Q871 279 877 325 Q883 371 883 479 L883 1493 L1085 1493 L1085 573 Q1085 344 1056.5 247.5 Q1028 151 958 88 Q892 29 807 0 Q722 -29 616 -29 Q511 -29 426 0 Q341 29 274 88 Q205 150 176 248.5 Q147 347 147 573 Z " />
<glyph glyph-name="uhungarumlaut" unicode="&#x171;" horiz-adv-x="1233" d="M535 1638 L705 1638 L481 1262 L344 1262 L535 1638 Z M868 1638 L1047 1638 L799 1262 L664 1262 L868 1638 Z M195 424 L195 1118 L379 1118 L379 424 Q379 273 432.5 202 Q486 131 598 131 Q728 131 797 222.5 Q866 314 866 485 L866 1118 L1051 1118 L1051 0 L866 0 L866 168 Q817 71 732.5 21 Q648 -29 535 -29 Q363 -29 279 83.5 Q195 196 195 424 Z " />
<glyph glyph-name="Uogonek" unicode="&#x172;" horiz-adv-x="1233" d="M147 573 L147 1493 L350 1493 L350 481 Q350 372 356 325.5 Q362 279 377 254 Q409 195 469.5 165 Q530 135 616 135 Q703 135 763 165 Q823 195 856 254 Q871 279 877 325 Q883 371 883 479 L883 1493 L1085 1493 L1085 573 Q1085 344 1056.5 247.5 Q1028 151 958 88 Q892 29 807 0 Q722 -29 616 -29 Q511 -29 426 0 Q341 29 274 88 Q205 150 176 248.5 Q147 347 147 573 Z M556 -15 L675 -15 Q630 -76 608.5 -120 Q587 -164 587 -195 Q587 -241 614.5 -264 Q642 -287 696 -287 Q728 -287 759 -279.5 Q790 -272 821 -257 L821 -390 Q783 -400 749 -405 Q715 -410 685 -410 Q563 -410 505.5 -366.5 Q448 -323 448 -230 Q448 -182 474.5 -129.5 Q501 -77 556 -15 Z " />
<glyph glyph-name="uogonek" unicode="&#x173;" horiz-adv-x="1233" d="M195 424 L195 1118 L379 1118 L379 424 Q379 273 432.5 202 Q486 131 598 131 Q728 131 797 222.5 Q866 314 866 485 L866 1118 L1051 1118 L1051 0 L866 0 L866 168 Q817 71 732.5 21 Q648 -29 535 -29 Q363 -29 279 83.5 Q195 196 195 424 Z M935 0 L1054 0 Q1009 -61 987.5 -105 Q966 -149 966 -180 Q966 -226 993.5 -249 Q1021 -272 1075 -272 Q1107 -272 1138 -264.5 Q1169 -257 1200 -242 L1200 -375 Q1162 -385 1128 -390 Q1094 -395 1064 -395 Q942 -395 884.5 -351.5 Q827 -308 827 -215 Q827 -167 853.5 -114.5 Q880 -62 935 0 Z " />
<glyph glyph-name="Wcircumflex" unicode="&#x174;" horiz-adv-x="1233" d="M522 1908 L711 1908 L922 1642 L782 1642 L616 1820 L451 1642 L311 1642 L522 1908 Z M0 1493 L197 1493 L340 281 L510 1083 L721 1083 L893 279 L1036 1493 L1233 1493 L1010 0 L819 0 L616 887 L414 0 L223 0 L0 1493 Z " />
<glyph glyph-name="wcircumflex" unicode="&#x175;" horiz-adv-x="1233" d="M543 1645 L690 1645 L936 1269 L797 1269 L616 1514 L436 1269 L297 1269 L543 1645 Z M0 1120 L182 1120 L377 215 L537 793 L694 793 L856 215 L1051 1120 L1233 1120 L971 0 L795 0 L616 614 L438 0 L262 0 L0 1120 Z " />
<glyph glyph-name="Ycircumflex" unicode="&#x176;" horiz-adv-x="1233" d="M522 1908 L711 1908 L922 1642 L782 1642 L616 1820 L451 1642 L311 1642 L522 1908 Z M37 1493 L252 1493 L616 834 L979 1493 L1196 1493 L717 670 L717 0 L514 0 L514 670 L37 1493 Z " />
<glyph glyph-name="ycircumflex" unicode="&#x177;" horiz-adv-x="1233" d="M555 1645 L702 1645 L948 1269 L809 1269 L628 1514 L448 1269 L309 1269 L555 1645 Z M858 360 Q812 243 741 52 Q642 -212 608 -270 Q562 -348 493 -387 Q424 -426 332 -426 L184 -426 L184 -272 L293 -272 Q374 -272 420 -225 Q466 -178 537 18 L104 1120 L299 1120 L631 244 L958 1120 L1153 1120 L858 360 Z " />
<glyph glyph-name="Ydieresis" unicode="&#x178;" horiz-adv-x="1233" d="M37 1493 L252 1493 L616 834 L979 1493 L1196 1493 L717 670 L717 0 L514 0 L514 670 L37 1493 Z M319 1870 L522 1870 L522 1667 L319 1667 L319 1870 Z M711 1870 L913 1870 L913 1667 L711 1667 L711 1870 Z " />
<glyph glyph-name="Zacute" unicode="&#x179;" horiz-adv-x="1233" d="M699 1899 L885 1899 L656 1635 L502 1635 L699 1899 Z M178 1493 L1147 1493 L1147 1339 L367 170 L1169 170 L1169 0 L156 0 L156 154 L915 1323 L178 1323 L178 1493 Z " />
<glyph glyph-name="zacute" unicode="&#x17a;" horiz-adv-x="1233" d="M842 1645 L1040 1645 L715 1269 L561 1269 L842 1645 Z M227 1122 L1040 1122 L1040 954 L397 150 L1040 150 L1040 0 L203 0 L203 170 L846 975 L227 975 L227 1122 Z " />
<glyph glyph-name="Zdotaccent" unicode="&#x17b;" horiz-adv-x="1233" d="M563 1872 L768 1872 L768 1667 L563 1667 L563 1872 Z M178 1493 L1147 1493 L1147 1339 L367 170 L1169 170 L1169 0 L156 0 L156 154 L915 1323 L178 1323 L178 1493 Z " />
<glyph glyph-name="zdotaccent" unicode="&#x17c;" horiz-adv-x="1233" d="M513 1552 L718 1552 L718 1348 L513 1348 L513 1552 Z M227 1122 L1040 1122 L1040 954 L397 150 L1040 150 L1040 0 L203 0 L203 170 L846 975 L227 975 L227 1122 Z " />
<glyph glyph-name="Zcaron" unicode="&#x17d;" horiz-adv-x="1233" d="M178 1493 L1147 1493 L1147 1339 L367 170 L1169 170 L1169 0 L156 0 L156 154 L915 1323 L178 1323 L178 1493 Z M522 1635 L311 1901 L451 1901 L616 1723 L782 1901 L922 1901 L711 1635 L522 1635 Z " />
<glyph glyph-name="zcaron" unicode="&#x17e;" horiz-adv-x="1233" d="M227 1122 L1040 1122 L1040 954 L397 150 L1040 150 L1040 0 L203 0 L203 170 L846 975 L227 975 L227 1122 Z M543 1262 L297 1638 L436 1638 L616 1393 L797 1638 L936 1638 L690 1262 L543 1262 Z " />
<glyph glyph-name="longs" unicode="&#x17f;" horiz-adv-x="1233" d="M678 1219 L678 0 L494 0 L494 977 L195 977 L195 1120 L494 1120 L494 1198 Q494 1382 578.5 1469 Q663 1556 842 1556 L1063 1556 L1063 1403 L854 1403 Q755 1403 716.5 1362.5 Q678 1322 678 1219 Z " />
<glyph glyph-name="uni0180" unicode="&#x180;" horiz-adv-x="1233" d="M377 977 Q421 1059 498.5 1103 Q576 1147 678 1147 Q880 1147 996 991.5 Q1112 836 1112 563 Q1112 286 995.5 128.5 Q879 -29 676 -29 Q576 -29 499.5 14.5 Q423 58 377 141 L377 0 L193 0 L193 1270 L70 1270 L70 1434 L193 1434 L193 1556 L377 1556 L377 1434 L379 1434 L732 1434 L732 1270 L379 1270 L377 1270 L377 977 Z M850 236 Q918 345 918 559 Q918 773 850 882 Q782 991 649 991 Q515 991 446 881.5 Q377 772 377 559 Q377 347 446 237 Q515 127 649 127 Q782 127 850 236 Z " />
<glyph glyph-name="uni0181" unicode="&#x181;" horiz-adv-x="1233" d="M540 713 L540 166 L660 166 Q836 166 911 227.5 Q986 289 986 430 Q986 576 907 644.5 Q828 713 660 713 L540 713 Z M540 1327 L540 877 L656 877 Q802 877 867.5 933 Q933 989 933 1114 Q933 1227 868.5 1277 Q804 1327 656 1327 L540 1327 Z M338 1493 L660 1493 Q889 1493 1013 1394 Q1137 1295 1137 1114 Q1137 977 1071.5 898 Q1006 819 875 799 Q1022 777 1105.5 673.5 Q1189 570 1189 410 Q1189 207 1056 103.5 Q923 0 660 0 L338 0 L338 1327 Q276 1327 226 1283.5 Q176 1240 176 1128 L176 1079 L20 1079 L20 1149 Q20 1308 104.5 1400.5 Q189 1493 338 1493 Z " />
<glyph glyph-name="uni0182" unicode="&#x182;" horiz-adv-x="1233" d="M369 713 L369 166 L608 166 Q784 166 859 227.5 Q934 289 934 430 Q934 576 855 644.5 Q776 713 608 713 L369 713 Z M1068 1327 L369 1327 L369 877 L604 877 Q983 862 1084 671 Q1137 571 1137 410 Q1137 207 1004 104 Q871 0 608 0 L166 0 L166 1493 L1068 1493 L1068 1327 Z " />
<glyph glyph-name="uni0183" unicode="&#x183;" horiz-adv-x="1233" d="M377 977 Q421 1059 498.5 1103 Q576 1147 678 1147 Q880 1147 996 991.5 Q1112 836 1112 563 Q1112 286 995.5 128.5 Q879 -29 676 -29 Q576 -29 499.5 14.5 Q423 58 377 141 L377 0 L193 0 L193 1556 L945 1556 L945 1372 L377 1372 L377 977 Z M850 236 Q918 345 918 559 Q918 773 850 882 Q782 991 649 991 Q515 991 446 881.5 Q377 772 377 559 Q377 347 446 237 Q515 127 649 127 Q782 127 850 236 Z " />
<glyph glyph-name="uni0184" unicode="&#x184;" horiz-adv-x="1233" d="M417 713 L417 166 L656 166 Q832 166 907 228 Q982 289 982 430 Q982 576 903 644 Q824 713 656 713 L417 713 Z M417 877 L652 877 Q1031 862 1132 671 Q1185 571 1185 410 Q1185 207 1052 104 Q919 0 656 0 L214 0 L214 948 L48 1176 L417 1493 L417 877 Z " />
<glyph glyph-name="uni0185" unicode="&#x185;" horiz-adv-x="1233" d="M910 236 Q978 345 978 559 Q978 773 910 882 Q842 991 710 991 Q576 991 506 882 Q438 772 438 559 Q438 347 506 237 Q576 127 710 127 Q842 127 910 236 Z M438 977 Q482 1059 559 1103 Q636 1147 738 1147 Q940 1147 1056 992 Q1172 836 1172 563 Q1172 286 1056 128 Q940 -29 736 -29 Q636 -29 560 14 Q484 58 438 141 L438 0 L254 0 L254 948 L60 1176 L438 1556 L438 977 Z " />
<glyph glyph-name="uni0186" unicode="&#x186;" horiz-adv-x="1233" d="M139 1438 Q216 1479 297 1499.5 Q378 1520 469 1520 Q754 1520 913.5 1315.5 Q1073 1111 1073 745 Q1073 377 914.5 174 Q756 -29 469 -29 Q378 -29 297 -8.5 Q216 12 139 53 L139 260 Q212 199 296.5 167 Q381 135 469 135 Q666 135 764 287 Q862 439 862 745 Q862 1052 764 1204 Q666 1356 469 1356 Q383 1356 298 1324 Q213 1292 139 1231 L139 1438 Z " />
<glyph glyph-name="uni0187" unicode="&#x187;" horiz-adv-x="1233" d="M994 53 Q917 12 836 -8.5 Q755 -29 664 -29 Q377 -29 218.5 174 Q60 377 60 745 Q60 1043 219.5 1247.5 Q379 1452 664 1452 Q754 1452 833 1432 Q856 1483 898 1533 Q988 1639 1153 1639 L1173 1639 L1173 1483 Q1089 1483 1038 1421 Q994 1368 994 1233 L994 1163 Q920 1224 835 1256 Q750 1288 664 1288 Q467 1288 369 1136 Q271 984 271 745 Q271 439 369 287 Q467 135 664 135 Q752 135 836.5 167 Q921 199 994 260 L994 53 Z " />
<glyph glyph-name="uni0188" unicode="&#x188;" horiz-adv-x="1233" d="M960 57 Q886 14 807.5 -7.5 Q729 -29 647 -29 Q387 -29 240.5 127 Q94 283 94 559 Q94 835 240.5 991 Q387 1147 647 1147 Q717 1147 784 1131 Q803 1245 864 1316 Q954 1422 1119 1422 L1139 1422 L1139 1266 Q1049 1266 1004 1204 Q960 1142 960 1016 L960 868 Q887 933 813.5 962 Q740 991 647 991 Q474 991 381 879 Q288 767 288 559 Q288 352 381.5 239.5 Q475 127 647 127 Q743 127 819 156.5 Q895 186 960 248 L960 57 Z " />
<glyph glyph-name="uni0189" unicode="&#x189;" horiz-adv-x="1233" d="M436 1493 Q778 1493 940 1311 Q1102 1129 1102 745 Q1102 363 939.5 181.5 Q777 0 436 0 L133 0 L133 709 L8 709 L8 858 L133 858 L133 1493 L436 1493 Z M436 166 Q691 166 792 291.5 Q893 417 893 745 Q893 1076 792.5 1201.5 Q692 1327 436 1327 L340 1327 L340 858 L604 858 L604 709 L340 709 L340 166 L436 166 Z " />
<glyph glyph-name="uni018A" unicode="&#x18a;" horiz-adv-x="1233" d="M326 1493 L559 1493 Q901 1493 1063 1311 Q1225 1129 1225 745 Q1225 363 1063 181.5 Q901 0 559 0 L326 0 L326 1327 Q272 1327 212 1280 Q164 1242 164 1128 L164 1079 L8 1079 L8 1149 Q8 1330 104 1411.5 Q200 1493 326 1493 Z M555 166 Q810 166 911 291.5 Q1012 417 1012 745 Q1012 1076 911.5 1201.5 Q811 1327 555 1327 L529 1327 L529 166 L555 166 Z " />
<glyph glyph-name="uni018B" unicode="&#x18b;" horiz-adv-x="1233" d="M899 713 L660 713 Q492 713 413 644.5 Q334 576 334 430 Q334 289 409 227.5 Q484 166 660 166 L899 166 L899 713 Z M200 1327 L200 1493 L1102 1493 L1102 0 L660 0 Q397 0 264 103.5 Q131 207 131 410 Q131 571 184 671 Q285 862 664 877 L899 877 L899 1327 L200 1327 Z " />
<glyph glyph-name="uni018C" unicode="&#x18c;" horiz-adv-x="1233" d="M419 882 Q351 773 351 559 Q351 345 419 236 Q487 127 620 127 Q754 127 823 237 Q892 347 892 559 Q892 772 823 881.5 Q754 991 620 991 Q487 991 419 882 Z M324 1372 L324 1556 L1076 1556 L1076 0 L892 0 L892 141 Q846 58 769.5 14.5 Q693 -29 593 -29 Q390 -29 273.5 128.5 Q157 286 157 563 Q157 836 273 991.5 Q389 1147 591 1147 Q693 1147 770.5 1103 Q848 1059 892 977 L892 1372 L324 1372 Z " />
<glyph glyph-name="uni018D" unicode="&#x18d;" horiz-adv-x="1233" d="M616 127 Q756 127 828 236 Q900 345 900 559 Q900 772 828 881.5 Q756 991 616 991 Q475 991 403 881.5 Q331 772 331 559 Q331 345 403 236 Q475 127 616 127 Z M898 51 Q917 42 957 2 Q1019 -59 1019 -151 Q1019 -287 901 -369 Q782 -451 585 -451 Q483 -451 433 -439 L282 -403 L282 -230 Q348 -254 418 -269 Q493 -284 566 -284 Q575 -284 585 -284 L617 -283 Q690 -281 750 -238 L789 -210 Q816 -186 816 -140 Q816 -107 803 -88 Q786 -64 745 -43 Q721 -30 616 -29 Q381 -26 260 122 Q136 273 136 559 Q136 846 259 996.5 Q382 1147 616 1147 Q849 1147 972 996.5 Q1095 846 1095 559 Q1095 273 972 122 Q941 84 898 51 Z " />
<glyph glyph-name="uni018E" unicode="&#x18e;" horiz-adv-x="1233" d="M1102 1493 L1102 0 L197 0 L197 170 L900 170 L900 711 L246 711 L246 881 L900 881 L900 1323 L216 1323 L216 1493 L1102 1493 Z " />
<glyph glyph-name="uni018F" unicode="&#x18f;" horiz-adv-x="1233" d="M117 745 L117 828 L904 828 L904 836 Q904 1077 835 1216.5 Q766 1356 616 1356 Q530 1356 445 1324 Q360 1292 286 1231 L286 1438 Q363 1479 444 1499.5 Q525 1520 616 1520 Q869 1520 992.5 1328 Q1116 1136 1116 745 Q1116 355 992.5 163 Q869 -29 616 -29 Q363 -29 240 162 Q117 353 117 745 Z M332 644 Q332 396 402 265.5 Q472 135 620 135 Q768 135 831 262.5 Q894 390 903 644 L332 644 Z " />
<glyph glyph-name="uni0190" unicode="&#x190;" horiz-adv-x="1233" d="M440 799 Q309 833 240.5 914 Q172 995 172 1118 Q172 1299 302.5 1409.5 Q433 1520 651 1520 Q724 1520 818.5 1504 Q913 1488 1034 1456 L1034 1270 Q930 1310 835 1330 Q740 1350 651 1350 Q517 1350 444.5 1288.5 Q372 1227 372 1112 Q372 1003 450 942 Q528 881 667 881 L821 881 L821 715 L667 715 Q515 715 426 638.5 Q337 562 337 432 Q337 291 426 216 Q515 141 681 141 Q779 141 878 167 Q977 193 1079 246 L1079 45 Q976 9 869 -10 Q762 -29 659 -29 Q414 -29 275.5 88.5 Q137 206 137 412 Q137 561 215 660.5 Q293 760 440 799 Z " />
<glyph glyph-name="uni0191" unicode="&#x191;" horiz-adv-x="1233" d="M380 1493 L1170 1493 L1170 1323 L583 1323 L583 883 L1107 883 L1107 713 L583 713 L583 -20 Q583 -215 494 -320 Q404 -426 239 -426 L63 -426 L63 -270 L201 -270 Q291 -270 336 -208 Q380 -146 380 -20 L380 1493 Z " />
<glyph glyph-name="florin" unicode="&#x192;" horiz-adv-x="1233" d="M1063 1556 L1063 1403 L854 1403 L852 1403 Q755 1403 716 1362 Q678 1322 678 1219 L678 1120 L1063 1120 L1063 977 L678 977 L678 -20 Q678 -234 597 -330 Q515 -426 334 -426 L264 -426 L264 -270 L313 -270 Q418 -270 456 -222 Q494 -173 494 -20 L492 977 L195 977 L195 1120 L491 1120 L491 1198 Q491 1378 578 1470 Q615 1509 675 1530 Q745 1556 842 1556 L851 1556 L854 1556 L1063 1556 Z " />
<glyph glyph-name="uni0193" unicode="&#x193;" horiz-adv-x="1233" d="M1054 123 Q972 48 871 9.5 Q770 -29 652 -29 Q368 -29 210 174.5 Q52 378 52 745 Q52 1111 212 1315.5 Q372 1520 656 1520 Q750 1520 836 1494 Q853 1488 870 1482 Q885 1508 906 1533 Q996 1639 1162 1639 L1181 1639 L1181 1483 Q1097 1483 1046 1421 Q1003 1367 1002 1233 L1002 1206 Q922 1283 837 1319.5 Q752 1356 656 1356 Q460 1356 361 1203.5 Q262 1051 262 745 Q262 434 358 284.5 Q454 135 652 135 Q718 135 769 150.5 Q820 166 860 199 L860 600 L644 600 L644 766 L1054 766 L1054 123 Z " />
<glyph glyph-name="uni0194" unicode="&#x194;" horiz-adv-x="1233" d="M730 650 Q1054 201 1054 -194 Q1054 -430 638 -430 Q198 -430 198 -194 Q198 173 492 657 L28 1353 L244 1353 L616 798 L988 1353 L1206 1353 L730 650 Z M600 495 Q402 194 402 -130 Q402 -268 618 -268 Q822 -268 822 -130 Q822 195 600 495 Z " />
<glyph glyph-name="uni0195" unicode="&#x195;" horiz-adv-x="1233" d="M755 694 L755 406 L754 406 Q754 253 788 204 Q826 152 881 156 Q900 158 954 231 Q1001 297 1001 453 L1001 864 L1168 864 L1168 453 Q1168 225 1092 112.5 Q1016 0 862 0 Q735 0 661 96 Q588 192 588 406 L588 694 Q588 845 540.5 916 Q493 987 427 987 Q356 987 293.5 895.5 Q231 804 231 633 L231 0 L65 0 L65 1556 L231 1556 L231 952 Q308 1086 325 1098 Q400 1147 485 1147 Q603 1147 679 1034.5 Q755 922 755 694 Z " />
<glyph glyph-name="uni0196" unicode="&#x196;" horiz-adv-x="1233" d="M514 1323 L201 1323 L201 1493 L1030 1493 L1030 1323 L717 1323 L717 421 Q717 294 761 233 Q806 171 896 171 L1081 171 L1082 0 L865 0 Q695 0 603 106 Q514 208 514 406 L514 1323 Z " />
<glyph glyph-name="uni0197" unicode="&#x197;" horiz-adv-x="1233" d="M201 1493 L1030 1493 L1030 1323 L717 1323 L717 747 L719 747 L984 747 L984 577 L719 577 L717 577 L717 170 L1030 170 L1030 0 L201 0 L201 170 L514 170 L514 577 L251 577 L251 747 L514 747 L514 1323 L201 1323 L201 1493 Z " />
<glyph glyph-name="uni0198" unicode="&#x198;" horiz-adv-x="1233" d="M647 1180 Q808 1350 913 1362 Q934 1365 954 1365 Q1080 1365 1172 1266 L1219 1215 L1113 1101 L1080 1138 Q1035 1189 975 1189 Q958 1189 939 1185 Q873 1170 764 1055 L600 883 L1198 0 L954 0 L467 748 L313 584 L313 0 L110 0 L110 1493 L313 1493 L313 829 L647 1180 Z " />
<glyph glyph-name="uni0199" unicode="&#x199;" horiz-adv-x="1233" d="M236 1002 L236 1150 Q236 1345 325 1450 Q415 1556 580 1556 L785 1556 L785 1400 L600 1400 Q510 1400 465 1338 Q421 1276 421 1150 L426 1150 L426 655 L909 1120 L1133 1120 L692 698 L1202 0 L977 0 L563 578 L426 449 L426 0 L236 0 L236 1002 Z " />
<glyph glyph-name="uni019A" unicode="&#x19a;" horiz-adv-x="1233" d="M639 406 Q639 282 684.5 219 Q730 156 819 156 L1034 156 L1034 0 L801 0 Q636 0 545.5 106 Q455 212 455 406 L455 602 L227 602 L227 744 L455 744 L455 1423 L160 1423 L160 1567 L639 1567 L639 744 L648 744 L869 744 L869 602 L648 602 L639 602 L639 406 Z " />
<glyph glyph-name="uni019B" unicode="&#x19b;" horiz-adv-x="1233" d="M579 1213 L927 1455 L1007 1345 L636 1087 L1133 0 L942 0 L621 704 L291 0 L100 0 L525 913 L491 987 L129 736 L49 847 L434 1113 L260 1493 L451 1493 L579 1213 Z " />
<glyph glyph-name="uni019C" unicode="&#x19c;" horiz-adv-x="1233" d="M568 114 Q534 42 481.5 7.5 Q429 -27 355 -27 Q220 -27 164.5 77.5 Q109 182 109 471 L109 1493 L277 1493 L277 479 Q277 242 303.5 184.5 Q330 127 400 127 Q480 127 509.5 188.5 Q539 250 539 479 L539 1493 L707 1493 L707 479 Q707 239 735.5 183 Q764 127 838 127 Q911 127 939.5 188.5 Q968 250 968 479 L968 1493 L1135 1493 L1135 0 L968 0 L968 96 Q935 36 885.5 4.5 Q836 -27 773 -27 Q697 -27 646.5 8 Q596 43 568 114 Z " />
<glyph glyph-name="uni019D" unicode="&#x19d;" horiz-adv-x="1233" d="M190 1493 L420 1493 L874 264 L874 1493 L1049 1493 L1049 0 L819 0 L366 1229 L366 -20 Q366 -215 285 -320 Q204 -426 56 -426 L29 -426 L29 -270 Q110 -270 150 -208 Q190 -147 190 -20 L190 1493 Z " />
<glyph glyph-name="uni019E" unicode="&#x19e;" horiz-adv-x="1233" d="M1051 694 L1051 -430 L866 -430 L866 694 Q866 845 813 916 Q760 987 647 987 Q518 987 448.5 895.5 Q379 804 379 633 L379 0 L195 0 L195 1120 L379 1120 L379 952 Q428 1048 512 1097.5 Q596 1147 711 1147 Q882 1147 966.5 1034.5 Q1051 922 1051 694 Z " />
<glyph glyph-name="uni019F" unicode="&#x19f;" horiz-adv-x="1233" d="M1116 745 Q1116 355 992.5 163 Q869 -29 616 -29 Q363 -29 240 162 Q117 353 117 745 Q117 1136 240.5 1328 Q364 1520 616 1520 Q869 1520 992.5 1328 Q1116 1136 1116 745 Z M904 828 Q896 1092 838 1215 Q770 1356 616 1356 Q463 1356 396 1215 Q337 1092 329 828 L904 828 Z M330 644 Q339 394 396 276 Q463 135 616 135 Q770 135 838 276 Q894 393 903 644 L330 644 Z " />
<glyph glyph-name="Ohorn" unicode="&#x1a0;" horiz-adv-x="1233" d="M796 1292 L796 1411 Q857 1366 901 1344.5 Q945 1323 976 1323 Q1022 1323 1045 1350.5 Q1068 1378 1068 1432 Q1068 1464 1060.5 1495 Q1053 1526 1038 1557 L1171 1557 Q1181 1519 1186 1485 Q1191 1451 1191 1421 Q1191 1299 1147.5 1241.5 Q1104 1184 1011 1184 Q963 1184 910.5 1210.5 Q858 1237 796 1292 Z M795 745 Q795 1074 727.5 1215 Q660 1356 506 1356 Q353 1356 285.5 1215 Q218 1074 218 745 Q218 417 285.5 276 Q353 135 506 135 Q660 135 727.5 275.5 Q795 416 795 745 Z M1006 745 Q1006 355 882.5 163 Q759 -29 506 -29 Q253 -29 130 162 Q7 353 7 745 Q7 1136 130.5 1328 Q254 1520 506 1520 Q759 1520 882.5 1328 Q1006 1136 1006 745 Z " />
<glyph glyph-name="ohorn" unicode="&#x1a1;" horiz-adv-x="1233" d="M807 872 L807 991 Q868 946 912 924.5 Q956 903 987 903 Q1033 903 1056 930.5 Q1079 958 1079 1012 Q1079 1044 1071.5 1075 Q1064 1106 1049 1137 L1182 1137 Q1192 1099 1197 1065 Q1202 1031 1202 1001 Q1202 879 1158.5 821.5 Q1115 764 1022 764 Q974 764 921.5 790.5 Q869 817 807 872 Z M512 991 Q372 991 300 882 Q228 773 228 559 Q228 346 300 236.5 Q372 127 512 127 Q653 127 725 236.5 Q797 346 797 559 Q797 773 725 882 Q653 991 512 991 Z M512 1147 Q745 1147 868.5 996 Q992 845 992 559 Q992 272 869 121.5 Q746 -29 512 -29 Q279 -29 156 121.5 Q33 272 33 559 Q33 845 156 996 Q279 1147 512 1147 Z " />
<glyph glyph-name="uni01A2" unicode="&#x1a2;" horiz-adv-x="1233" d="M45 745 Q45 1417 379 1506 Q432 1520 494 1520 Q700 1520 811 1362 L958 1493 L1188 1493 L1188 0 L1013 0 L1013 1229 L833 1069 L833 163 Q722 -29 494 -29 Q266 -29 155.5 162 Q45 353 45 745 Z M693 1215 Q632 1356 494 1356 Q356 1356 295.5 1215 Q235 1074 235 745 Q235 417 295.5 276 Q356 135 494 135 Q632 135 693 276 L693 1215 Z " />
<glyph glyph-name="uni01A3" unicode="&#x1a3;" horiz-adv-x="1233" d="M86 559 Q86 995 336 1110 Q416 1147 517 1147 Q727 1147 838 996 L838 953 L964 1063 L1195 1063 L1195 -430 L1019 -430 L1019 799 L838 642 L838 122 Q728 -29 517 -29 Q283 -29 172 159 Q86 305 86 559 Z M262 559 Q262 164 477 130 Q496 127 517 127 Q644 127 709 236 L709 882 Q644 991 517 991 Q311 991 271 705 Q262 639 262 559 Z " />
<glyph glyph-name="uni01A4" unicode="&#x1a4;" horiz-adv-x="1233" d="M1177 1047 Q1177 699 865 622 Q779 600 669 600 L576 600 L576 0 L374 0 L374 1327 Q320 1327 260 1280 Q212 1242 212 1128 L212 1079 L56 1079 L56 1149 Q56 1330 152 1412 Q248 1493 374 1493 L669 1493 Q1076 1493 1158 1201 Q1177 1132 1177 1047 Z M669 766 Q880 766 944 923 Q966 979 966 1047 Q966 1180 888 1253.5 Q810 1327 669 1327 L576 1327 L576 766 L669 766 Z " />
<glyph glyph-name="uni01A5" unicode="&#x1a5;" horiz-adv-x="1233" d="M375 559 Q375 184 584 134 Q613 127 647 127 Q780 127 847.5 236 Q915 345 915 559 Q915 977 664 991 Q655 991 647 991 Q433 991 387 718 Q375 648 375 559 Z M375 977 Q466 1141 660 1147 Q667 1147 674 1147 Q877 1147 992.5 990 Q1108 833 1108 555 Q1108 282 992 126.5 Q876 -29 674 -29 Q572 -29 495.5 14.5 Q419 58 375 141 L375 -426 L190 -426 L190 1026 Q190 1328 393 1407 Q456 1432 534 1432 L739 1432 L739 1276 L554 1276 Q385 1276 376 1055 Q375 1041 375 1026 L375 977 Z " />
<glyph glyph-name="uni01A6" unicode="&#x1a6;" horiz-adv-x="1233" d="M760 441 Q838 421 893 366 Q947 311 1030 144 L1233 -264 L1016 -264 L838 113 Q761 274 699.5 320.5 Q638 367 539 367 L346 367 L346 0 L143 0 L143 1493 L346 1493 L346 1229 L559 1229 Q805 1229 936 1118 Q1067 1007 1067 797 Q1067 649 986.5 555.5 Q906 462 760 441 Z M346 1063 L346 533 L567 533 Q712 533 783 598 Q854 663 854 797 Q854 926 778.5 994.5 Q703 1063 559 1063 L346 1063 Z " />
<glyph glyph-name="uni01A7" unicode="&#x1a7;" horiz-adv-x="1233" d="M225 1442 Q330 1481 425 1500.5 Q520 1520 606 1520 Q829 1520 963.5 1399.5 Q1098 1279 1098 1079 Q1098 919 1004 824 Q910 729 702 682 L594 657 Q449 625 390.5 566 Q332 507 332 395 Q332 272 417 203.5 Q502 135 655 135 Q759 135 861.5 169 Q964 203 1079 276 L1079 61 Q972 16 866 -6.5 Q760 -29 655 -29 Q403 -29 271 83 Q139 195 139 408 Q139 589 235 694 Q331 799 541 848 L647 872 Q796 907 850.5 959 Q905 1011 905 1110 Q905 1223 822 1289.5 Q739 1356 596 1356 Q502 1356 409.5 1326 Q317 1296 225 1237 L225 1442 Z " />
<glyph glyph-name="uni01A8" unicode="&#x1a8;" horiz-adv-x="1233" d="M270 1081 Q350 1114 433 1130.5 Q516 1147 606 1147 Q808 1147 917 1059.5 Q1026 972 1026 811 Q1026 684 953 610.5 Q880 537 721 506 L652 492 L644 490 Q399 441 399 313 Q399 224 466 174.5 Q533 125 655 125 Q739 125 833 151.5 Q927 178 1030 231 L1030 41 Q924 6 833 -11.5 Q742 -29 659 -29 Q449 -29 331 64.5 Q213 158 213 324 Q213 449 283.5 527 Q354 605 491 631 L565 645 Q748 680 794 717 Q840 754 840 829 Q840 912 778.5 952.5 Q717 993 592 993 Q509 993 429 970 Q349 947 270 901 L270 1081 Z " />
<glyph glyph-name="uni01A9" unicode="&#x1a9;" horiz-adv-x="1233" d="M786 747 L331 170 L1133 170 L1133 0 L120 0 L120 170 L574 747 L120 1323 L120 1493 L1133 1493 L1133 1323 L331 1323 L786 747 Z " />
<glyph glyph-name="uni01AA" unicode="&#x1aa;" horiz-adv-x="1233" d="M568 1284 Q561 1329 543 1352 Q510 1400 400 1400 Q276 1400 273 1335 Q270 1284 389 1284 L568 1284 Z M765 1130 L763 -89 Q763 -192 802 -233 Q839 -273 939 -273 L1115 -273 L1115 -426 L941 -426 Q746 -426 665 -340 Q578 -248 578 -68 L578 1130 L388 1130 Q118 1130 118 1340 Q118 1556 421 1556 Q602 1556 684 1460 Q737 1396 755 1285 L946 1285 L946 1130 L765 1130 Z " />
<glyph glyph-name="uni01AB" unicode="&#x1ab;" horiz-adv-x="1233" d="M614 1438 L614 1120 L1032 1120 L1032 977 L614 977 L614 369 Q614 245 661 196 Q708 147 825 147 L1032 147 L1032 0 L1032 -20 Q1032 -215 943 -320 Q853 -426 688 -426 L483 -426 L483 -270 L668 -270 Q758 -270 803 -208 Q847 -146 847 -20 L847 0 L807 0 Q600 0 515 83 Q430 166 430 369 L430 977 L131 977 L131 1120 L430 1120 L430 1438 L614 1438 Z " />
<glyph glyph-name="uni01AC" unicode="&#x1ac;" horiz-adv-x="1233" d="M453 1327 Q322 1335 252 1280 Q203 1242 203 1128 L203 1079 L47 1079 L47 1149 Q47 1330 143 1411.5 Q239 1493 453 1493 L1186 1493 L1186 1323 L719 1323 L719 0 L516 0 L516 1323 L453 1327 Z " />
<glyph glyph-name="uni01AD" unicode="&#x1ad;" horiz-adv-x="1233" d="M614 1120 L1032 1120 L1032 977 L614 977 L614 369 Q614 245 661 196 Q708 147 825 147 L1032 147 L1032 0 L807 0 Q600 0 515 83 Q430 166 430 369 L430 977 L131 977 L131 1120 L429 1120 L429 1150 Q429 1345 518 1450 Q608 1556 773 1556 L978 1556 L978 1400 L793 1400 Q703 1400 658 1338 Q614 1276 614 1150 L614 1120 Z " />
<glyph glyph-name="uni01AE" unicode="&#x1ae;" horiz-adv-x="1233" d="M47 1493 L1186 1493 L1186 1323 L719 1323 L719 -20 Q719 -146 763 -208 Q808 -270 898 -270 L1083 -270 L1083 -426 L860 -426 Q695 -426 605 -320 Q516 -215 516 -20 L516 1323 L47 1323 L47 1493 Z " />
<glyph glyph-name="Uhorn" unicode="&#x1af;" horiz-adv-x="1233" d="M829 1296 L829 1415 Q890 1370 934 1348.5 Q978 1327 1009 1327 Q1055 1327 1078 1354.5 Q1101 1382 1101 1436 Q1101 1468 1093.5 1499 Q1086 1530 1071 1561 L1204 1561 Q1214 1523 1219 1489 Q1224 1455 1224 1425 Q1224 1303 1180.5 1245.5 Q1137 1188 1044 1188 Q996 1188 943.5 1214.5 Q891 1241 829 1296 Z M10 573 L10 1493 L213 1493 L213 481 Q213 372 219 325.5 Q225 279 240 254 Q272 195 332.5 165 Q393 135 479 135 Q566 135 626 165 Q686 195 719 254 Q734 279 740 325 Q746 371 746 479 L746 1493 L948 1493 L948 573 Q948 344 919.5 247.5 Q891 151 821 88 Q755 29 670 0 Q585 -29 479 -29 Q374 -29 289 0 Q204 29 137 88 Q68 150 39 248.5 Q10 347 10 573 Z " />
<glyph glyph-name="uhorn" unicode="&#x1b0;" horiz-adv-x="1233" d="M799 872 L799 991 Q860 946 904 924.5 Q948 903 979 903 Q1025 903 1048 930.5 Q1071 958 1071 1012 Q1071 1044 1063.5 1075 Q1056 1106 1041 1137 L1174 1137 Q1184 1099 1189 1065 Q1194 1031 1194 1001 Q1194 879 1150.5 821.5 Q1107 764 1014 764 Q966 764 913.5 790.5 Q861 817 799 872 Z M40 424 L40 1118 L224 1118 L224 424 Q224 273 277.5 202 Q331 131 443 131 Q573 131 642 222.5 Q711 314 711 485 L711 1118 L896 1118 L896 0 L711 0 L711 168 Q662 71 577.5 21 Q493 -29 380 -29 Q208 -29 124 83.5 Q40 196 40 424 Z " />
<glyph glyph-name="uni01B1" unicode="&#x1b1;" horiz-adv-x="1233" d="M1159 1460 L1159 1288 L914 1288 Q1037 1154 1092 1010 Q1147 866 1147 678 Q1147 367 1003 183.5 Q859 0 619 0 Q377 0 232.5 183 Q88 366 88 678 Q88 866 143.5 1010.5 Q199 1155 322 1288 L74 1288 L74 1460 L537 1460 L537 1288 Q417 1212 350 1047.5 Q283 883 283 661 Q283 431 373 298.5 Q463 166 617 166 Q771 166 860.5 298.5 Q950 431 950 661 Q950 883 883 1047.5 Q816 1212 696 1288 L696 1460 L1159 1460 Z " />
<glyph glyph-name="uni01B2" unicode="&#x1b2;" horiz-adv-x="1233" d="M506 0 Q336 0 244 106 Q154 208 154 406 L154 1493 L358 1493 L358 421 Q358 295 402 233 Q446 171 536 171 Q690 171 780 303.5 Q870 436 870 666 Q870 888 803 1052.5 Q736 1217 616 1293 L834 1293 Q956 1159 1011 1015 Q1066 871 1066 683 Q1066 372 922 188 Q775 0 506 0 Z " />
<glyph glyph-name="uni01B3" unicode="&#x1b3;" horiz-adv-x="1233" d="M875 1140 L629 670 L629 0 L446 0 L446 670 L17 1493 L210 1493 L538 834 L737 1235 Q836 1435 945 1477 Q991 1495 1036 1495 Q1116 1495 1191 1438 L1216 1419 L1145 1285 L1135 1294 Q1101 1325 1061 1325 Q1033 1325 1002 1309 Q951 1285 875 1140 Z " />
<glyph glyph-name="uni01B4" unicode="&#x1b4;" horiz-adv-x="1233" d="M622 -104 Q541 -307 470 -365 Q396 -426 272 -426 L125 -426 L125 -272 L233 -272 Q309 -272 351 -236 Q393 -200 444 -66 L477 18 L24 1120 L219 1120 L569 244 L848 943 Q898 1069 979 1110 Q1022 1132 1073 1132 Q1122 1132 1177 1112 L1225 1095 L1172 948 L1144 958 Q1116 969 1094 969 Q1051 969 1035 928 L622 -104 Z " />
<glyph glyph-name="uni01B5" unicode="&#x1b5;" horiz-adv-x="1233" d="M178 1493 L1147 1493 L1147 1339 L752 747 L984 747 L984 577 L719 577 L639 577 L367 170 L1169 170 L1169 0 L156 0 L156 154 L431 577 L251 577 L251 747 L541 747 L915 1323 L178 1323 L178 1493 Z " />
<glyph glyph-name="uni01B6" unicode="&#x1b6;" horiz-adv-x="1233" d="M222 1122 L1035 1122 L1035 954 L765 616 L1077 616 L1077 452 L723 452 L634 452 L392 150 L1035 150 L1035 0 L198 0 L198 170 L423 452 L156 452 L156 616 L554 616 L841 975 L222 975 L222 1122 Z " />
<glyph glyph-name="uni01B7" unicode="&#x1b7;" horiz-adv-x="1233" d="M228 435 Q228 292 328 217 Q427 142 616.5 142 Q806 142 906 217 Q1006 292 1006 435 Q1006 569 914 642 Q820 716 656 716 L482 716 L482 882 L852 1323 L114 1323 L114 1493 L1084 1493 L1084 1325 L708 884 Q812 884 942 828 Q1040 785 1126 677 Q1206 573 1206 435 Q1206 214 1054 93 Q902 -28 622 -28 Q330 -28 178 93 Q26 214 26 435 L228 435 Z " />
<glyph glyph-name="uni01B8" unicode="&#x1b8;" horiz-adv-x="1233" d="M1006 435 L1206 435 Q1206 214 1054 93 Q902 -28 610 -28 Q330 -28 178 93 Q26 214 26 435 Q26 573 108 677 Q193 785 292 828 Q421 884 526 884 L150 1325 L150 1493 L1118 1493 L1118 1323 L382 1323 L752 882 L752 716 L578 716 Q412 716 320 642 Q228 569 228 435 Q228 292 328 217 Q427 142 616.5 142 Q806 142 906 217 Q1006 292 1006 435 Z " />
<glyph glyph-name="uni01B9" unicode="&#x1b9;" horiz-adv-x="1233" d="M624 476 L213 952 L213 1120 L1087 1120 L1087 973 L420 973 L850 474 L850 308 L676 308 Q511 308 418 234 Q326 159 326 27 Q326 -116 426 -191 Q525 -266 715 -266 Q824 -266 924 -241 Q1024 -216 1108 -167 L1108 -362 Q1002 -399 902 -418 Q803 -436 709 -436 Q429 -436 277 -315 Q125 -194 125 27 Q125 165 206 269 Q292 378 390 420 Q518 476 624 476 Z " />
<glyph glyph-name="uni01BA" unicode="&#x1ba;" horiz-adv-x="1233" d="M699 -274 Q783 -274 860 -253 Q939 -232 1020 -188 L1020 -367 Q933 -399 853 -412 Q767 -426 670 -426 Q190 -426 190 -145 Q190 93 596 146 Q880 183 880 281 Q880 405 645 405 Q645 405 355 405 L840 973 L173 973 L173 1120 L1047 1120 L1047 952 L693 540 Q1060 540 1060 311 Q1060 35 596 -14 Q370 -38 370 -135 Q370 -274 699 -274 Z " />
<glyph glyph-name="uni01BB" unicode="&#x1bb;" horiz-adv-x="1233" d="M164 1421 Q372 1520 563 1520 Q782 1520 915.5 1403.5 Q1049 1287 1049 1098 Q1049 1002 1004 906 Q970 832 904 747 L984 747 L984 577 L754 577 L698 514 L373 170 L1059 170 L1059 0 L152 0 L152 170 L534 577 L251 577 L251 747 L685 747 Q790 877 820 961 Q842 1021 842 1083 Q842 1268 692 1328 Q635 1350 567 1350 Q386 1350 164 1217 L164 1421 Z " />
<glyph glyph-name="uni01BC" unicode="&#x1bc;" horiz-adv-x="1233" d="M616 142 Q932 142 993 341 Q1006 384 1006 435 Q1006 569 914 642 Q820 716 656 716 L215 716 L215 1493 L1139 1493 L1139 1323 L418 1323 L418 884 L708 884 Q813 884 942 828 Q1041 785 1126 677 Q1206 576 1206 435 Q1206 214 1054 93 Q902 -28 622 -28 Q192 -28 70 228 Q26 319 26 435 L228 435 Q228 254 386 183 Q477 142 616 142 Z " />
<glyph glyph-name="uni01BD" unicode="&#x1bd;" horiz-adv-x="1233" d="M518 -266 Q829 -266 892 -71 Q907 -26 907 27 Q907 161 815 234 Q722 308 557 308 L257 308 L257 1120 L1009 1120 L1009 936 L441 936 L441 475 L609 476 Q712 477 843 420 Q942 377 1027 269 Q1108 165 1108 27 Q1108 -194 956 -315 Q804 -436 524 -436 Q337 -436 125 -362 L125 -167 Q295 -266 518 -266 Z " />
<glyph glyph-name="uni01BE" unicode="&#x1be;" horiz-adv-x="1233" d="M845 439 Q845 553 771 632 Q682 727 509 727 L447 727 L447 998 L218 998 L218 1162 L447 1162 L447 1438 L649 1438 L649 1162 L880 1162 L880 998 L649 998 L649 873 Q814 844 922 734 Q1039 615 1039 439 Q1039 254 929 128 Q791 -29 517 -29 Q346 -29 194 41 L194 213 Q350 127 509 127 Q688 127 787 241 Q844 306 845 439 Z " />
<glyph glyph-name="uni01BF" unicode="&#x1bf;" horiz-adv-x="1233" d="M310 -122 L310 -426 L125 -426 L125 1120 L310 1120 L310 950 Q362 1016 497 1098 Q578 1147 788 1147 Q972 1147 1049 1035 Q1127 922 1127 769 Q1127 344 310 -122 Z M310 60 Q936 460 936 709 Q936 842 879 908 Q823 973 703 973 Q483 973 310 734 L310 60 Z " />
<glyph glyph-name="uni01C0" unicode="&#x1c0;" horiz-adv-x="1233" d="M516 1493 L718 1493 L718 0 L516 0 L516 1493 Z " />
<glyph glyph-name="uni01C1" unicode="&#x1c1;" horiz-adv-x="1233" d="M315 1493 L517 1493 L517 0 L315 0 L315 1493 Z M718 1493 L920 1493 L920 0 L718 0 L718 1493 Z " />
<glyph glyph-name="uni01C2" unicode="&#x1c2;" horiz-adv-x="1233" d="M516 1493 L718 1493 L718 1089 L1068 1089 L1068 921 L718 921 L718 681 L1068 681 L1068 511 L718 511 L718 0 L516 0 L516 511 L164 511 L164 681 L516 681 L516 921 L164 921 L164 1089 L516 1089 L516 1493 Z " />
<glyph glyph-name="uni01C3" unicode="&#x1c3;" horiz-adv-x="1233" d="M546 1493 L749 1493 L749 838 L728 531 L567 531 L546 838 L546 1493 Z M516 254 L779 254 L779 0 L516 0 L516 254 Z " />
<glyph glyph-name="uni01CD" unicode="&#x1cd;" horiz-adv-x="1233" d="M616 1315 L403 551 L829 551 L616 1315 Z M494 1493 L739 1493 L1196 0 L987 0 L877 389 L354 389 L246 0 L37 0 L494 1493 Z M522 1635 L311 1901 L451 1901 L616 1723 L782 1901 L922 1901 L711 1635 L522 1635 Z " />
<glyph glyph-name="uni01CE" unicode="&#x1ce;" horiz-adv-x="1233" d="M702 563 L641 563 Q480 563 398.5 506.5 Q317 450 317 338 Q317 237 378 181 Q439 125 547 125 Q699 125 786 230.5 Q873 336 874 522 L874 563 L702 563 Z M1059 639 L1059 0 L874 0 L874 166 Q815 66 725.5 18.5 Q636 -29 508 -29 Q337 -29 235 67.5 Q133 164 133 326 Q133 513 258.5 610 Q384 707 627 707 L874 707 L874 736 Q873 870 806 930.5 Q739 991 592 991 Q498 991 402 964 Q306 937 215 885 L215 1069 Q317 1108 410.5 1127.5 Q504 1147 592 1147 Q731 1147 829.5 1106 Q928 1065 989 983 Q1027 933 1043 859.5 Q1059 786 1059 639 Z M543 1262 L297 1638 L436 1638 L616 1393 L797 1638 L936 1638 L690 1262 L543 1262 Z " />
<glyph glyph-name="uni01CF" unicode="&#x1cf;" horiz-adv-x="1233" d="M201 1493 L1030 1493 L1030 1323 L717 1323 L717 170 L1030 170 L1030 0 L201 0 L201 170 L514 170 L514 1323 L201 1323 L201 1493 Z M522 1635 L311 1901 L451 1901 L616 1723 L782 1901 L922 1901 L711 1635 L522 1635 Z " />
<glyph glyph-name="uni01D0" unicode="&#x1d0;" horiz-adv-x="1233" d="M256 1120 L727 1120 L727 143 L1092 143 L1092 0 L178 0 L178 143 L543 143 L543 977 L256 977 L256 1120 Z M543 1262 L297 1638 L436 1638 L616 1393 L797 1638 L936 1638 L690 1262 L543 1262 Z " />
<glyph glyph-name="uni01D1" unicode="&#x1d1;" horiz-adv-x="1233" d="M905 745 Q905 1074 837.5 1215 Q770 1356 616 1356 Q463 1356 395.5 1215 Q328 1074 328 745 Q328 417 395.5 276 Q463 135 616 135 Q770 135 837.5 275.5 Q905 416 905 745 Z M1116 745 Q1116 355 992.5 163 Q869 -29 616 -29 Q363 -29 240 162 Q117 353 117 745 Q117 1136 240.5 1328 Q364 1520 616 1520 Q869 1520 992.5 1328 Q1116 1136 1116 745 Z M522 1635 L311 1901 L451 1901 L616 1723 L782 1901 L922 1901 L711 1635 L522 1635 Z " />
<glyph glyph-name="uni01D2" unicode="&#x1d2;" horiz-adv-x="1233" d="M616 991 Q476 991 404 882 Q332 773 332 559 Q332 346 404 236.5 Q476 127 616 127 Q757 127 829 236.5 Q901 346 901 559 Q901 773 829 882 Q757 991 616 991 Z M616 1147 Q849 1147 972.5 996 Q1096 845 1096 559 Q1096 272 973 121.5 Q850 -29 616 -29 Q383 -29 260 121.5 Q137 272 137 559 Q137 845 260 996 Q383 1147 616 1147 Z M543 1262 L297 1638 L436 1638 L616 1393 L797 1638 L936 1638 L690 1262 L543 1262 Z " />
<glyph glyph-name="uni01D3" unicode="&#x1d3;" horiz-adv-x="1233" d="M147 573 L147 1493 L350 1493 L350 481 Q350 372 356 325.5 Q362 279 377 254 Q409 195 469.5 165 Q530 135 616 135 Q703 135 763 165 Q823 195 856 254 Q871 279 877 325 Q883 371 883 479 L883 1493 L1085 1493 L1085 573 Q1085 344 1056.5 247.5 Q1028 151 958 88 Q892 29 807 0 Q722 -29 616 -29 Q511 -29 426 0 Q341 29 274 88 Q205 150 176 248.5 Q147 347 147 573 Z M522 1635 L311 1901 L451 1901 L616 1723 L782 1901 L922 1901 L711 1635 L522 1635 Z " />
<glyph glyph-name="uni01D4" unicode="&#x1d4;" horiz-adv-x="1233" d="M195 424 L195 1118 L379 1118 L379 424 Q379 273 432.5 202 Q486 131 598 131 Q728 131 797 222.5 Q866 314 866 485 L866 1118 L1051 1118 L1051 0 L866 0 L866 168 Q817 71 732.5 21 Q648 -29 535 -29 Q363 -29 279 83.5 Q195 196 195 424 Z M543 1262 L297 1638 L436 1638 L616 1393 L797 1638 L936 1638 L690 1262 L543 1262 Z " />
<glyph glyph-name="uni01D5" unicode="&#x1d5;" horiz-adv-x="1233" d="M319 1746 L522 1746 L522 1543 L319 1543 L319 1746 Z M711 1746 L913 1746 L913 1543 L711 1543 L711 1746 Z M147 573 L147 1493 L350 1493 L350 481 Q350 372 356 325.5 Q362 279 377 254 Q409 195 469.5 165 Q530 135 616 135 Q703 135 763 165 Q823 195 856 254 Q871 279 877 325 Q883 371 883 479 L883 1493 L1085 1493 L1085 573 Q1085 344 1056.5 247.5 Q1028 151 958 88 Q892 29 807 0 Q722 -29 616 -29 Q511 -29 426 0 Q341 29 274 88 Q205 150 176 248.5 Q147 347 147 573 Z M317 1952 L915 1952 L915 1804 L317 1804 L317 1952 Z " />
<glyph glyph-name="uni01D6" unicode="&#x1d6;" horiz-adv-x="1233" d="M319 1552 L522 1552 L522 1350 L319 1350 L319 1552 Z M711 1552 L913 1552 L913 1350 L711 1350 L711 1552 Z M195 424 L195 1118 L379 1118 L379 424 Q379 273 432.5 202 Q486 131 598 131 Q728 131 797 222.5 Q866 314 866 485 L866 1118 L1051 1118 L1051 0 L866 0 L866 168 Q817 71 732.5 21 Q648 -29 535 -29 Q363 -29 279 83.5 Q195 196 195 424 Z M117 1842 L1115 1842 L1115 1694 L117 1694 L117 1842 Z " />
<glyph glyph-name="uni01D7" unicode="&#x1d7;" horiz-adv-x="1233" d="M319 1746 L522 1746 L522 1543 L319 1543 L319 1746 Z M711 1746 L913 1746 L913 1543 L711 1543 L711 1746 Z M147 573 L147 1493 L350 1493 L350 481 Q350 372 356 325.5 Q362 279 377 254 Q409 195 469.5 165 Q530 135 616 135 Q703 135 763 165 Q823 195 856 254 Q871 279 877 325 Q883 371 883 479 L883 1493 L1085 1493 L1085 573 Q1085 344 1056.5 247.5 Q1028 151 958 88 Q892 29 807 0 Q722 -29 616 -29 Q511 -29 426 0 Q341 29 274 88 Q205 150 176 248.5 Q147 347 147 573 Z M672 2041 L858 2041 L629 1777 L475 1777 L672 2041 Z " />
<glyph glyph-name="uni01D8" unicode="&#x1d8;" horiz-adv-x="1233" d="M319 1552 L522 1552 L522 1350 L319 1350 L319 1552 Z M711 1552 L913 1552 L913 1350 L711 1350 L711 1552 Z M195 424 L195 1118 L379 1118 L379 424 Q379 273 432.5 202 Q486 131 598 131 Q728 131 797 222.5 Q866 314 866 485 L866 1118 L1051 1118 L1051 0 L866 0 L866 168 Q817 71 732.5 21 Q648 -29 535 -29 Q363 -29 279 83.5 Q195 196 195 424 Z M756 1954 L954 1954 L629 1578 L475 1578 L756 1954 Z " />
<glyph glyph-name="uni01D9" unicode="&#x1d9;" horiz-adv-x="1233" d="M319 1746 L522 1746 L522 1543 L319 1543 L319 1746 Z M711 1746 L913 1746 L913 1543 L711 1543 L711 1746 Z M147 573 L147 1493 L350 1493 L350 481 Q350 372 356 325.5 Q362 279 377 254 Q409 195 469.5 165 Q530 135 616 135 Q703 135 763 165 Q823 195 856 254 Q871 279 877 325 Q883 371 883 479 L883 1493 L1085 1493 L1085 573 Q1085 344 1056.5 247.5 Q1028 151 958 88 Q892 29 807 0 Q722 -29 616 -29 Q511 -29 426 0 Q341 29 274 88 Q205 150 176 248.5 Q147 347 147 573 Z M522 1777 L311 2043 L451 2043 L616 1865 L782 2043 L922 2043 L711 1777 L522 1777 Z " />
<glyph glyph-name="uni01DA" unicode="&#x1da;" horiz-adv-x="1233" d="M319 1552 L522 1552 L522 1350 L319 1350 L319 1552 Z M711 1552 L913 1552 L913 1350 L711 1350 L711 1552 Z M195 424 L195 1118 L379 1118 L379 424 Q379 273 432.5 202 Q486 131 598 131 Q728 131 797 222.5 Q866 314 866 485 L866 1118 L1051 1118 L1051 0 L866 0 L866 168 Q817 71 732.5 21 Q648 -29 535 -29 Q363 -29 279 83.5 Q195 196 195 424 Z M543 1578 L297 1954 L436 1954 L616 1709 L797 1954 L936 1954 L690 1578 L543 1578 Z " />
<glyph glyph-name="uni01DB" unicode="&#x1db;" horiz-adv-x="1233" d="M319 1746 L522 1746 L522 1543 L319 1543 L319 1746 Z M711 1746 L913 1746 L913 1543 L711 1543 L711 1746 Z M147 573 L147 1493 L350 1493 L350 481 Q350 372 356 325.5 Q362 279 377 254 Q409 195 469.5 165 Q530 135 616 135 Q703 135 763 165 Q823 195 856 254 Q871 279 877 325 Q883 371 883 479 L883 1493 L1085 1493 L1085 573 Q1085 344 1056.5 247.5 Q1028 151 958 88 Q892 29 807 0 Q722 -29 616 -29 Q511 -29 426 0 Q341 29 274 88 Q205 150 176 248.5 Q147 347 147 573 Z M561 2041 L758 1777 L604 1777 L377 2041 L561 2041 Z " />
<glyph glyph-name="uni01DC" unicode="&#x1dc;" horiz-adv-x="1233" d="M477 1954 L758 1578 L604 1578 L279 1954 L477 1954 Z M195 424 L195 1118 L379 1118 L379 424 Q379 273 432.5 202 Q486 131 598 131 Q728 131 797 222.5 Q866 314 866 485 L866 1118 L1051 1118 L1051 0 L866 0 L866 168 Q817 71 732.5 21 Q648 -29 535 -29 Q363 -29 279 83.5 Q195 196 195 424 Z M319 1552 L522 1552 L522 1350 L319 1350 L319 1552 Z M711 1552 L913 1552 L913 1350 L711 1350 L711 1552 Z " />
<glyph glyph-name="uni01DD" unicode="&#x1dd;" horiz-adv-x="1233" d="M122 512 L122 602 L919 602 L919 608 Q919 791 823.5 891 Q728 991 554 991 Q466 991 370 963 Q274 935 165 878 L165 1061 Q270 1104 367.5 1125.5 Q465 1147 556 1147 Q817 1147 964 990.5 Q1111 834 1111 559 Q1111 291 967 131 Q823 -29 583 -29 Q369 -29 245.5 116 Q122 261 122 512 Z M306 459 Q306 297 380.5 212 Q455 127 591 127 Q724 127 810 215 Q896 303 912 459 L306 459 Z " />
<glyph glyph-name="uni01DE" unicode="&#x1de;" horiz-adv-x="1233" d="M319 1746 L522 1746 L522 1543 L319 1543 L319 1746 Z M711 1746 L913 1746 L913 1543 L711 1543 L711 1746 Z M317 1952 L915 1952 L915 1804 L317 1804 L317 1952 Z M616 1315 L403 551 L829 551 L616 1315 Z M494 1493 L739 1493 L1196 0 L987 0 L877 389 L354 389 L246 0 L37 0 L494 1493 Z " />
<glyph glyph-name="uni01DF" unicode="&#x1df;" horiz-adv-x="1233" d="M117 1842 L1115 1842 L1115 1694 L117 1694 L117 1842 Z M702 563 L641 563 Q480 563 398.5 506.5 Q317 450 317 338 Q317 237 378 181 Q439 125 547 125 Q699 125 786 230.5 Q873 336 874 522 L874 563 L702 563 Z M1059 639 L1059 0 L874 0 L874 166 Q815 66 725.5 18.5 Q636 -29 508 -29 Q337 -29 235 67.5 Q133 164 133 326 Q133 513 258.5 610 Q384 707 627 707 L874 707 L874 736 Q873 870 806 930.5 Q739 991 592 991 Q498 991 402 964 Q306 937 215 885 L215 1069 Q317 1108 410.5 1127.5 Q504 1147 592 1147 Q731 1147 829.5 1106 Q928 1065 989 983 Q1027 933 1043 859.5 Q1059 786 1059 639 Z M319 1552 L522 1552 L522 1350 L319 1350 L319 1552 Z M711 1552 L913 1552 L913 1350 L711 1350 L711 1552 Z " />
<glyph glyph-name="uni01E0" unicode="&#x1e0;" horiz-adv-x="1233" d="M317 1952 L915 1952 L915 1804 L317 1804 L317 1952 Z M513 1749 L718 1749 L718 1544 L513 1544 L513 1749 Z M616 1315 L403 551 L829 551 L616 1315 Z M494 1493 L739 1493 L1196 0 L987 0 L877 389 L354 389 L246 0 L37 0 L494 1493 Z " />
<glyph glyph-name="uni01E1" unicode="&#x1e1;" horiz-adv-x="1233" d="M117 1842 L1115 1842 L1115 1694 L117 1694 L117 1842 Z M513 1552 L718 1552 L718 1348 L513 1348 L513 1552 Z M702 563 L641 563 Q480 563 398.5 506.5 Q317 450 317 338 Q317 237 378 181 Q439 125 547 125 Q699 125 786 230.5 Q873 336 874 522 L874 563 L702 563 Z M1059 639 L1059 0 L874 0 L874 166 Q815 66 725.5 18.5 Q636 -29 508 -29 Q337 -29 235 67.5 Q133 164 133 326 Q133 513 258.5 610 Q384 707 627 707 L874 707 L874 736 Q873 870 806 930.5 Q739 991 592 991 Q498 991 402 964 Q306 937 215 885 L215 1069 Q317 1108 410.5 1127.5 Q504 1147 592 1147 Q731 1147 829.5 1106 Q928 1065 989 983 Q1027 933 1043 859.5 Q1059 786 1059 639 Z " />
<glyph glyph-name="uni01E2" unicode="&#x1e2;" horiz-adv-x="1233" d="M487 1840 L1085 1840 L1085 1692 L487 1692 L487 1840 Z M1161 1493 L1161 1323 L823 1323 L823 881 L1130 881 L1130 711 L823 711 L823 170 L1180 170 L1180 0 L637 0 L637 383 L285 383 L184 0 L0 0 L410 1493 L1161 1493 Z M530 1323 L328 551 L637 551 L637 1323 L530 1323 Z " />
<glyph glyph-name="uni01E3" unicode="&#x1e3;" horiz-adv-x="1233" d="M317 1526 L915 1526 L915 1378 L317 1378 L317 1526 Z M543 442 L543 514 L494 514 Q325 514 265 469 Q205 424 205 311 Q205 222 249.5 173.5 Q294 125 377 125 Q469 125 506 191.5 Q543 258 543 442 Z M1036 657 L1036 709 Q1036 860 997.5 926.5 Q959 993 872 993 Q785 993 747 925 Q709 857 709 700 L709 657 L1036 657 Z M1200 514 L709 514 Q708 499 707.5 481.5 Q707 464 707 430 Q707 269 757.5 197 Q808 125 920 125 Q999 125 1063.5 150.5 Q1128 176 1178 227 L1178 55 Q1123 14 1057 -7.5 Q991 -29 920 -29 Q810 -29 735.5 12 Q661 53 629 131 Q590 51 523.5 11 Q457 -29 360 -29 Q204 -29 122.5 57 Q41 143 41 307 Q41 478 141 567.5 Q241 657 432 657 L549 657 L549 745 Q549 865 499.5 929 Q450 993 356 993 Q300 993 234 971.5 Q168 950 106 911 L106 1079 Q183 1114 249 1130.5 Q315 1147 375 1147 Q466 1147 528 1115.5 Q590 1084 627 1020 Q660 1081 726 1114 Q792 1147 881 1147 Q1055 1147 1127.5 1028.5 Q1200 910 1200 604 L1200 514 Z " />
<glyph glyph-name="Gcaron" unicode="&#x1e6;" horiz-adv-x="1233" d="M522 1635 L311 1901 L451 1901 L616 1723 L782 1901 L922 1901 L711 1635 L522 1635 Z M1104 123 Q1023 48 921.5 9.5 Q820 -29 702 -29 Q418 -29 260 174.5 Q102 378 102 745 Q102 1111 262 1315.5 Q422 1520 707 1520 Q801 1520 887 1493.5 Q973 1467 1053 1413 L1053 1206 Q972 1283 887 1319.5 Q802 1356 707 1356 Q510 1356 411.5 1203.5 Q313 1051 313 745 Q313 434 408.5 284.5 Q504 135 702 135 Q769 135 819.5 150.5 Q870 166 911 199 L911 600 L694 600 L694 766 L1104 766 L1104 123 Z " />
<glyph glyph-name="gcaron" unicode="&#x1e7;" horiz-adv-x="1233" d="M543 1262 L297 1638 L436 1638 L616 1393 L797 1638 L936 1638 L690 1262 L543 1262 Z M858 569 Q858 776 790.5 883.5 Q723 991 594 991 Q459 991 388 883.5 Q317 776 317 569 Q317 362 388.5 253.5 Q460 145 596 145 Q723 145 790.5 254 Q858 363 858 569 Z M1042 72 Q1042 -180 923 -310 Q804 -440 573 -440 Q497 -440 414 -426 Q331 -412 248 -385 L248 -203 Q346 -249 426 -271 Q506 -293 573 -293 Q722 -293 790 -212 Q858 -131 858 45 L858 53 L858 178 Q814 84 738 38 Q662 -8 553 -8 Q357 -8 240 149 Q123 306 123 569 Q123 833 240 990 Q357 1147 553 1147 Q661 1147 736 1104 Q811 1061 858 971 L858 1116 L1042 1116 L1042 72 Z " />
<glyph glyph-name="uni01E8" unicode="&#x1e8;" horiz-adv-x="1233" d="M522 1635 L311 1901 L451 1901 L616 1723 L782 1901 L922 1901 L711 1635 L522 1635 Z M137 1493 L340 1493 L340 829 L971 1493 L1208 1493 L627 883 L1225 0 L981 0 L494 748 L340 584 L340 0 L137 0 L137 1493 Z " />
<glyph glyph-name="uni01E9" unicode="&#x1e9;" horiz-adv-x="1233" d="M522 1635 L311 1901 L451 1901 L616 1723 L782 1901 L922 1901 L711 1635 L522 1635 Z M236 1556 L426 1556 L426 655 L909 1120 L1133 1120 L692 698 L1202 0 L977 0 L563 578 L426 449 L426 0 L236 0 L236 1556 Z " />
<glyph glyph-name="uni01EA" unicode="&#x1ea;" horiz-adv-x="1233" d="M556 -15 L675 -15 Q630 -76 608.5 -120 Q587 -164 587 -195 Q587 -241 614.5 -264 Q642 -287 696 -287 Q728 -287 759 -279.5 Q790 -272 821 -257 L821 -390 Q783 -400 749 -405 Q715 -410 685 -410 Q563 -410 505.5 -366.5 Q448 -323 448 -230 Q448 -182 474.5 -129.5 Q501 -77 556 -15 Z M905 745 Q905 1074 837.5 1215 Q770 1356 616 1356 Q463 1356 395.5 1215 Q328 1074 328 745 Q328 417 395.5 276 Q463 135 616 135 Q770 135 837.5 275.5 Q905 416 905 745 Z M1116 745 Q1116 355 992.5 163 Q869 -29 616 -29 Q363 -29 240 162 Q117 353 117 745 Q117 1136 240.5 1328 Q364 1520 616 1520 Q869 1520 992.5 1328 Q1116 1136 1116 745 Z " />
<glyph glyph-name="uni01EB" unicode="&#x1eb;" horiz-adv-x="1233" d="M556 -15 L675 -15 Q630 -76 608.5 -120 Q587 -164 587 -195 Q587 -241 614.5 -264 Q642 -287 696 -287 Q728 -287 759 -279.5 Q790 -272 821 -257 L821 -390 Q783 -400 749 -405 Q715 -410 685 -410 Q563 -410 505.5 -366.5 Q448 -323 448 -230 Q448 -182 474.5 -129.5 Q501 -77 556 -15 Z M616 991 Q476 991 404 882 Q332 773 332 559 Q332 346 404 236.5 Q476 127 616 127 Q757 127 829 236.5 Q901 346 901 559 Q901 773 829 882 Q757 991 616 991 Z M616 1147 Q849 1147 972.5 996 Q1096 845 1096 559 Q1096 272 973 121.5 Q850 -29 616 -29 Q383 -29 260 121.5 Q137 272 137 559 Q137 845 260 996 Q383 1147 616 1147 Z " />
<glyph glyph-name="uni01EC" unicode="&#x1ec;" horiz-adv-x="1233" d="M317 1840 L915 1840 L915 1692 L317 1692 L317 1840 Z M556 -15 L675 -15 Q630 -76 608.5 -120 Q587 -164 587 -195 Q587 -241 614.5 -264 Q642 -287 696 -287 Q728 -287 759 -279.5 Q790 -272 821 -257 L821 -390 Q783 -400 749 -405 Q715 -410 685 -410 Q563 -410 505.5 -366.5 Q448 -323 448 -230 Q448 -182 474.5 -129.5 Q501 -77 556 -15 Z M905 745 Q905 1074 837.5 1215 Q770 1356 616 1356 Q463 1356 395.5 1215 Q328 1074 328 745 Q328 417 395.5 276 Q463 135 616 135 Q770 135 837.5 275.5 Q905 416 905 745 Z M1116 745 Q1116 355 992.5 163 Q869 -29 616 -29 Q363 -29 240 162 Q117 353 117 745 Q117 1136 240.5 1328 Q364 1520 616 1520 Q869 1520 992.5 1328 Q1116 1136 1116 745 Z " />
<glyph glyph-name="uni01ED" unicode="&#x1ed;" horiz-adv-x="1233" d="M317 1526 L915 1526 L915 1378 L317 1378 L317 1526 Z M556 -15 L675 -15 Q630 -76 608.5 -120 Q587 -164 587 -195 Q587 -241 614.5 -264 Q642 -287 696 -287 Q728 -287 759 -279.5 Q790 -272 821 -257 L821 -390 Q783 -400 749 -405 Q715 -410 685 -410 Q563 -410 505.5 -366.5 Q448 -323 448 -230 Q448 -182 474.5 -129.5 Q501 -77 556 -15 Z M616 991 Q476 991 404 882 Q332 773 332 559 Q332 346 404 236.5 Q476 127 616 127 Q757 127 829 236.5 Q901 346 901 559 Q901 773 829 882 Q757 991 616 991 Z M616 1147 Q849 1147 972.5 996 Q1096 845 1096 559 Q1096 272 973 121.5 Q850 -29 616 -29 Q383 -29 260 121.5 Q137 272 137 559 Q137 845 260 996 Q383 1147 616 1147 Z " />
<glyph glyph-name="uni01EE" unicode="&#x1ee;" horiz-adv-x="1233" d="M522 1635 L311 1901 L451 1901 L616 1723 L782 1901 L922 1901 L711 1635 L522 1635 Z M228 435 Q228 292 328 217 Q427 142 616.5 142 Q806 142 906 217 Q1006 292 1006 435 Q1006 569 914 642 Q820 716 656 716 L482 716 L482 882 L852 1323 L114 1323 L114 1493 L1084 1493 L1084 1325 L708 884 Q812 884 942 828 Q1040 785 1126 677 Q1206 573 1206 435 Q1206 214 1054 93 Q902 -28 622 -28 Q330 -28 178 93 Q26 214 26 435 L228 435 Z " />
<glyph glyph-name="uni01EF" unicode="&#x1ef;" horiz-adv-x="1233" d="M543 1262 L297 1638 L436 1638 L616 1393 L797 1638 L936 1638 L690 1262 L543 1262 Z M609 476 Q715 476 843 420 Q941 378 1027 269 Q1108 165 1108 27 Q1108 -194 956 -315 Q804 -436 524 -436 Q430 -436 331 -418 Q231 -399 125 -362 L125 -167 Q209 -216 309 -241 Q409 -266 518 -266 Q708 -266 807 -191 Q907 -116 907 27 Q907 159 815 234 Q722 308 557 308 L383 308 L383 474 L813 973 L146 973 L146 1120 L1020 1120 L1020 952 L609 476 Z " />
<glyph glyph-name="uni01F0" unicode="&#x1f0;" horiz-adv-x="1233" d="M578 1258 L332 1634 L471 1634 L651 1389 L832 1634 L971 1634 L725 1258 L578 1258 Z M600 -20 L600 977 L283 977 L283 1120 L784 1120 L784 -20 Q784 -215 694.5 -320.5 Q605 -426 440 -426 L186 -426 L186 -270 L420 -270 Q510 -270 555 -207.5 Q600 -145 600 -20 Z " />
<glyph glyph-name="uni01F4" unicode="&#x1f4;" horiz-adv-x="1233" d="M762 1899 L948 1899 L719 1635 L565 1635 L762 1899 Z M1104 123 Q1023 48 921.5 9.5 Q820 -29 702 -29 Q418 -29 260 174.5 Q102 378 102 745 Q102 1111 262 1315.5 Q422 1520 707 1520 Q801 1520 887 1493.5 Q973 1467 1053 1413 L1053 1206 Q972 1283 887 1319.5 Q802 1356 707 1356 Q510 1356 411.5 1203.5 Q313 1051 313 745 Q313 434 408.5 284.5 Q504 135 702 135 Q769 135 819.5 150.5 Q870 166 911 199 L911 600 L694 600 L694 766 L1104 766 L1104 123 Z " />
<glyph glyph-name="uni01F5" unicode="&#x1f5;" horiz-adv-x="1233" d="M756 1638 L954 1638 L629 1262 L475 1262 L756 1638 Z M858 569 Q858 776 790.5 883.5 Q723 991 594 991 Q459 991 388 883.5 Q317 776 317 569 Q317 362 388.5 253.5 Q460 145 596 145 Q723 145 790.5 254 Q858 363 858 569 Z M1042 72 Q1042 -180 923 -310 Q804 -440 573 -440 Q497 -440 414 -426 Q331 -412 248 -385 L248 -203 Q346 -249 426 -271 Q506 -293 573 -293 Q722 -293 790 -212 Q858 -131 858 45 L858 53 L858 178 Q814 84 738 38 Q662 -8 553 -8 Q357 -8 240 149 Q123 306 123 569 Q123 833 240 990 Q357 1147 553 1147 Q661 1147 736 1104 Q811 1061 858 971 L858 1116 L1042 1116 L1042 72 Z " />
<glyph glyph-name="uni01F6" unicode="&#x1f6;" horiz-adv-x="1233" d="M877 135 Q931 135 956 214 Q989 316 989 586 L989 881 L1171 881 L1171 561 Q1171 188 1067 48 Q1010 -29 877 -29 Q749 -29 677 54 Q543 207 543 561 L543 711 L244 711 L244 0 L62 0 L62 1493 L244 1493 L244 881 L543 881 L543 1493 L726 1493 L726 586 Q726 313 808 174 Q831 135 877 135 Z " />
<glyph glyph-name="uni01F8" unicode="&#x1f8;" horiz-adv-x="1233" d="M561 1899 L758 1635 L604 1635 L377 1899 L561 1899 Z M19 1488 L295 1488 L879 263 L879 1488 L1094 1488 L1094 0 L818 0 L234 1225 L234 0 L19 0 L19 1488 Z " />
<glyph glyph-name="uni01F9" unicode="&#x1f9;" horiz-adv-x="1233" d="M477 1638 L758 1262 L604 1262 L279 1638 L477 1638 Z M1051 694 L1051 0 L866 0 L866 694 Q866 845 813 916 Q760 987 647 987 Q518 987 448.5 895.5 Q379 804 379 633 L379 0 L195 0 L195 1120 L379 1120 L379 952 Q428 1048 512 1097.5 Q596 1147 711 1147 Q882 1147 966.5 1034.5 Q1051 922 1051 694 Z " />
<glyph glyph-name="AEacute" unicode="&#x1fc;" horiz-adv-x="1233" d="M912 1899 L1098 1899 L869 1635 L715 1635 L912 1899 Z M1161 1493 L1161 1323 L823 1323 L823 881 L1130 881 L1130 711 L823 711 L823 170 L1180 170 L1180 0 L637 0 L637 383 L285 383 L184 0 L0 0 L410 1493 L1161 1493 Z M530 1323 L328 551 L637 551 L637 1323 L530 1323 Z " />
<glyph glyph-name="aeacute" unicode="&#x1fd;" horiz-adv-x="1233" d="M756 1638 L954 1638 L629 1262 L475 1262 L756 1638 Z M543 442 L543 514 L494 514 Q325 514 265 469 Q205 424 205 311 Q205 222 249.5 173.5 Q294 125 377 125 Q469 125 506 191.5 Q543 258 543 442 Z M1036 657 L1036 709 Q1036 860 997.5 926.5 Q959 993 872 993 Q785 993 747 925 Q709 857 709 700 L709 657 L1036 657 Z M1200 514 L709 514 Q708 499 707.5 481.5 Q707 464 707 430 Q707 269 757.5 197 Q808 125 920 125 Q999 125 1063.5 150.5 Q1128 176 1178 227 L1178 55 Q1123 14 1057 -7.5 Q991 -29 920 -29 Q810 -29 735.5 12 Q661 53 629 131 Q590 51 523.5 11 Q457 -29 360 -29 Q204 -29 122.5 57 Q41 143 41 307 Q41 478 141 567.5 Q241 657 432 657 L549 657 L549 745 Q549 865 499.5 929 Q450 993 356 993 Q300 993 234 971.5 Q168 950 106 911 L106 1079 Q183 1114 249 1130.5 Q315 1147 375 1147 Q466 1147 528 1115.5 Q590 1084 627 1020 Q660 1081 726 1114 Q792 1147 881 1147 Q1055 1147 1127.5 1028.5 Q1200 910 1200 604 L1200 514 Z " />
<glyph glyph-name="Oslashacute" unicode="&#x1fe;" horiz-adv-x="1233" d="M672 1899 L858 1899 L629 1635 L475 1635 L672 1899 Z M371 303 Q401 225 466.5 180 Q532 135 616 135 Q770 135 837.5 275.5 Q905 416 905 745 Q905 855 900 923 Q895 991 885 1036 L371 303 Z M338 471 L842 1190 Q817 1271 759.5 1313.5 Q702 1356 616 1356 Q459 1356 393.5 1210 Q328 1064 328 686 Q328 606 330.5 555.5 Q333 505 338 471 Z M1032 1247 Q1073 1166 1094.5 1037 Q1116 908 1116 745 Q1116 355 992.5 163 Q869 -29 616 -29 Q495 -29 405 11.5 Q315 52 254 133 L111 -70 L8 0 L186 252 Q154 325 135.5 456 Q117 587 117 745 Q117 1136 240.5 1328 Q364 1520 616 1520 Q731 1520 817.5 1479 Q904 1438 961 1358 L1100 1559 L1200 1485 L1032 1247 Z " />
<glyph glyph-name="oslashacute" unicode="&#x1ff;" horiz-adv-x="1233" d="M756 1638 L954 1638 L629 1262 L475 1262 L756 1638 Z M877 780 L414 221 Q450 174 500.5 150.5 Q551 127 616 127 Q757 127 829 236.5 Q901 346 901 559 Q901 611 895 666.5 Q889 722 877 780 Z M817 897 Q782 945 732.5 968 Q683 991 616 991 Q477 991 402.5 884 Q328 777 328 575 Q328 527 335 469 Q342 411 356 340 L817 897 Z M217 180 Q178 251 157.5 348.5 Q137 446 137 559 Q137 845 260 996 Q383 1147 616 1147 Q716 1147 795 1119.5 Q874 1092 934 1036 L1081 1212 L1174 1135 L1010 940 Q1052 874 1074 777.5 Q1096 681 1096 559 Q1096 272 973 121.5 Q850 -29 616 -29 Q513 -29 434.5 0.5 Q356 30 299 90 L139 -96 L47 -20 L217 180 Z " />
<glyph glyph-name="uni0200" unicode="&#x200;" horiz-adv-x="1233" d="M373 1899 L570 1635 L416 1635 L187 1899 L373 1899 Z M692 1899 L889 1635 L735 1635 L506 1899 L692 1899 Z M616 1315 L403 551 L829 551 L616 1315 Z M494 1493 L739 1493 L1196 0 L987 0 L877 389 L354 389 L246 0 L37 0 L494 1493 Z " />
<glyph glyph-name="uni0201" unicode="&#x201;" horiz-adv-x="1233" d="M388 1638 L593 1262 L458 1262 L210 1638 L388 1638 Z M722 1638 L912 1262 L775 1262 L552 1638 L722 1638 Z M702 563 L641 563 Q480 563 398.5 506.5 Q317 450 317 338 Q317 237 378 181 Q439 125 547 125 Q699 125 786 230.5 Q873 336 874 522 L874 563 L702 563 Z M1059 639 L1059 0 L874 0 L874 166 Q815 66 725.5 18.5 Q636 -29 508 -29 Q337 -29 235 67.5 Q133 164 133 326 Q133 513 258.5 610 Q384 707 627 707 L874 707 L874 736 Q873 870 806 930.5 Q739 991 592 991 Q498 991 402 964 Q306 937 215 885 L215 1069 Q317 1108 410.5 1127.5 Q504 1147 592 1147 Q731 1147 829.5 1106 Q928 1065 989 983 Q1027 933 1043 859.5 Q1059 786 1059 639 Z " />
<glyph glyph-name="uni0202" unicode="&#x202;" horiz-adv-x="1233" d="M303 1659 Q314 1779 393 1840 Q472 1901 616 1901 Q760 1901 839.5 1839.5 Q919 1778 930 1659 L811 1659 Q796 1715 747.5 1742.5 Q699 1770 616 1770 Q534 1770 484 1741.5 Q434 1713 422 1659 L303 1659 Z M616 1315 L403 551 L829 551 L616 1315 Z M494 1493 L739 1493 L1196 0 L987 0 L877 389 L354 389 L246 0 L37 0 L494 1493 Z " />
<glyph glyph-name="uni0203" unicode="&#x203;" horiz-adv-x="1233" d="M303 1321 Q314 1464 393 1536 Q472 1608 616 1608 Q761 1608 840 1536 Q919 1464 930 1321 L811 1321 Q797 1397 749 1434 Q701 1471 616 1471 Q529 1471 481 1434 Q433 1397 422 1321 L303 1321 Z M702 563 L641 563 Q480 563 398.5 506.5 Q317 450 317 338 Q317 237 378 181 Q439 125 547 125 Q699 125 786 230.5 Q873 336 874 522 L874 563 L702 563 Z M1059 639 L1059 0 L874 0 L874 166 Q815 66 725.5 18.5 Q636 -29 508 -29 Q337 -29 235 67.5 Q133 164 133 326 Q133 513 258.5 610 Q384 707 627 707 L874 707 L874 736 Q873 870 806 930.5 Q739 991 592 991 Q498 991 402 964 Q306 937 215 885 L215 1069 Q317 1108 410.5 1127.5 Q504 1147 592 1147 Q731 1147 829.5 1106 Q928 1065 989 983 Q1027 933 1043 859.5 Q1059 786 1059 639 Z " />
<glyph glyph-name="uni0204" unicode="&#x204;" horiz-adv-x="1233" d="M373 1899 L570 1635 L416 1635 L187 1899 L373 1899 Z M692 1899 L889 1635 L735 1635 L506 1899 L692 1899 Z M197 1493 L1083 1493 L1083 1323 L399 1323 L399 921 L1053 921 L1053 751 L399 751 L399 170 L1102 170 L1102 0 L197 0 L197 1493 Z " />
<glyph glyph-name="uni0205" unicode="&#x205;" horiz-adv-x="1233" d="M402 1638 L607 1262 L472 1262 L224 1638 L402 1638 Z M736 1638 L926 1262 L789 1262 L566 1638 L736 1638 Z M1120 652 L1120 562 L323 562 L323 556 Q315 327 410.5 227 Q506 127 680 127 Q768 127 864 155 Q960 183 1069 240 L1069 57 Q964 14 866.5 -7.5 Q769 -29 678 -29 Q417 -29 270 127.5 Q123 284 123 559 Q123 827 267 987 Q411 1147 651 1147 Q865 1147 988.5 1002 Q1112 857 1120 652 Z M936 706 Q924 822 851.5 906.5 Q779 991 643 991 Q510 991 424 903 Q338 815 330 705 L936 706 Z " />
<glyph glyph-name="uni0206" unicode="&#x206;" horiz-adv-x="1233" d="M303 1659 Q314 1779 393 1840 Q472 1901 616 1901 Q760 1901 839.5 1839.5 Q919 1778 930 1659 L811 1659 Q796 1715 747.5 1742.5 Q699 1770 616 1770 Q534 1770 484 1741.5 Q434 1713 422 1659 L303 1659 Z M197 1493 L1083 1493 L1083 1323 L399 1323 L399 921 L1053 921 L1053 751 L399 751 L399 170 L1102 170 L1102 0 L197 0 L197 1493 Z " />
<glyph glyph-name="uni0207" unicode="&#x207;" horiz-adv-x="1233" d="M317 1321 Q328 1464 407 1536 Q486 1608 630 1608 Q775 1608 854 1536 Q933 1464 944 1321 L825 1321 Q811 1397 763 1434 Q715 1471 630 1471 Q543 1471 495 1434 Q447 1397 436 1321 L317 1321 Z M1120 652 L1120 562 L323 562 L323 556 Q315 327 410.5 227 Q506 127 680 127 Q768 127 864 155 Q960 183 1069 240 L1069 57 Q964 14 866.5 -7.5 Q769 -29 678 -29 Q417 -29 270 127.5 Q123 284 123 559 Q123 827 267 987 Q411 1147 651 1147 Q865 1147 988.5 1002 Q1112 857 1120 652 Z M936 706 Q924 822 851.5 906.5 Q779 991 643 991 Q510 991 424 903 Q338 815 330 705 L936 706 Z " />
<glyph glyph-name="uni0208" unicode="&#x208;" horiz-adv-x="1233" d="M373 1899 L570 1635 L416 1635 L187 1899 L373 1899 Z M692 1899 L889 1635 L735 1635 L506 1899 L692 1899 Z M201 1493 L1030 1493 L1030 1323 L717 1323 L717 170 L1030 170 L1030 0 L201 0 L201 170 L514 170 L514 1323 L201 1323 L201 1493 Z " />
<glyph glyph-name="uni0209" unicode="&#x209;" horiz-adv-x="1233" d="M388 1638 L593 1262 L458 1262 L210 1638 L388 1638 Z M722 1638 L912 1262 L775 1262 L552 1638 L722 1638 Z M256 1120 L727 1120 L727 143 L1092 143 L1092 0 L178 0 L178 143 L543 143 L543 977 L256 977 L256 1120 Z " />
<glyph glyph-name="uni020A" unicode="&#x20a;" horiz-adv-x="1233" d="M303 1659 Q314 1779 393 1840 Q472 1901 616 1901 Q760 1901 839.5 1839.5 Q919 1778 930 1659 L811 1659 Q796 1715 747.5 1742.5 Q699 1770 616 1770 Q534 1770 484 1741.5 Q434 1713 422 1659 L303 1659 Z M201 1493 L1030 1493 L1030 1323 L717 1323 L717 170 L1030 170 L1030 0 L201 0 L201 170 L514 170 L514 1323 L201 1323 L201 1493 Z " />
<glyph glyph-name="uni020B" unicode="&#x20b;" horiz-adv-x="1233" d="M303 1321 Q314 1464 393 1536 Q472 1608 616 1608 Q761 1608 840 1536 Q919 1464 930 1321 L811 1321 Q797 1397 749 1434 Q701 1471 616 1471 Q529 1471 481 1434 Q433 1397 422 1321 L303 1321 Z M256 1120 L727 1120 L727 143 L1092 143 L1092 0 L178 0 L178 143 L543 143 L543 977 L256 977 L256 1120 Z " />
<glyph glyph-name="uni020C" unicode="&#x20c;" horiz-adv-x="1233" d="M373 1899 L570 1635 L416 1635 L187 1899 L373 1899 Z M692 1899 L889 1635 L735 1635 L506 1899 L692 1899 Z M905 745 Q905 1074 837.5 1215 Q770 1356 616 1356 Q463 1356 395.5 1215 Q328 1074 328 745 Q328 417 395.5 276 Q463 135 616 135 Q770 135 837.5 275.5 Q905 416 905 745 Z M1116 745 Q1116 355 992.5 163 Q869 -29 616 -29 Q363 -29 240 162 Q117 353 117 745 Q117 1136 240.5 1328 Q364 1520 616 1520 Q869 1520 992.5 1328 Q1116 1136 1116 745 Z " />
<glyph glyph-name="uni020D" unicode="&#x20d;" horiz-adv-x="1233" d="M388 1638 L593 1262 L458 1262 L210 1638 L388 1638 Z M722 1638 L912 1262 L775 1262 L552 1638 L722 1638 Z M616 991 Q476 991 404 882 Q332 773 332 559 Q332 346 404 236.5 Q476 127 616 127 Q757 127 829 236.5 Q901 346 901 559 Q901 773 829 882 Q757 991 616 991 Z M616 1147 Q849 1147 972.5 996 Q1096 845 1096 559 Q1096 272 973 121.5 Q850 -29 616 -29 Q383 -29 260 121.5 Q137 272 137 559 Q137 845 260 996 Q383 1147 616 1147 Z " />
<glyph glyph-name="uni020E" unicode="&#x20e;" horiz-adv-x="1233" d="M303 1659 Q314 1779 393 1840 Q472 1901 616 1901 Q760 1901 839.5 1839.5 Q919 1778 930 1659 L811 1659 Q796 1715 747.5 1742.5 Q699 1770 616 1770 Q534 1770 484 1741.5 Q434 1713 422 1659 L303 1659 Z M905 745 Q905 1074 837.5 1215 Q770 1356 616 1356 Q463 1356 395.5 1215 Q328 1074 328 745 Q328 417 395.5 276 Q463 135 616 135 Q770 135 837.5 275.5 Q905 416 905 745 Z M1116 745 Q1116 355 992.5 163 Q869 -29 616 -29 Q363 -29 240 162 Q117 353 117 745 Q117 1136 240.5 1328 Q364 1520 616 1520 Q869 1520 992.5 1328 Q1116 1136 1116 745 Z " />
<glyph glyph-name="uni020F" unicode="&#x20f;" horiz-adv-x="1233" d="M303 1321 Q314 1464 393 1536 Q472 1608 616 1608 Q761 1608 840 1536 Q919 1464 930 1321 L811 1321 Q797 1397 749 1434 Q701 1471 616 1471 Q529 1471 481 1434 Q433 1397 422 1321 L303 1321 Z M616 991 Q476 991 404 882 Q332 773 332 559 Q332 346 404 236.5 Q476 127 616 127 Q757 127 829 236.5 Q901 346 901 559 Q901 773 829 882 Q757 991 616 991 Z M616 1147 Q849 1147 972.5 996 Q1096 845 1096 559 Q1096 272 973 121.5 Q850 -29 616 -29 Q383 -29 260 121.5 Q137 272 137 559 Q137 845 260 996 Q383 1147 616 1147 Z " />
<glyph glyph-name="uni0210" unicode="&#x210;" horiz-adv-x="1233" d="M324 1899 L521 1635 L367 1635 L138 1899 L324 1899 Z M643 1899 L840 1635 L686 1635 L457 1899 L643 1899 Z M760 705 Q838 685 893 629.5 Q948 574 1030 408 L1233 0 L1016 0 L838 377 Q761 538 699.5 584.5 Q638 631 539 631 L346 631 L346 0 L143 0 L143 1493 L559 1493 Q805 1493 936 1382 Q1067 1271 1067 1061 Q1067 913 986.5 819.5 Q906 726 760 705 Z M346 1327 L346 797 L567 797 Q712 797 783 862 Q854 927 854 1061 Q854 1190 778.5 1258.5 Q703 1327 559 1327 L346 1327 Z " />
<glyph glyph-name="uni0211" unicode="&#x211;" horiz-adv-x="1233" d="M538 1638 L743 1262 L608 1262 L360 1638 L538 1638 Z M872 1638 L1062 1262 L925 1262 L702 1638 L872 1638 Z M1155 889 Q1096 935 1035 956 Q974 977 901 977 Q729 977 638 869 Q547 761 547 557 L547 0 L362 0 L362 1120 L547 1120 L547 901 Q593 1020 688.5 1083.5 Q784 1147 915 1147 Q983 1147 1042 1130 Q1101 1113 1155 1077 L1155 889 Z " />
<glyph glyph-name="uni0212" unicode="&#x212;" horiz-adv-x="1233" d="M254 1659 Q265 1779 344 1840 Q423 1901 567 1901 Q711 1901 790.5 1839.5 Q870 1778 881 1659 L762 1659 Q747 1715 698.5 1742.5 Q650 1770 567 1770 Q485 1770 435 1741.5 Q385 1713 373 1659 L254 1659 Z M760 705 Q838 685 893 629.5 Q948 574 1030 408 L1233 0 L1016 0 L838 377 Q761 538 699.5 584.5 Q638 631 539 631 L346 631 L346 0 L143 0 L143 1493 L559 1493 Q805 1493 936 1382 Q1067 1271 1067 1061 Q1067 913 986.5 819.5 Q906 726 760 705 Z M346 1327 L346 797 L567 797 Q712 797 783 862 Q854 927 854 1061 Q854 1190 778.5 1258.5 Q703 1327 559 1327 L346 1327 Z " />
<glyph glyph-name="uni0213" unicode="&#x213;" horiz-adv-x="1233" d="M453 1321 Q464 1464 543 1536 Q622 1608 766 1608 Q911 1608 990 1536 Q1069 1464 1080 1321 L961 1321 Q947 1397 899 1434 Q851 1471 766 1471 Q679 1471 631 1434 Q583 1397 572 1321 L453 1321 Z M1155 889 Q1096 935 1035 956 Q974 977 901 977 Q729 977 638 869 Q547 761 547 557 L547 0 L362 0 L362 1120 L547 1120 L547 901 Q593 1020 688.5 1083.5 Q784 1147 915 1147 Q983 1147 1042 1130 Q1101 1113 1155 1077 L1155 889 Z " />
<glyph glyph-name="uni0214" unicode="&#x214;" horiz-adv-x="1233" d="M373 1899 L570 1635 L416 1635 L187 1899 L373 1899 Z M692 1899 L889 1635 L735 1635 L506 1899 L692 1899 Z M147 573 L147 1493 L350 1493 L350 481 Q350 372 356 325.5 Q362 279 377 254 Q409 195 469.5 165 Q530 135 616 135 Q703 135 763 165 Q823 195 856 254 Q871 279 877 325 Q883 371 883 479 L883 1493 L1085 1493 L1085 573 Q1085 344 1056.5 247.5 Q1028 151 958 88 Q892 29 807 0 Q722 -29 616 -29 Q511 -29 426 0 Q341 29 274 88 Q205 150 176 248.5 Q147 347 147 573 Z " />
<glyph glyph-name="uni0215" unicode="&#x215;" horiz-adv-x="1233" d="M388 1638 L593 1262 L458 1262 L210 1638 L388 1638 Z M722 1638 L912 1262 L775 1262 L552 1638 L722 1638 Z M195 424 L195 1118 L379 1118 L379 424 Q379 273 432.5 202 Q486 131 598 131 Q728 131 797 222.5 Q866 314 866 485 L866 1118 L1051 1118 L1051 0 L866 0 L866 168 Q817 71 732.5 21 Q648 -29 535 -29 Q363 -29 279 83.5 Q195 196 195 424 Z " />
<glyph glyph-name="uni0216" unicode="&#x216;" horiz-adv-x="1233" d="M303 1659 Q314 1779 393 1840 Q472 1901 616 1901 Q760 1901 839.5 1839.5 Q919 1778 930 1659 L811 1659 Q796 1715 747.5 1742.5 Q699 1770 616 1770 Q534 1770 484 1741.5 Q434 1713 422 1659 L303 1659 Z M147 573 L147 1493 L350 1493 L350 481 Q350 372 356 325.5 Q362 279 377 254 Q409 195 469.5 165 Q530 135 616 135 Q703 135 763 165 Q823 195 856 254 Q871 279 877 325 Q883 371 883 479 L883 1493 L1085 1493 L1085 573 Q1085 344 1056.5 247.5 Q1028 151 958 88 Q892 29 807 0 Q722 -29 616 -29 Q511 -29 426 0 Q341 29 274 88 Q205 150 176 248.5 Q147 347 147 573 Z " />
<glyph glyph-name="uni0217" unicode="&#x217;" horiz-adv-x="1233" d="M303 1321 Q314 1464 393 1536 Q472 1608 616 1608 Q761 1608 840 1536 Q919 1464 930 1321 L811 1321 Q797 1397 749 1434 Q701 1471 616 1471 Q529 1471 481 1434 Q433 1397 422 1321 L303 1321 Z M195 424 L195 1118 L379 1118 L379 424 Q379 273 432.5 202 Q486 131 598 131 Q728 131 797 222.5 Q866 314 866 485 L866 1118 L1051 1118 L1051 0 L866 0 L866 168 Q817 71 732.5 21 Q648 -29 535 -29 Q363 -29 279 83.5 Q195 196 195 424 Z " />
<glyph glyph-name="Scommaaccent" unicode="&#x218;" horiz-adv-x="1233" d="M502 -197 L741 -197 L554 -542 L408 -542 L502 -197 Z M1012 1442 L1012 1237 Q920 1296 827.5 1326 Q735 1356 641 1356 Q498 1356 415 1289.5 Q332 1223 332 1110 Q332 1011 386.5 959 Q441 907 590 872 L696 848 Q906 799 1002 694 Q1098 589 1098 408 Q1098 195 966 83 Q834 -29 582 -29 Q477 -29 371 -6.5 Q265 16 158 61 L158 276 Q273 203 375.5 169 Q478 135 582 135 Q735 135 820 203.5 Q905 272 905 395 Q905 507 846.5 566 Q788 625 643 657 L535 682 Q327 729 233 824 Q139 919 139 1079 Q139 1279 273.5 1399.5 Q408 1520 631 1520 Q717 1520 812 1500.5 Q907 1481 1012 1442 Z " />
<glyph glyph-name="scommaaccent" unicode="&#x219;" horiz-adv-x="1233" d="M502 -197 L741 -197 L554 -542 L408 -542 L502 -197 Z M973 1081 L973 901 Q894 947 814 970 Q734 993 651 993 Q526 993 464.5 952.5 Q403 912 403 829 Q403 754 449 717 Q495 680 678 645 L752 631 Q889 605 959.5 527 Q1030 449 1030 324 Q1030 158 912 64.5 Q794 -29 584 -29 Q501 -29 410 -11.5 Q319 6 213 41 L213 231 Q316 178 410 151.5 Q504 125 588 125 Q710 125 777 174.5 Q844 224 844 313 Q844 441 599 490 L591 492 L522 506 Q363 537 290 610.5 Q217 684 217 811 Q217 972 326 1059.5 Q435 1147 637 1147 Q727 1147 810 1130.5 Q893 1114 973 1081 Z " />
<glyph glyph-name="uni021A" unicode="&#x21a;" horiz-adv-x="1233" d="M502 -197 L741 -197 L554 -542 L408 -542 L502 -197 Z M47 1493 L1186 1493 L1186 1323 L719 1323 L719 0 L516 0 L516 1323 L47 1323 L47 1493 Z " />
<glyph glyph-name="uni021B" unicode="&#x21b;" horiz-adv-x="1233" d="M591 -197 L830 -197 L643 -542 L497 -542 L591 -197 Z M614 1438 L614 1120 L1032 1120 L1032 977 L614 977 L614 369 Q614 245 661 196 Q708 147 825 147 L1032 147 L1032 0 L807 0 Q600 0 515 83 Q430 166 430 369 L430 977 L131 977 L131 1120 L430 1120 L430 1438 L614 1438 Z " />
<glyph glyph-name="uni021C" unicode="&#x21c;" horiz-adv-x="1233" d="M800 674 Q1108 607 1108 314 Q1108 202 1052.5 99 Q997 -4 904.5 -84 Q812 -164 684 -232 Q556 -300 417 -348 Q278 -396 125 -430 L125 -270 Q325 -215 477.5 -145 Q630 -75 722.5 1.5 Q815 78 861 156.5 Q907 235 907 314 Q907 415 844.5 481 Q782 547 670 547 Q575 547 460 496 L297 424 L297 595 L545 701 Q605 727 656 759.5 Q707 792 759 841.5 Q811 891 841.5 960.5 Q872 1030 872 1112 Q872 1167 854.5 1210 Q837 1253 809.5 1278.5 Q782 1304 744.5 1321 Q707 1338 671 1344 Q635 1350 597 1350 Q413 1350 170 1166 L170 1356 Q409 1520 615 1520 Q746 1520 847.5 1477 Q949 1434 1011 1343 Q1073 1252 1073 1124 Q1073 1064 1061.5 1013 Q1050 962 1021 905.5 Q992 849 937 791 Q882 733 800 674 Z " />
<glyph glyph-name="uni021D" unicode="&#x21d;" horiz-adv-x="1233" d="M782 461 Q852 453 908 419 Q964 385 995 340 Q1026 295 1042.5 251 Q1059 207 1059 170 Q1059 95 1026 26 Q993 -43 939 -97 Q885 -151 809 -199.5 Q733 -248 654.5 -283 Q576 -318 486.5 -348.5 Q397 -379 322.5 -398.5 Q248 -418 174 -433 L174 -303 Q336 -257 458.5 -209 Q581 -161 660 -115.5 Q739 -70 788.5 -21 Q838 28 858 73.5 Q878 119 878 170 Q878 258 819 314 Q760 370 667 370 Q608 370 545 345 L329 259 L329 398 L552 483 Q586 496 618.5 512 Q651 528 694.5 558 Q738 588 769.5 622.5 Q801 657 823.5 708 Q846 759 846 816 Q846 860 830.5 895 Q815 930 790.5 951 Q766 972 732.5 985.5 Q699 999 666.5 1004 Q634 1009 599 1009 Q530 1009 446 979.5 Q362 950 215 860 L215 1014 Q481 1147 615 1147 Q727 1147 819 1111.5 Q911 1076 969 1003 Q1027 930 1027 833 Q1027 723 975.5 646.5 Q924 570 782 461 Z " />
<glyph glyph-name="uni021E" unicode="&#x21e;" horiz-adv-x="1233" d="M522 1635 L311 1901 L451 1901 L616 1723 L782 1901 L922 1901 L711 1635 L522 1635 Z M137 1493 L340 1493 L340 921 L893 921 L893 1493 L1096 1493 L1096 0 L893 0 L893 751 L340 751 L340 0 L137 0 L137 1493 Z " />
<glyph glyph-name="uni021F" unicode="&#x21f;" horiz-adv-x="1233" d="M522 1635 L311 1901 L451 1901 L616 1723 L782 1901 L922 1901 L711 1635 L522 1635 Z M1051 694 L1051 0 L866 0 L866 694 Q866 845 813 916 Q760 987 647 987 Q518 987 448.5 895.5 Q379 804 379 633 L379 0 L195 0 L195 1556 L379 1556 L379 952 Q428 1048 512 1097.5 Q596 1147 711 1147 Q882 1147 966.5 1034.5 Q1051 922 1051 694 Z " />
<glyph glyph-name="uni0220" unicode="&#x220;" horiz-adv-x="1233" d="M1085 999 L1085 -430 L882 -430 L882 1009 Q882 1189 824 1273.5 Q766 1358 642 1358 Q501 1358 425 1249 Q349 1140 349 937 L349 0 L147 0 L147 1493 L349 1493 L349 1295 Q403 1406 495 1464 Q587 1522 713 1522 Q900 1522 992.5 1391.5 Q1085 1261 1085 999 Z " />
<glyph glyph-name="uni0221" unicode="&#x221;" horiz-adv-x="1233" d="M877 144 Q889 126 955 127 Q1078 127 1081 282 Q1085 344 1021 344 Q957 344 877 144 Z M788 406 Q788 290 801 255 Q915 499 1019 500 Q1183 502 1183 284 Q1183 -29 933 -29 Q862 -29 814 -12 Q784 -91 764 -148 L645 -148 L713 46 Q681 59 643 148 L627 185 Q599 95 543 42 Q466 -30 366 -29 Q203 -27 111 128 Q18 286 18 563 Q18 836 111.5 991.5 Q205 1147 366 1147 Q446 1147 507.5 1103.5 Q569 1060 604 977 L604 1556 L788 1556 L788 406 Z M227 882 Q173 773 173 559 Q173 345 227 236 Q281 127 387 127 Q493 127 548.5 237 Q604 347 604 559 Q604 772 548.5 881.5 Q493 991 387 991 Q281 991 227 882 Z " />
<glyph glyph-name="uni0224" unicode="&#x224;" horiz-adv-x="1233" d="M178 1493 L1147 1493 L1147 1339 L367 170 L1169 170 L1169 128 L1170 128 L1170 -20 Q1170 -215 1081 -320 Q991 -426 826 -426 L621 -426 L621 -270 L806 -270 Q896 -270 941 -208 Q985 -146 985 -20 L985 0 L156 0 L156 154 L915 1323 L178 1323 L178 1493 Z " />
<glyph glyph-name="uni0225" unicode="&#x225;" horiz-adv-x="1233" d="M227 1122 L1040 1122 L1040 954 L397 150 L1040 150 L1040 0 L1032 0 L1032 -20 Q1032 -215 943 -320 Q853 -426 688 -426 L483 -426 L483 -270 L668 -270 Q758 -270 803 -208 Q847 -146 847 -20 L847 0 L203 0 L203 170 L846 975 L227 975 L227 1122 Z " />
<glyph glyph-name="uni0226" unicode="&#x226;" horiz-adv-x="1233" d="M513 1872 L718 1872 L718 1667 L513 1667 L513 1872 Z M616 1315 L403 551 L829 551 L616 1315 Z M494 1493 L739 1493 L1196 0 L987 0 L877 389 L354 389 L246 0 L37 0 L494 1493 Z " />
<glyph glyph-name="uni0227" unicode="&#x227;" horiz-adv-x="1233" d="M513 1552 L718 1552 L718 1348 L513 1348 L513 1552 Z M702 563 L641 563 Q480 563 398.5 506.5 Q317 450 317 338 Q317 237 378 181 Q439 125 547 125 Q699 125 786 230.5 Q873 336 874 522 L874 563 L702 563 Z M1059 639 L1059 0 L874 0 L874 166 Q815 66 725.5 18.5 Q636 -29 508 -29 Q337 -29 235 67.5 Q133 164 133 326 Q133 513 258.5 610 Q384 707 627 707 L874 707 L874 736 Q873 870 806 930.5 Q739 991 592 991 Q498 991 402 964 Q306 937 215 885 L215 1069 Q317 1108 410.5 1127.5 Q504 1147 592 1147 Q731 1147 829.5 1106 Q928 1065 989 983 Q1027 933 1043 859.5 Q1059 786 1059 639 Z " />
<glyph glyph-name="uni0228" unicode="&#x228;" horiz-adv-x="1233" d="M750 0 Q806 -62 832.5 -114.5 Q859 -167 859 -215 Q859 -304 799 -349.5 Q739 -395 621 -395 Q576 -395 532.5 -389 Q489 -383 445 -371 L445 -240 Q479 -257 516.5 -264.5 Q554 -272 601 -272 Q659 -272 689.5 -248 Q720 -224 720 -178 Q720 -148 698 -104.5 Q676 -61 632 0 L750 0 Z M197 1493 L1083 1493 L1083 1323 L399 1323 L399 921 L1053 921 L1053 751 L399 751 L399 170 L1102 170 L1102 0 L197 0 L197 1493 Z " />
<glyph glyph-name="uni0229" unicode="&#x229;" horiz-adv-x="1233" d="M750 0 Q806 -62 832.5 -114.5 Q859 -167 859 -215 Q859 -304 799 -349.5 Q739 -395 621 -395 Q576 -395 532.5 -389 Q489 -383 445 -371 L445 -240 Q479 -257 516.5 -264.5 Q554 -272 601 -272 Q659 -272 689.5 -248 Q720 -224 720 -178 Q720 -148 698 -104.5 Q676 -61 632 0 L750 0 Z M1120 652 L1120 562 L323 562 L323 556 Q315 327 410.5 227 Q506 127 680 127 Q768 127 864 155 Q960 183 1069 240 L1069 57 Q964 14 866.5 -7.5 Q769 -29 678 -29 Q417 -29 270 127.5 Q123 284 123 559 Q123 827 267 987 Q411 1147 651 1147 Q865 1147 988.5 1002 Q1112 857 1120 652 Z M936 706 Q924 822 851.5 906.5 Q779 991 643 991 Q510 991 424 903 Q338 815 330 705 L936 706 Z " />
<glyph glyph-name="uni022A" unicode="&#x22a;" horiz-adv-x="1233" d="M319 1746 L522 1746 L522 1543 L319 1543 L319 1746 Z M711 1746 L913 1746 L913 1543 L711 1543 L711 1746 Z M317 1952 L915 1952 L915 1804 L317 1804 L317 1952 Z M905 745 Q905 1074 837.5 1215 Q770 1356 616 1356 Q463 1356 395.5 1215 Q328 1074 328 745 Q328 417 395.5 276 Q463 135 616 135 Q770 135 837.5 275.5 Q905 416 905 745 Z M1116 745 Q1116 355 992.5 163 Q869 -29 616 -29 Q363 -29 240 162 Q117 353 117 745 Q117 1136 240.5 1328 Q364 1520 616 1520 Q869 1520 992.5 1328 Q1116 1136 1116 745 Z " />
<glyph glyph-name="uni022B" unicode="&#x22b;" horiz-adv-x="1233" d="M117 1842 L1115 1842 L1115 1694 L117 1694 L117 1842 Z M616 991 Q476 991 404 882 Q332 773 332 559 Q332 346 404 236.5 Q476 127 616 127 Q757 127 829 236.5 Q901 346 901 559 Q901 773 829 882 Q757 991 616 991 Z M616 1147 Q849 1147 972.5 996 Q1096 845 1096 559 Q1096 272 973 121.5 Q850 -29 616 -29 Q383 -29 260 121.5 Q137 272 137 559 Q137 845 260 996 Q383 1147 616 1147 Z M319 1552 L522 1552 L522 1350 L319 1350 L319 1552 Z M711 1552 L913 1552 L913 1350 L711 1350 L711 1552 Z " />
<glyph glyph-name="uni022C" unicode="&#x22c;" horiz-adv-x="1233" d="M905 745 Q905 1074 837.5 1215 Q770 1356 616 1356 Q463 1356 395.5 1215 Q328 1074 328 745 Q328 417 395.5 276 Q463 135 616 135 Q770 135 837.5 275.5 Q905 416 905 745 Z M1116 745 Q1116 355 992.5 163 Q869 -29 616 -29 Q363 -29 240 162 Q117 353 117 745 Q117 1136 240.5 1328 Q364 1520 616 1520 Q869 1520 992.5 1328 Q1116 1136 1116 745 Z M612 1582 L555 1615 Q530 1629 514.5 1634.5 Q499 1640 487 1640 Q452 1640 432 1615 Q412 1590 412 1545 L412 1539 L287 1539 Q287 1640 338.5 1699 Q390 1758 475 1758 Q511 1758 541.5 1750 Q572 1742 621 1715 L678 1685 Q700 1672 717.5 1666 Q735 1660 750 1660 Q781 1660 801 1685.5 Q821 1711 821 1752 L821 1758 L946 1758 Q944 1658 893 1598.5 Q842 1539 758 1539 Q724 1539 694 1547 Q664 1555 612 1582 Z M317 1952 L915 1952 L915 1804 L317 1804 L317 1952 Z " />
<glyph glyph-name="uni022D" unicode="&#x22d;" horiz-adv-x="1233" d="M121 1842 L1119 1842 L1119 1694 L121 1694 L121 1842 Z M616 991 Q476 991 404 882 Q332 773 332 559 Q332 346 404 236.5 Q476 127 616 127 Q757 127 829 236.5 Q901 346 901 559 Q901 773 829 882 Q757 991 616 991 Z M616 1147 Q849 1147 972.5 996 Q1096 845 1096 559 Q1096 272 973 121.5 Q850 -29 616 -29 Q383 -29 260 121.5 Q137 272 137 559 Q137 845 260 996 Q383 1147 616 1147 Z M612 1370 L555 1425 Q534 1445 517.5 1454.5 Q501 1464 487 1464 Q449 1464 431 1427 Q413 1390 411 1309 L287 1309 Q288 1443 339 1517 Q390 1591 481 1591 Q520 1591 552 1577 Q584 1563 621 1530 L678 1475 Q699 1455 715.5 1445.5 Q732 1436 745 1436 Q784 1436 802 1473 Q820 1510 821 1591 L946 1591 Q945 1457 894 1383 Q843 1309 752 1309 Q713 1309 681 1323 Q649 1337 612 1370 Z " />
<glyph glyph-name="uni022E" unicode="&#x22e;" horiz-adv-x="1233" d="M513 1872 L718 1872 L718 1667 L513 1667 L513 1872 Z M905 745 Q905 1074 837.5 1215 Q770 1356 616 1356 Q463 1356 395.5 1215 Q328 1074 328 745 Q328 417 395.5 276 Q463 135 616 135 Q770 135 837.5 275.5 Q905 416 905 745 Z M1116 745 Q1116 355 992.5 163 Q869 -29 616 -29 Q363 -29 240 162 Q117 353 117 745 Q117 1136 240.5 1328 Q364 1520 616 1520 Q869 1520 992.5 1328 Q1116 1136 1116 745 Z " />
<glyph glyph-name="uni022F" unicode="&#x22f;" horiz-adv-x="1233" d="M513 1552 L718 1552 L718 1348 L513 1348 L513 1552 Z M616 991 Q476 991 404 882 Q332 773 332 559 Q332 346 404 236.5 Q476 127 616 127 Q757 127 829 236.5 Q901 346 901 559 Q901 773 829 882 Q757 991 616 991 Z M616 1147 Q849 1147 972.5 996 Q1096 845 1096 559 Q1096 272 973 121.5 Q850 -29 616 -29 Q383 -29 260 121.5 Q137 272 137 559 Q137 845 260 996 Q383 1147 616 1147 Z " />
<glyph glyph-name="uni0230" unicode="&#x230;" horiz-adv-x="1233" d="M317 1952 L915 1952 L915 1804 L317 1804 L317 1952 Z M513 1749 L718 1749 L718 1544 L513 1544 L513 1749 Z M905 745 Q905 1074 837.5 1215 Q770 1356 616 1356 Q463 1356 395.5 1215 Q328 1074 328 745 Q328 417 395.5 276 Q463 135 616 135 Q770 135 837.5 275.5 Q905 416 905 745 Z M1116 745 Q1116 355 992.5 163 Q869 -29 616 -29 Q363 -29 240 162 Q117 353 117 745 Q117 1136 240.5 1328 Q364 1520 616 1520 Q869 1520 992.5 1328 Q1116 1136 1116 745 Z " />
<glyph glyph-name="uni0231" unicode="&#x231;" horiz-adv-x="1233" d="M117 1842 L1115 1842 L1115 1694 L117 1694 L117 1842 Z M513 1552 L718 1552 L718 1348 L513 1348 L513 1552 Z M616 991 Q476 991 404 882 Q332 773 332 559 Q332 346 404 236.5 Q476 127 616 127 Q757 127 829 236.5 Q901 346 901 559 Q901 773 829 882 Q757 991 616 991 Z M616 1147 Q849 1147 972.5 996 Q1096 845 1096 559 Q1096 272 973 121.5 Q850 -29 616 -29 Q383 -29 260 121.5 Q137 272 137 559 Q137 845 260 996 Q383 1147 616 1147 Z " />
<glyph glyph-name="uni0232" unicode="&#x232;" horiz-adv-x="1233" d="M317 1840 L915 1840 L915 1692 L317 1692 L317 1840 Z M37 1493 L252 1493 L616 834 L979 1493 L1196 1493 L717 670 L717 0 L514 0 L514 670 L37 1493 Z " />
<glyph glyph-name="uni0233" unicode="&#x233;" horiz-adv-x="1233" d="M317 1526 L915 1526 L915 1378 L317 1378 L317 1526 Z M858 360 Q812 243 741 52 Q642 -212 608 -270 Q562 -348 493 -387 Q424 -426 332 -426 L184 -426 L184 -272 L293 -272 Q374 -272 420 -225 Q466 -178 537 18 L104 1120 L299 1120 L631 244 L958 1120 L1153 1120 L858 360 Z " />
<glyph glyph-name="uni0234" unicode="&#x234;" horiz-adv-x="1233" d="M728 144 Q740 126 806 127 Q929 127 932 282 Q936 344 872 344 Q808 344 728 144 Z M664 -12 Q635 -91 615 -148 L496 -148 L564 46 Q545 51 494 148 Q455 222 455 406 L455 1423 L160 1423 L160 1567 L639 1567 L639 406 Q639 290 652 255 Q766 499 870 500 Q1034 502 1034 284 Q1034 -29 784 -29 Q714 -29 664 -12 Z " />
</font>
</svg>
